<svg width="18" height="18" viewBox="0 0 18 18" fill="none" xmlns="http://www.w3.org/2000/svg">
<path d="M10.8137 4.11744C10.4567 4.05149 10.1288 4.27933 10.0608 4.62784C9.99283 4.97635 10.2214 5.31662 10.5687 5.38482C11.6144 5.58868 12.4218 6.39813 12.6265 7.4474V7.44815C12.6847 7.7502 12.9507 7.9698 13.2569 7.9698C13.298 7.9698 13.3391 7.96605 13.3809 7.95855C13.7282 7.88885 13.9568 7.54933 13.8888 7.20007C13.5833 5.6329 12.377 4.42248 10.8137 4.11744Z" fill="#EF040D"/>
<path d="M10.767 1.50595C10.5997 1.48196 10.4316 1.53143 10.2979 1.63786C10.1605 1.74578 10.0746 1.90168 10.0559 2.07631C10.0163 2.42931 10.2711 2.74859 10.6236 2.78832C13.0548 3.05963 14.9446 4.95358 15.2179 7.3924C15.2545 7.71918 15.5287 7.96576 15.8558 7.96576C15.8805 7.96576 15.9044 7.96426 15.929 7.96126C16.1001 7.94253 16.2524 7.85784 16.36 7.72293C16.4668 7.58802 16.5154 7.42014 16.4959 7.2485C16.1553 4.20559 13.8003 1.84397 10.767 1.50595Z" fill="#EF040D"/>
<path fill-rule="evenodd" clip-rule="evenodd" d="M8.27381 9.72929C11.2656 12.7203 11.9443 9.26004 13.8492 11.1636C15.6857 12.9996 16.7412 13.3674 14.4144 15.6935C14.123 15.9278 12.2712 18.7457 5.76345 12.2397C-0.745109 5.733 2.07119 3.87933 2.30548 3.58796C4.6379 1.25538 4.9994 2.31704 6.83587 4.153C8.74077 6.05737 5.28199 6.73831 8.27381 9.72929Z" fill="#EF040D"/>
</svg>
