<?xml version="1.0" encoding="UTF-8"?>
<svg version="1.1" xmlns="http://www.w3.org/2000/svg" width="362" height="343">
<path d="M0 0 C22.16642944 8.51537002 47.42338799 9.4141152 69.39648438 -0.35107422 C71.06592242 -1.13072181 72.71009984 -1.96383794 74.3515625 -2.80078125 C81.52115955 -5.19936907 88.81517944 -2.081073 95.6875 0.25 C96.6067627 0.5598584 97.52602539 0.8697168 98.47314453 1.18896484 C108.78946784 4.76242812 119.10111701 9.0738475 127.5625 16.125 C127.5625 16.785 127.5625 17.445 127.5625 18.125 C126.97984375 18.1343457 126.3971875 18.14369141 125.796875 18.15332031 C100.21743858 18.66611562 79.26746857 24.32453058 60.25390625 42.30859375 C45.06844509 58.44129615 37.95457739 79.36132922 38.3125 101.26171875 C39.30884185 116.65831394 44.29544455 135.85794455 55.5625 147.125 C55.5625 148.115 55.5625 149.105 55.5625 150.125 C52.56835973 151.62207013 49.822368 151.27396107 46.484375 151.29296875 C45.76995239 151.29720352 45.05552979 151.30143829 44.31945801 151.30580139 C41.98374664 151.31575274 39.64822899 151.31570891 37.3125 151.3125 C36.11868713 151.31159363 36.11868713 151.31159363 34.90075684 151.31066895 C17.61940219 151.27494747 0.8798188 149.96417876 -16.1875 147.1875 C-17.18362305 147.02991211 -18.17974609 146.87232422 -19.20605469 146.70996094 C-20.12290039 146.54915039 -21.03974609 146.38833984 -21.984375 146.22265625 C-22.79745117 146.08351807 -23.61052734 145.94437988 -24.44824219 145.80102539 C-26.4375 145.125 -26.4375 145.125 -28.4375 142.125 C-29.01968384 139.90400696 -29.01968384 139.90400696 -29.49072266 137.28637695 C-29.67075836 136.3055867 -29.85079407 135.32479645 -30.0362854 134.31428528 C-30.22282684 133.25795395 -30.40936829 132.20162262 -30.6015625 131.11328125 C-30.79849701 130.02991989 -30.99543152 128.94655853 -31.19833374 127.83036804 C-31.8263044 124.36723074 -32.44450784 120.90243044 -33.0625 117.4375 C-33.48633745 115.09037882 -33.91080874 112.743372 -34.3359375 110.39648438 C-35.37715244 104.64063014 -36.41035194 98.88338017 -37.4375 93.125 C-37.47508423 94.40793945 -37.47508423 94.40793945 -37.51342773 95.71679688 C-38.36345475 124.35172058 -38.36345475 124.35172058 -38.875 134 C-38.96587891 135.79050781 -38.96587891 135.79050781 -39.05859375 137.6171875 C-39.24615234 138.85855469 -39.24615234 138.85855469 -39.4375 140.125 C-42.60070765 141.70660383 -45.01807608 140.18148441 -48.26806641 139.13085938 C-49.19022949 138.81955078 -50.11239258 138.50824219 -51.0625 138.1875 C-52.47861572 137.71086914 -52.47861572 137.71086914 -53.92333984 137.22460938 C-84.42242972 126.64760541 -84.42242972 126.64760541 -91.4375 116.125 C-91.70492554 114.01167297 -91.70492554 114.01167297 -91.72802734 111.5402832 C-91.74078705 110.61113602 -91.75354675 109.68198883 -91.76669312 108.72468567 C-91.76891876 107.71854721 -91.77114441 106.71240875 -91.7734375 105.67578125 C-91.7800943 104.63036667 -91.7867511 103.58495209 -91.79360962 102.50785828 C-91.80374931 100.28609983 -91.80842623 98.06431085 -91.80810547 95.8425293 C-91.81242528 92.49539253 -91.84858169 89.14963298 -91.88671875 85.80273438 C-92.01114514 62.49801879 -87.57092514 42.45244341 -70.609375 25.2734375 C-53.51338353 9.54225207 -23.1569274 -9.38917465 0 0 Z " fill="#333232" transform="translate(128.4375,169.875)"/>
<path d="M0 0 C13.22858498 11.0273149 22.29903317 27.16868459 24.8125 44.25 C26.32601036 65.11081745 22.09132305 83.55406526 8.15625 99.71875 C-6.00726675 115.01534809 -23.70403696 122.65317082 -44.5 123.5625 C-64.91726032 122.92679776 -82.54820926 114.62163111 -96.5625 99.8125 C-110.73241723 83.42073975 -114.59611074 64.47359305 -113.1875 43.25 C-110.95179267 25.66397227 -100.67769996 9.73199754 -86.875 -1.0625 C-60.45102375 -20.84680269 -26.09032163 -19.67661586 0 0 Z " fill="#343333" transform="translate(207.1875,30.75)"/>
<path d="M0 0 C14.13292684 12.03330672 22.55831232 27.37436966 24.05859375 46.0234375 C24.83123153 63.30989199 19.19687485 79.43402013 7.6875 92.4375 C-1.05860925 101.78347329 -11.81174309 108.07330155 -24.25 111.1875 C-24.9925 111.37699219 -25.735 111.56648438 -26.5 111.76171875 C-43.29738529 114.36245028 -60.04598485 111.83510667 -74.25 102.1875 C-88.52424558 90.87306122 -99.03029867 76.79799984 -101.8203125 58.43359375 C-103.6488108 41.2265743 -99.4554256 25.09471208 -89.0078125 11.20703125 C-86.85095495 8.74045195 -84.61808728 6.45043243 -82.25 4.1875 C-81.63769531 3.55585938 -81.02539062 2.92421875 -80.39453125 2.2734375 C-58.79337605 -18.6368492 -22.98223349 -17.61386445 0 0 Z M-77.43359375 17.02734375 C-86.1491141 27.3922529 -90.04198749 39.94116185 -89 53.421875 C-87.11299067 67.77662451 -80.94879281 81.19250673 -69.25 90.1875 C-56.70328614 98.1115539 -44.10719223 101.81503985 -29.25 99.1875 C-15.06338275 95.82799218 -3.51642005 88.11977578 4.3125 75.7109375 C10.86172364 63.43114317 12.9353485 49.85926521 9.5 36.25 C5.16580746 22.70814496 -3.00145816 12.54342041 -15.25 5.1875 C-37.05370721 -5.36268091 -60.83508752 -0.37593854 -77.43359375 17.02734375 Z " fill="#333032" transform="translate(285.25,217.8125)"/>
<path d="M0 0 C2.12817383 1.56054688 2.12817383 1.56054688 4.20703125 3.71875 C4.95791016 4.48574219 5.70878906 5.25273437 6.48242188 6.04296875 C7.25134766 6.85378906 8.02027344 7.66460937 8.8125 8.5 C9.99489258 9.71623047 9.99489258 9.71623047 11.20117188 10.95703125 C13.14581173 12.96059959 15.07785065 14.97488402 17 17 C20.02244104 15.65874309 21.98099694 14.21128354 24.20703125 11.77734375 C24.79419922 11.15666016 25.38136719 10.53597656 25.98632812 9.89648438 C27.20029984 8.59422381 28.40612445 7.2843189 29.60351562 5.96679688 C32.6834342 2.73909595 34.38620279 1.16624991 38.79296875 -0.02734375 C42 0 42 0 44.5 1.5 C46.11664731 4.19441218 46.58053576 5.89982304 45.93359375 9.0078125 C42.68344702 15.94327204 34.79389911 21.19229648 29 26 C29.56489491 29.66777474 30.90789385 31.19001189 33.6328125 33.64453125 C34.35597656 34.32193359 35.07914062 34.99933594 35.82421875 35.69726562 C37.35650236 37.10597798 38.8982193 38.50449878 40.44921875 39.89257812 C45.95844811 45.10121447 45.95844811 45.10121447 46.1796875 49.88671875 C45 53 45 53 42 55 C38.05855804 55.16077575 36.07858245 54.8302867 32.93408203 52.40966797 C30.72832719 50.31885447 28.63621605 48.1592031 26.5625 45.9375 C25.46518555 44.79958008 25.46518555 44.79958008 24.34570312 43.63867188 C22.54944581 41.7719731 20.7687129 39.89275498 19 38 C15.69817527 39.56418082 13.50451535 41.25357777 10.9375 43.875 C10.26589844 44.55304688 9.59429687 45.23109375 8.90234375 45.9296875 C6.95986395 47.96046615 6.95986395 47.96046615 5.37890625 50.2578125 C4.92386719 50.83273437 4.46882812 51.40765625 4 52 C3.34 52 2.68 52 2 52 C2 52.66 2 53.32 2 54 C-0.79870027 55.39935013 -2.90498792 55.25265405 -6 55 C-7.875 53.875 -7.875 53.875 -9 52 C-9.625 49.3125 -9.625 49.3125 -9 46 C-6.99603816 43.01332611 -4.53092041 40.54426446 -2 38 C-1.11183594 37.09765625 -0.22367188 36.1953125 0.69140625 35.265625 C3.11223962 32.82757376 5.54847297 30.40713318 8 28 C3.64292379 22.72564459 -1.03009718 17.91531621 -5.92578125 13.13671875 C-8.42997061 10.55707358 -8.93188889 9.64024447 -9.3125 6.0625 C-9 3 -9 3 -7.3125 1.125 C-4.54467007 -0.22151186 -3.0521371 -0.35288112 0 0 Z " fill="#343133" transform="translate(228,240)"/>
<path d="M0 0 C0.66 0 1.32 0 2 0 C2.33333333 1.33333333 2.66666667 2.66666667 3 4 C3.185625 4.61875 3.37125 5.2375 3.5625 5.875 C5.1477744 13.57490423 2.20570711 18.83125151 -1.81396484 25.265625 C-6.32313156 31.85951557 -11.93049299 38.19726879 -19 42 C-20.5 40.625 -20.5 40.625 -22 39 C-22 38.34 -22 37.68 -22 37 C-22.66 36.67 -23.32 36.34 -24 36 C-23.75 33.625 -23.75 33.625 -23 31 C-21.0625 29.9375 -21.0625 29.9375 -19 29 C-17.73195434 26.9664052 -17.73195434 26.9664052 -17 25 C-15 25 -13 25 -11 25 C-11.556875 24.2265625 -11.556875 24.2265625 -12.125 23.4375 C-13.39451075 19.90100576 -12.22985929 17.38211305 -11 14 C-10.6596875 13.04351562 -10.319375 12.08703125 -9.96875 11.1015625 C-8.99467088 8.3950141 -8.00411889 5.69552303 -7 3 C-6.01 3 -5.02 3 -4 3 C-2.66018514 2.6937566 -1.32488113 2.36548445 0 2 C0 1.34 0 0.68 0 0 Z " fill="#3D3B3B" transform="translate(301,277)"/>
<path d="M0 0 C2.18823242 1.62060547 2.18823242 1.62060547 4.35546875 3.8671875 C5.14244141 4.67027344 5.92941406 5.47335938 6.74023438 6.30078125 C7.95163086 7.57501953 7.95163086 7.57501953 9.1875 8.875 C10.00669922 9.71675781 10.82589844 10.55851563 11.66992188 11.42578125 C13.18565622 12.98517873 14.69621272 14.54963705 16.19995117 16.12060547 C17.45203347 17.42787924 18.72002446 18.72002446 20 20 C18.35 19.67 16.7 19.34 15 19 C15 18.34 15 17.68 15 17 C14.34 17 13.68 17 13 17 C11.51953125 15.4609375 11.51953125 15.4609375 9.8125 13.375 C3.94672554 6.33472595 3.94672554 6.33472595 -3.9375 2.125 C-4.618125 2.08375 -5.29875 2.0425 -6 2 C-6.29757754 4.92617918 -6.5214195 7.14815457 -6 10 C-3.29671417 12.78060468 -3.29671417 12.78060468 0 15 C1.35156675 16.65191491 2.68962066 18.31522656 4 20 C4.66 20.33 5.32 20.66 6 21 C6 21.66 6 22.32 6 23 C6.66 23 7.32 23 8 23 C8 23.66 8 24.32 8 25 C8.66 25 9.32 25 10 25 C10.33 25.99 10.66 26.98 11 28 C9.63671875 29.9375 9.63671875 29.9375 7.6875 32 C5.54174484 34.29809072 3.75328093 36.3700786 2 39 C1.34 39 0.68 39 0 39 C0.33 39.99 0.66 40.98 1 42 C2.65 42.33 4.3 42.66 6 43 C5.67 43.99 5.34 44.98 5 46 C3.515 46.495 3.515 46.495 2 47 C2.99 47 3.98 47 5 47 C4.505 49.475 4.505 49.475 4 52 C3.34 52 2.68 52 2 52 C2 52.66 2 53.32 2 54 C-0.79870027 55.39935013 -2.90498792 55.25265405 -6 55 C-7.875 53.875 -7.875 53.875 -9 52 C-9.625 49.3125 -9.625 49.3125 -9 46 C-6.99603816 43.01332611 -4.53092041 40.54426446 -2 38 C-1.11183594 37.09765625 -0.22367188 36.1953125 0.69140625 35.265625 C3.11223962 32.82757376 5.54847297 30.40713318 8 28 C3.64292379 22.72564459 -1.03009718 17.91531621 -5.92578125 13.13671875 C-8.42997061 10.55707358 -8.93188889 9.64024447 -9.3125 6.0625 C-9 3 -9 3 -7.3125 1.125 C-4.53825576 -0.22463233 -3.05960986 -0.36329847 0 0 Z " fill="#332F31" transform="translate(228,240)"/>
<path d="M0 0 C0 0.99 0 1.98 0 3 C-0.515625 3.474375 -1.03125 3.94875 -1.5625 4.4375 C-2.036875 4.953125 -2.51125 5.46875 -3 6 C-2.64137677 9.6622604 -1.03299123 11.24326072 1.6328125 13.64453125 C2.35597656 14.32193359 3.07914062 14.99933594 3.82421875 15.69726562 C5.35650236 17.10597798 6.8982193 18.50449878 8.44921875 19.89257812 C13.87302598 25.02045311 13.87302598 25.02045311 14.26855469 28.07177734 C13.9921875 30.01171875 13.9921875 30.01171875 13 33 C10.525 33.495 10.525 33.495 8 34 C8.66 33.67 9.32 33.34 10 33 C10 32.34 10 31.68 10 31 C10.66 31 11.32 31 12 31 C9.94563034 25.07858157 7.03572365 20.83364768 2 17 C-0.07372982 16.18959731 -0.07372982 16.18959731 -2 16 C-2.33 16.33 -2.66 16.66 -3 17 C-3.66 17 -4.32 17 -5 17 C-5.33 17.99 -5.66 18.98 -6 20 C-6.33 20.33 -6.66 20.66 -7 21 C-5.35 22.65 -3.7 24.3 -2 26 C-5 26 -5 26 -7.04296875 24.25 C-7.75066406 23.5075 -8.45835937 22.765 -9.1875 22 C-9.90292969 21.2575 -10.61835938 20.515 -11.35546875 19.75 C-11.89816406 19.1725 -12.44085938 18.595 -13 18 C-16.21524305 19.40844718 -18.32183868 21.10344786 -20.75 23.625 C-21.67039063 24.57246094 -21.67039063 24.57246094 -22.609375 25.5390625 C-23.06828125 26.02117187 -23.5271875 26.50328125 -24 27 C-24.66 26.67 -25.32 26.34 -26 26 C-24.52267049 22.1052222 -22.54120367 21.02354496 -19 19 C-18.319375 18.2575 -17.63875 17.515 -16.9375 16.75 C-16.298125 16.1725 -15.65875 15.595 -15 15 C-12.78155374 15.19015254 -11.58477845 15.41522155 -10 17 C-10.061875 16.236875 -10.12375 15.47375 -10.1875 14.6875 C-9.96078485 11.43791624 -9.1991392 11.1991392 -7 9 C-6.74930087 6.37429296 -6.74930087 6.37429296 -7 4 C-6.030625 3.525625 -5.06125 3.05125 -4.0625 2.5625 C-1.19522563 1.29806053 -1.19522563 1.29806053 0 0 Z " fill="#2F2C2E" transform="translate(260,260)"/>
<path d="M0 0 C0.66 0 1.32 0 2 0 C2.33 16.5 2.66 33 3 50 C9.45931893 53.57785623 9.45931893 53.57785623 16 57 C16 57.66 16 58.32 16 59 C16.804375 59.2475 17.60875 59.495 18.4375 59.75 C22.74324143 61.26078647 26.85364007 63.10188856 31 65 C27.10674184 66.28670953 25.12179325 65.42224783 21.46508789 63.59814453 C20.77535889 63.23575684 20.08562988 62.87336914 19.375 62.5 C18.66657959 62.13632324 17.95815918 61.77264648 17.22827148 61.39794922 C2.28398221 53.56796442 2.28398221 53.56796442 0 49 C-0.09003966 47.42708792 -0.11756509 45.85038425 -0.11352539 44.27490234 C-0.11344986 43.29403656 -0.11337433 42.31317078 -0.11329651 41.30258179 C-0.10813522 40.24108917 -0.10297394 39.17959656 -0.09765625 38.0859375 C-0.0962413 37.00116119 -0.09482635 35.91638489 -0.09336853 34.79873657 C-0.08775802 31.32413 -0.07520372 27.84958719 -0.0625 24.375 C-0.05748635 22.02343843 -0.05292321 19.67187585 -0.04882812 17.3203125 C-0.03778518 11.54685314 -0.02103679 5.77343112 0 0 Z " fill="#252022" transform="translate(37,237)"/>
<path d="M0 0 C2.18823242 1.62060547 2.18823242 1.62060547 4.35546875 3.8671875 C5.14244141 4.67027344 5.92941406 5.47335938 6.74023438 6.30078125 C7.95163086 7.57501953 7.95163086 7.57501953 9.1875 8.875 C10.00669922 9.71675781 10.82589844 10.55851563 11.66992188 11.42578125 C13.18565622 12.98517873 14.69621272 14.54963705 16.19995117 16.12060547 C17.45203347 17.42787924 18.72002446 18.72002446 20 20 C18.35 19.67 16.7 19.34 15 19 C15 18.34 15 17.68 15 17 C14.34 17 13.68 17 13 17 C11.51953125 15.4609375 11.51953125 15.4609375 9.8125 13.375 C3.94672554 6.33472595 3.94672554 6.33472595 -3.9375 2.125 C-4.618125 2.08375 -5.29875 2.0425 -6 2 C-6.29757754 4.92617918 -6.5214195 7.14815457 -6 10 C-3.29671417 12.78060468 -3.29671417 12.78060468 0 15 C1.35156675 16.65191491 2.68962066 18.31522656 4 20 C4.66 20.33 5.32 20.66 6 21 C6 21.66 6 22.32 6 23 C6.66 23 7.32 23 8 23 C8 23.66 8 24.32 8 25 C8.66 25 9.32 25 10 25 C10.33 25.99 10.66 26.98 11 28 C9.7421875 29.8671875 9.7421875 29.8671875 7.875 31.875 C7.23175781 32.57367188 6.58851563 33.27234375 5.92578125 33.9921875 C3.64944582 36.36548651 1.36089008 38.71065204 -1 41 C-1.495 39.515 -1.495 39.515 -2 38 C1.3 34.7 4.6 31.4 8 28 C3.64292379 22.72564459 -1.03009718 17.91531621 -5.92578125 13.13671875 C-8.42997061 10.55707358 -8.93188889 9.64024447 -9.3125 6.0625 C-9 3 -9 3 -7.3125 1.125 C-4.53825576 -0.22463233 -3.05960986 -0.36329847 0 0 Z " fill="#2D262B" transform="translate(228,240)"/>
<path d="M0 0 C1.14665465 0.81134049 2.29229959 1.62410816 3.4375 2.4375 C4.07558594 2.88996094 4.71367187 3.34242187 5.37109375 3.80859375 C7 5 7 5 8 6 C8.33 5.01 8.66 4.02 9 3 C11.04119788 4.61594832 13.04072937 6.2856382 15 8 C15 8.66 15 9.32 15 10 C14.01 10.495 14.01 10.495 13 11 C13.66 12.32 14.32 13.64 15 15 C14.360625 15.12375 13.72125 15.2475 13.0625 15.375 C12.381875 15.58125 11.70125 15.7875 11 16 C10.67 16.66 10.34 17.32 10 18 C9.443125 17.113125 8.88625 16.22625 8.3125 15.3125 C5.56141343 11.19562577 2.80192849 7.60064283 -2 6 C-1.125 1.125 -1.125 1.125 0 0 Z " fill="#3E3E3E" transform="translate(198,31)"/>
<path d="M0 0 C1.67542976 0.28604898 3.34385343 0.61781233 5 1 C5.33 3.64 5.66 6.28 6 9 C5.01 9.495 5.01 9.495 4 10 C4.01160156 10.72445312 4.02320313 11.44890625 4.03515625 12.1953125 C4.08231311 17.24783323 4.07377564 22.03378767 3 27 C2.34 26.67 1.68 26.34 1 26 C1 25.01 1 24.02 1 23 C0.34 22.67 -0.32 22.34 -1 22 C-1.02694851 20.04174127 -1.04637218 18.08337774 -1.0625 16.125 C-1.07410156 15.03445312 -1.08570313 13.94390625 -1.09765625 12.8203125 C-1 10 -1 10 0 8 C0.66 8 1.32 8 2 8 C2 7.01 2 6.02 2 5 C1.34 5 0.68 5 0 5 C-0.5625 3.0625 -0.5625 3.0625 -1 1 C-0.67 0.67 -0.34 0.34 0 0 Z " fill="#3F3E3F" transform="translate(161,240)"/>
<path d="M0 0 C0.66 0 1.32 0 2 0 C6.38513374 13.09667174 7.68592478 26.35200823 5 40 C4.34 40 3.68 40 3 40 C3 38.35 3 36.7 3 35 C1.515 35.495 1.515 35.495 0 36 C-0.495 34.515 -0.495 34.515 -1 33 C0.375 31.5 0.375 31.5 2 30 C2.66 30 3.32 30 4 30 C3.53254316 16.84922572 3.53254316 16.84922572 1 4 C0.34 3.67 -0.32 3.34 -1 3 C-0.67 2.01 -0.34 1.02 0 0 Z " fill="#2D282A" transform="translate(226,60)"/>
<path d="M0 0 C3.93053185 0.56549393 6.53407537 1.71382558 9.8125 3.9375 C10.60269531 4.46214844 11.39289063 4.98679688 12.20703125 5.52734375 C12.79871094 6.01332031 13.39039063 6.49929687 14 7 C14 7.66 14 8.32 14 9 C10.25085209 9.22616462 6.50077551 9.42782662 2.75 9.625 C1.68652344 9.68945312 0.62304688 9.75390625 -0.47265625 9.8203125 C-1.49746094 9.871875 -2.52226562 9.9234375 -3.578125 9.9765625 C-4.52075195 10.02893066 -5.46337891 10.08129883 -6.43457031 10.13525391 C-9 10 -9 10 -13 8 C-7.555 7.505 -7.555 7.505 -2 7 C-2 6.01 -2 5.02 -2 4 C0.31 4 2.62 4 5 4 C3.35 2.68 1.7 1.36 0 0 Z " fill="#2E272D" transform="translate(242,179)"/>
<path d="M0 0 C0.72445312 0.48210937 1.44890625 0.96421875 2.1953125 1.4609375 C3.16210938 2.09257812 4.12890625 2.72421875 5.125 3.375 C6.07632813 4.00148437 7.02765625 4.62796875 8.0078125 5.2734375 C10.95664441 7.10809099 10.95664441 7.10809099 14.3046875 8.1015625 C15.63886719 8.54628906 15.63886719 8.54628906 17 9 C17.33 9.66 17.66 10.32 18 11 C21.02934491 11.65772428 21.02934491 11.65772428 24 12 C24.33 11.01 24.66 10.02 25 9 C26.32 9.33 27.64 9.66 29 10 C28.67 10.99 28.34 11.98 28 13 C32.455 13.99 32.455 13.99 37 15 C37 15.33 37 15.66 37 16 C24.14056569 17.4436787 12.97859995 11.94998511 2.7578125 4.61328125 C1 3 1 3 0 0 Z " fill="#2F292B" transform="translate(119,136)"/>
<path d="M0 0 C0.66 0 1.32 0 2 0 C2.40089844 0.83402344 2.80179688 1.66804688 3.21484375 2.52734375 C8.7098964 13.40530511 15.24194141 20.93636698 26 27 C25.67 27.66 25.34 28.32 25 29 C18.46263654 25.2170772 13.04696944 21.56315446 8.33984375 15.6015625 C7.07214556 13.8697967 7.07214556 13.8697967 5 13 C3.7109375 11.07421875 3.7109375 11.07421875 2.375 8.6875 C1.92898437 7.90761719 1.48296875 7.12773437 1.0234375 6.32421875 C0 4 0 4 0 0 Z " fill="#292428" transform="translate(198,285)"/>
<path d="M0 0 C1.37562854 1.28965176 2.70766393 2.62689293 4 4 C4 4.66 4 5.32 4 6 C4.66 6 5.32 6 6 6 C6.598125 6.78375 7.19625 7.5675 7.8125 8.375 C10.20522689 11.24627226 11.57619414 11.7473881 15 13 C15.7528125 13.62519531 16.505625 14.25039063 17.28125 14.89453125 C20.13383912 17.1036484 22.71335982 18.3124419 26.0625 19.625 C29.45267548 20.96738979 32.76722041 22.30996175 36 24 C22.61140001 23.76916207 12.08601736 16.20512246 3 7 C2.24976563 6.25105469 1.49953125 5.50210937 0.7265625 4.73046875 C0.15679687 4.15941406 -0.41296875 3.58835937 -1 3 C-0.67 2.01 -0.34 1.02 0 0 Z " fill="#2B2629" transform="translate(198,304)"/>
<path d="M0 0 C0.33 0 0.66 0 1 0 C1.02505615 0.6297876 1.0501123 1.2595752 1.07592773 1.90844727 C1.19278427 4.79329341 1.31510021 7.67788395 1.4375 10.5625 C1.47681641 11.55314453 1.51613281 12.54378906 1.55664062 13.56445312 C1.78179184 18.77756979 2.20964499 23.83634724 3 29 C3.10751986 31.6793948 3.0470821 34.31632049 3 37 C1 34 1 34 1 31 C0.01 31 -0.98 31 -2 31 C-1.01 27.535 -1.01 27.535 0 24 C-0.99 23.67 -1.98 23.34 -3 23 C-2.67 22.34 -2.34 21.68 -2 21 C-1.78058781 19.4087658 -1.60940148 17.81070969 -1.46484375 16.2109375 C-1.37783203 15.26992188 -1.29082031 14.32890625 -1.20117188 13.359375 C-1.11416016 12.37453125 -1.02714844 11.3896875 -0.9375 10.375 C-0.84662109 9.38242187 -0.75574219 8.38984375 -0.66210938 7.3671875 C-0.43781564 4.91176132 -0.21726893 2.45605611 0 0 Z " fill="#2D2729" transform="translate(165,253)"/>
<path d="M0 0 C2.56687367 3.8503105 1.83288724 5.58569763 1 10 C-0.32 10.33 -1.64 10.66 -3 11 C-2.34 9.35 -1.68 7.7 -1 6 C-1.99 5.34 -2.98 4.68 -4 4 C-4 3.34 -4 2.68 -4 2 C-4.99 1.67 -5.98 1.34 -7 1 C-6.814375 1.78375 -6.62875 2.5675 -6.4375 3.375 C-6 6 -6 6 -7 8 C-7.66 8 -8.32 8 -9 8 C-9.33 7.01 -9.66 6.02 -10 5 C-10.99 5.495 -10.99 5.495 -12 6 C-11.64267506 3.40939422 -11.1383604 2.15432506 -9.375 0.1875 C-5.92998937 -1.53500532 -3.6588108 -0.94858058 0 0 Z " fill="#2F2A2F" transform="translate(272,241)"/>
<path d="M0 0 C0.66 0.33 1.32 0.66 2 1 C1.0821875 1.68964844 0.164375 2.37929687 -0.78125 3.08984375 C-7.95901722 8.5585256 -14.20858558 14.03634748 -20 21 C-21.63030194 22.71041506 -23.30262257 24.35566561 -25 26 C-25 24.35 -25 22.7 -25 21 C-24.01 20.67 -23.02 20.34 -22 20 C-21.29848848 18.6846659 -20.63474075 17.34882408 -20 16 C-16.6686983 12.19279806 -12.62402351 9.05512156 -8 7 C-8 6.34 -8 5.68 -8 5 C-6.3203125 3.67578125 -6.3203125 3.67578125 -4.125 2.3125 C-3.40570313 1.85488281 -2.68640625 1.39726562 -1.9453125 0.92578125 C-1.30335938 0.62027344 -0.66140625 0.31476563 0 0 Z " fill="#292327" transform="translate(203,198)"/>
<path d="M0 0 C8.76914353 3.64406631 13.21042853 13.80549992 16.96875 21.921875 C18.04807376 25.1434929 18.20194356 27.62754249 18 31 C15.53287873 28.53287873 15.05196059 26.49093694 13.9375 23.1875 C11.95625063 17.86659976 9.56840668 13.39617166 6.3125 8.75 C5.9198999 8.18949951 5.5272998 7.62899902 5.12280273 7.05151367 C2.99214254 4.04799561 2.99214254 4.04799561 0 2 C0 1.34 0 0.68 0 0 Z " fill="#2C2529" transform="translate(288,222)"/>
<path d="M0 0 C3.5545403 4.06460886 5.81389681 8.30068193 8.125 13.125 C8.8133189 14.54513751 9.50335978 15.96444199 10.1953125 17.3828125 C10.49453613 18.00559082 10.79375977 18.62836914 11.10205078 19.27001953 C12.09664224 21.2630608 12.09664224 21.2630608 14 24 C13.67 24.99 13.34 25.98 13 27 C11.33333333 25.33333333 9.66666667 23.66666667 8 22 C8 21.34 8 20.68 8 20 C7.04134491 17.66924071 7.04134491 17.66924071 4 16 C4.33 15.34 4.66 14.68 5 14 C4.75243555 11.92638012 4.75243555 11.92638012 4 10 C3.34 9.67 2.68 9.34 2 9 C1.3671875 6.93359375 1.3671875 6.93359375 0.875 4.4375 C0.70742187 3.61121094 0.53984375 2.78492188 0.3671875 1.93359375 C0.24601563 1.29550781 0.12484375 0.65742188 0 0 Z " fill="#2E292B" transform="translate(168,291)"/>
<path d="M0 0 C2.18823242 1.62060547 2.18823242 1.62060547 4.35546875 3.8671875 C5.14244141 4.67027344 5.92941406 5.47335938 6.74023438 6.30078125 C7.95163086 7.57501953 7.95163086 7.57501953 9.1875 8.875 C10.00669922 9.71675781 10.82589844 10.55851563 11.66992188 11.42578125 C13.18565622 12.98517873 14.69621272 14.54963705 16.19995117 16.12060547 C17.45203347 17.42787924 18.72002446 18.72002446 20 20 C18.35 19.67 16.7 19.34 15 19 C15 18.34 15 17.68 15 17 C14.34 17 13.68 17 13 17 C11.51953125 15.4609375 11.51953125 15.4609375 9.8125 13.375 C3.94672554 6.33472595 3.94672554 6.33472595 -3.9375 2.125 C-4.618125 2.08375 -5.29875 2.0425 -6 2 C-6.33 3.98 -6.66 5.96 -7 8 C-7.33 8 -7.66 8 -8 8 C-8.1875 5.125 -8.1875 5.125 -8 2 C-4.74103945 -0.17264036 -3.78038492 -0.53633117 0 0 Z " fill="#261F22" transform="translate(228,240)"/>
<path d="M0 0 C2 0 2 0 3.625 1.5 C4.07875 1.995 4.5325 2.49 5 3 C3.55873214 6.36295835 1.79407345 8.62927102 -1 11 C-1.99 11 -2.98 11 -4 11 C-4 10.34 -4 9.68 -4 9 C-4.66 9 -5.32 9 -6 9 C-6 8.01 -6 7.02 -6 6 C-5.34 6 -4.68 6 -4 6 C-3.71125 5.38125 -3.4225 4.7625 -3.125 4.125 C-2 2 -2 2 0 0 Z " fill="#373133" transform="translate(288,305)"/>
<path d="M0 0 C4.79185846 2.1627206 8.08017293 5.5603089 11.8125 9.1875 C12.51826172 9.83525391 13.22402344 10.48300781 13.95117188 11.15039062 C15.87686575 13.02733276 17.54137572 14.73938688 19 17 C18.94921875 20.98828125 18.94921875 20.98828125 18 24 C16.35 24.33 14.7 24.66 13 25 C13.66 24.67 14.32 24.34 15 24 C15 23.34 15 22.68 15 22 C15.66 22 16.32 22 17 22 C14.83622554 15.74194597 11.59262109 12.12224531 6.8125 7.625 C5.52547605 6.38996421 4.24021346 5.15308932 2.95703125 3.9140625 C2.38960205 3.3773291 1.82217285 2.8405957 1.23754883 2.28759766 C0 1 0 1 0 0 Z " fill="#231E22" transform="translate(255,269)"/>
<path d="M0 0 C0.33 0.66 0.66 1.32 1 2 C1.66 2.33 2.32 2.66 3 3 C2.67 3.99 2.34 4.98 2 6 C2.66 6.33 3.32 6.66 4 7 C3.67 8.32 3.34 9.64 3 11 C1.35 11 -0.3 11 -2 11 C-2.33 10.01 -2.66 9.02 -3 8 C-3.96873032 6.64377755 -4.96434215 5.30582947 -6 4 C-5.360625 3.87625 -4.72125 3.7525 -4.0625 3.625 C-3.0415625 3.315625 -3.0415625 3.315625 -2 3 C-1.67 2.34 -1.34 1.68 -1 1 C-0.67 0.67 -0.34 0.34 0 0 Z " fill="#383437" transform="translate(267,284)"/>
<path d="M0 0 C0.66 0 1.32 0 2 0 C2.2475 0.763125 2.495 1.52625 2.75 2.3125 C4.12130672 5.26080945 5.2351079 6.35834532 8 8 C8.66 8 9.32 8 10 8 C9.67 9.65 9.34 11.3 9 13 C8.34 13 7.68 13 7 13 C7 12.34 7 11.68 7 11 C5.35 11 3.7 11 2 11 C0.19769832 7.17010894 -0.19622241 4.21878192 0 0 Z " fill="#313030" transform="translate(291,288)"/>
<path d="M0 0 C4.455 1.98 4.455 1.98 9 4 C9 4.66 9 5.32 9 6 C9.804375 6.2475 10.60875 6.495 11.4375 6.75 C15.74324143 8.26078647 19.85364007 10.10188856 24 12 C21.77017686 12.74984385 20.43986418 13.13299032 18.15649414 12.44262695 C17.23018188 11.97022583 17.23018188 11.97022583 16.28515625 11.48828125 C15.59873047 11.14216797 14.91230469 10.79605469 14.20507812 10.43945312 C13.49802734 10.06755859 12.79097656 9.69566406 12.0625 9.3125 C11.35931641 8.95994141 10.65613281 8.60738281 9.93164062 8.24414062 C5.91755131 6.18630852 2.42873515 3.97246511 -1 1 C-0.67 0.67 -0.34 0.34 0 0 Z " fill="#2B2727" transform="translate(44,290)"/>
<path d="M0 0 C0.66 0 1.32 0 2 0 C2 4.29 2 8.58 2 13 C0.68 12.67 -0.64 12.34 -2 12 C-3.4783226 9.04335481 -3.06032783 6.25770263 -3 3 C-2.01 2.67 -1.02 2.34 0 2 C0 1.34 0 0.68 0 0 Z " fill="#3F3F3F" transform="translate(301,277)"/>
<path d="M0 0 C5.15464734 0.48324819 8.81550319 3.18610761 13 6 C9.71480525 7.09506492 7.26336585 7.09960608 3.8125 7.0625 C2.18248047 7.04896484 2.18248047 7.04896484 0.51953125 7.03515625 C-0.31191406 7.02355469 -1.14335937 7.01195312 -2 7 C-2 6.01 -2 5.02 -2 4 C0.31 4 2.62 4 5 4 C3.35 2.68 1.7 1.36 0 0 Z " fill="#332D34" transform="translate(242,179)"/>
<path d="M0 0 C-1.12073862 0.83905565 -2.24674547 1.67107831 -3.375 2.5 C-4.31472656 3.19609375 -4.31472656 3.19609375 -5.2734375 3.90625 C-7 5 -7 5 -9 5 C-9 5.66 -9 6.32 -9 7 C-10.35546875 8.33203125 -10.35546875 8.33203125 -12.1875 9.8125 C-15.3122781 12.39742822 -18.17663397 15.09107743 -21 18 C-19.58419794 13.44625068 -17.04489128 10.62092411 -13.6875 7.375 C-13.21376953 6.89804688 -12.74003906 6.42109375 -12.25195312 5.9296875 C-4.65597166 -1.55199055 -4.65597166 -1.55199055 0 0 Z " fill="#2E292C" transform="translate(216,215)"/>
<path d="M0 0 C6.61085476 0.48969295 11.94977014 2.33442742 18 5 C17.67 6.32 17.34 7.64 17 9 C16.34 9 15.68 9 15 9 C14.67 8.01 14.34 7.02 14 6 C12.27516974 4.97778161 12.27516974 4.97778161 10.1875 4.3125 C9.50042969 4.06113281 8.81335938 3.80976563 8.10546875 3.55078125 C5.71775595 2.83128038 5.71775595 2.83128038 2 3 C2 2.34 2 1.68 2 1 C1.34 0.67 0.68 0.34 0 0 Z " fill="#2A272A" transform="translate(219,170)"/>
<path d="M0 0 C-1.38877354 3.35620271 -2.91677965 5.07298728 -6 7 C-6.66 7 -7.32 7 -8 7 C-7.67 7.99 -7.34 8.98 -7 10 C-8.32 10 -9.64 10 -11 10 C-9.15139825 5.46252298 -5.31552576 0 0 0 Z " fill="#3C3739" transform="translate(59,199)"/>
<path d="M0 0 C0.99 0.33 1.98 0.66 3 1 C2.57847656 1.83144531 2.15695313 2.66289062 1.72265625 3.51953125 C1.17480469 4.60621094 0.62695312 5.69289062 0.0625 6.8125 C-0.48277344 7.89144531 -1.02804688 8.97039062 -1.58984375 10.08203125 C-3.0585207 12.96211527 -3.0585207 12.96211527 -4 16 C-4.66 16 -5.32 16 -6 16 C-5.67 13.36 -5.34 10.72 -5 8 C-4.34 8 -3.68 8 -3 8 C-2.690625 7.05125 -2.38125 6.1025 -2.0625 5.125 C-1 2 -1 2 0 0 Z " fill="#292526" transform="translate(175,226)"/>
<path d="M0 0 C3.21880117 3.7935871 5.6163187 7.65829477 8 12 C8.66 12 9.32 12 10 12 C10.33 13.65 10.66 15.3 11 17 C10.34 17 9.68 17 9 17 C7.34375 14.953125 7.34375 14.953125 5.5 12.25 C4.8915625 11.36828125 4.283125 10.4865625 3.65625 9.578125 C0 3.88679245 0 3.88679245 0 0 Z " fill="#282426" transform="translate(101,113)"/>
<path d="M0 0 C0.66 0.99 1.32 1.98 2 3 C0.88368586 4.83863505 -0.24329627 6.67079723 -1.375 8.5 C-2.00148437 9.5209375 -2.62796875 10.541875 -3.2734375 11.59375 C-3.84320313 12.3878125 -4.41296875 13.181875 -5 14 C-5.66 14 -6.32 14 -7 14 C-6.649375 13.21625 -6.29875 12.4325 -5.9375 11.625 C-5.628125 10.75875 -5.31875 9.8925 -5 9 C-5.33 8.34 -5.66 7.68 -6 7 C-5.34 6.34 -4.68 5.68 -4 5 C-3.67 5.33 -3.34 5.66 -3 6 C-2.01 4.02 -1.02 2.04 0 0 Z " fill="#2B2728" transform="translate(224,112)"/>
<path d="M0 0 C0.19335938 0.63421875 0.38671875 1.2684375 0.5859375 1.921875 C1.8911392 4.32388702 1.8911392 4.32388702 5.0390625 4.828125 C6.22242187 4.96734375 7.40578125 5.1065625 8.625 5.25 C10.40777344 5.47429687 10.40777344 5.47429687 12.2265625 5.703125 C13.14179687 5.80109375 14.05703125 5.8990625 15 6 C15 6.33 15 6.66 15 7 C4.44191344 7.3690205 4.44191344 7.3690205 0 5 C0 3.35 0 1.7 0 0 Z " fill="#282124" transform="translate(101,309)"/>
<path d="M0 0 C1.32 0.33 2.64 0.66 4 1 C3.64950425 4.24208567 3.43778819 5.61527704 0.9375 7.8125 C0.298125 8.204375 -0.34125 8.59625 -1 9 C-1.33 7.02 -1.66 5.04 -2 3 C-1.34 3 -0.68 3 0 3 C0 2.01 0 1.02 0 0 Z " fill="#3C3638" transform="translate(295,298)"/>
<path d="M0 0 C1 3 1 3 0 5.0625 C-2.70866858 7.68652268 -5.37501527 8.17924874 -9 9 C-7.38405168 6.95880212 -5.7143618 4.95927063 -4 3 C-3.34 3 -2.68 3 -2 3 C-2 2.34 -2 1.68 -2 1 C-1.34 0.67 -0.68 0.34 0 0 Z " fill="#3F3C3E" transform="translate(209,219)"/>
<path d="M0 0 C0.33 0.66 0.66 1.32 1 2 C1.66 2.33 2.32 2.66 3 3 C1.92892883 3.86949317 0.84254056 4.72014205 -0.25 5.5625 C-0.85328125 6.03816406 -1.4565625 6.51382812 -2.078125 7.00390625 C-4 8 -4 8 -6.234375 7.65234375 C-6.81703125 7.43707031 -7.3996875 7.22179687 -8 7 C-7.030625 6.38125 -6.06125 5.7625 -5.0625 5.125 C-1.97164638 3.34321154 -1.97164638 3.34321154 -1 1 C-0.67 0.67 -0.34 0.34 0 0 Z " fill="#2F292B" transform="translate(279,316)"/>
<path d="M0 0 C0.66 0 1.32 0 2 0 C2.33 3.96 2.66 7.92 3 12 C1.68 11.67 0.36 11.34 -1 11 C-0.67 7.37 -0.34 3.74 0 0 Z " fill="#3E393A" transform="translate(305,269)"/>
<path d="M0 0 C0.99 0 1.98 0 3 0 C3 0.66 3 1.32 3 2 C3.66 2.33 4.32 2.66 5 3 C4.67 5.64 4.34 8.28 4 11 C3.34 10.67 2.68 10.34 2 10 C2 9.01 2 8.02 2 7 C1.34 6.67 0.68 6.34 0 6 C0 4.02 0 2.04 0 0 Z " fill="#3A3939" transform="translate(160,256)"/>
<path d="M0 0 C-4.625 4 -4.625 4 -8 4 C-9.33981486 4.3062434 -10.67511887 4.63451555 -12 5 C-9.04307137 0.33116532 -5.46817975 -2.02525176 0 0 Z " fill="#2D282A" transform="translate(93,176)"/>
<path d="M0 0 C0.66 0.33 1.32 0.66 2 1 C0.875 3.875 0.875 3.875 -1 7 C-4.1875 8.375 -4.1875 8.375 -7 9 C-6.82374165 6.62051228 -6.30280227 5.29774151 -4.59765625 3.62109375 C-3.09350908 2.37884514 -1.54870149 1.18623944 0 0 Z " fill="#2D282B" transform="translate(62,192)"/>
<path d="M0 0 C0.66 0 1.32 0 2 0 C2.33 1.32 2.66 2.64 3 4 C2.34 4 1.68 4 1 4 C0.34 6.31 -0.32 8.62 -1 11 C-1.66 11 -2.32 11 -3 11 C-2.53199289 6.94393835 -2.12046792 3.53411321 0 0 Z " fill="#2C2A2B" transform="translate(102,51)"/>
<path d="M0 0 C0 3 0 3 -1.53125 4.82421875 C-2.1809375 5.43910156 -2.830625 6.05398438 -3.5 6.6875 C-4.1496875 7.31011719 -4.799375 7.93273437 -5.46875 8.57421875 C-5.9740625 9.04472656 -6.479375 9.51523437 -7 10 C-7.66 9.67 -8.32 9.34 -9 9 C-7.53471687 5.13698083 -5.55307561 3.95419158 -2 2 C-1.34 1.34 -0.68 0.68 0 0 Z " fill="#272225" transform="translate(243,277)"/>
<path d="M0 0 C0.33 0 0.66 0 1 0 C1.33 3.3 1.66 6.6 2 10 C1.34 10 0.68 10 0 10 C0 11.65 0 13.3 0 15 C-0.33 15 -0.66 15 -1 15 C-0.67 10.05 -0.34 5.1 0 0 Z " fill="#41393C" transform="translate(184,256)"/>
<path d="M0 0 C0.66 0.66 1.32 1.32 2 2 C-4.625 5 -4.625 5 -8 5 C-3.375 0 -3.375 0 0 0 Z " fill="#3B363A" transform="translate(262,245)"/>
<path d="M0 0 C1.485 0.99 1.485 0.99 3 2 C3 2.66 3 3.32 3 4 C3.66 4.33 4.32 4.66 5 5 C3.35 5.33 1.7 5.66 0 6 C-1.125 2.25 -1.125 2.25 0 0 Z " fill="#3F3B3C" transform="translate(216,187)"/>
<path d="M0 0 C2.475 0.495 2.475 0.495 5 1 C5.33 2.32 5.66 3.64 6 5 C5.01 5.495 5.01 5.495 4 6 C1.875 5.0625 1.875 5.0625 0 4 C0 2.66666667 0 1.33333333 0 0 Z " fill="#2E2B2C" transform="translate(197,26)"/>
<path d="M0 0 C0.66 0 1.32 0 2 0 C1.67 2.31 1.34 4.62 1 7 C-0.32 7.33 -1.64 7.66 -3 8 C-2.34 7.01 -1.68 6.02 -1 5 C-0.61500109 3.34450469 -0.27206865 1.6777567 0 0 Z " fill="#241D22" transform="translate(272,244)"/>
<path d="M0 0 C0.86625 0.3403125 0.86625 0.3403125 1.75 0.6875 C0.1 2.0075 -1.55 3.3275 -3.25 4.6875 C-4.24 4.0275 -5.23 3.3675 -6.25 2.6875 C-2.80384615 -0.38942308 -2.80384615 -0.38942308 0 0 Z " fill="#322C2E" transform="translate(77.25,182.3125)"/>
</svg>
