<?xml version="1.0" standalone="no"?>
<!DOCTYPE svg PUBLIC "-//W3C//DTD SVG 20010904//EN"
 "http://www.w3.org/TR/2001/REC-SVG-20010904/DTD/svg10.dtd">
<svg version="1.0" xmlns="http://www.w3.org/2000/svg"
 width="512.000000pt" height="512.000000pt" viewBox="0 0 512.000000 512.000000"
 preserveAspectRatio="xMidYMid meet">

<g transform="translate(0.000000,512.000000) scale(0.100000,-0.100000)"
fill="#000000" stroke="none">
<path d="M78 5099 c-23 -12 -46 -35 -58 -59 -20 -39 -20 -54 -20 -2480 0
-2427 0 -2441 20 -2480 13 -26 34 -47 60 -60 39 -20 55 -20 1870 -20 1815 0
1831 0 1870 20 26 13 47 34 60 60 18 36 20 58 20 285 l0 245 108 0 c92 0 112
3 146 23 63 36 76 72 76 208 l0 116 39 18 c21 9 65 35 97 56 l58 38 36 -21
c92 -56 184 -98 213 -98 18 0 49 10 71 23 33 19 58 56 183 272 215 372 213
366 173 445 -16 32 -39 50 -120 97 l-100 58 0 115 0 115 100 58 c81 47 104 65
120 97 40 79 42 73 -173 445 -125 216 -150 253 -183 272 -22 13 -53 23 -71 23
-29 0 -121 -42 -213 -98 l-36 -21 -58 38 c-32 21 -76 47 -97 56 l-39 18 0 115
c0 129 -12 168 -64 205 -27 19 -46 22 -148 25 l-118 4 0 564 c0 478 -2 577
-16 642 -61 294 -292 525 -586 586 -69 14 -248 16 -1630 16 -1526 -1 -1554 -1
-1590 -21z m2922 -519 c0 -222 2 -244 20 -280 13 -26 34 -47 60 -60 36 -18 58
-20 280 -20 l240 0 0 -455 0 -455 -76 0 c-96 0 -144 -24 -174 -85 -16 -34 -20
-62 -20 -151 l0 -109 -68 -37 c-37 -21 -80 -46 -97 -57 l-30 -19 -75 44 c-96
57 -135 74 -172 74 -35 0 -75 -20 -105 -52 -35 -38 -332 -559 -339 -595 -8
-42 10 -94 44 -126 15 -14 65 -48 111 -75 l83 -49 0 -113 0 -113 -90 -53 c-49
-29 -101 -67 -115 -84 -34 -40 -43 -91 -25 -138 30 -75 310 -548 343 -579 40
-38 94 -51 142 -34 19 7 71 35 116 61 l82 49 30 -20 c17 -11 60 -36 97 -57
l68 -37 0 -109 c0 -89 4 -117 20 -151 30 -61 78 -85 174 -85 l76 0 0 -155 0
-155 -1650 0 -1650 0 0 2260 0 2260 1350 0 1350 0 0 -240z m385 172 c76 -47
158 -143 179 -209 l7 -23 -135 0 -136 0 0 136 0 135 23 -7 c12 -4 40 -18 62
-32z m545 -1829 c0 -67 5 -96 20 -129 21 -43 19 -42 180 -118 41 -19 98 -53
125 -75 69 -55 118 -81 156 -81 19 0 66 18 116 45 45 25 85 45 87 45 5 0 146
-244 146 -253 0 -3 -36 -26 -79 -51 -66 -38 -82 -53 -101 -91 -21 -43 -21 -51
-11 -121 6 -41 11 -101 11 -134 0 -33 -5 -93 -11 -134 -10 -70 -10 -78 11
-121 19 -38 35 -53 101 -91 43 -25 79 -48 79 -51 0 -9 -141 -253 -146 -253 -2
0 -42 20 -87 45 -50 27 -97 45 -116 45 -38 0 -87 -26 -156 -81 -27 -22 -84
-56 -125 -75 -161 -76 -159 -75 -180 -118 -15 -33 -20 -62 -20 -129 l0 -87
-150 0 -150 0 0 93 c0 70 -4 101 -18 127 -19 35 -26 40 -182 115 -41 20 -108
61 -148 92 -102 78 -133 81 -245 19 -47 -25 -87 -46 -90 -46 -2 0 -37 57 -77
127 -57 99 -70 129 -59 136 125 73 154 95 172 130 18 36 19 44 6 148 -10 89
-10 129 0 218 19 158 15 165 -178 278 -11 7 2 37 59 136 40 70 75 127 77 127
3 0 43 -21 90 -46 114 -62 141 -60 252 24 44 33 111 75 148 92 186 84 193 93
193 237 l0 93 150 0 150 0 0 -87z"/>
<path d="M678 3889 c-43 -22 -78 -81 -78 -129 0 -50 35 -107 80 -130 39 -20
56 -20 1270 -20 1214 0 1231 0 1270 20 45 23 80 80 80 130 0 50 -35 107 -80
130 -39 20 -56 20 -1272 20 -1208 -1 -1234 -1 -1270 -21z"/>
<path d="M678 3289 c-43 -22 -78 -81 -78 -129 0 -50 35 -107 80 -130 38 -20
57 -20 870 -20 813 0 832 0 870 20 45 23 80 80 80 130 0 50 -35 107 -80 130
-38 20 -57 20 -872 20 -810 -1 -834 -1 -870 -21z"/>
<path d="M678 2689 c-43 -22 -78 -81 -78 -129 0 -50 35 -107 80 -130 38 -19
57 -20 720 -20 663 0 682 1 720 20 45 23 80 80 80 130 0 50 -35 107 -80 130
-38 19 -57 20 -722 20 -660 -1 -684 -2 -720 -21z"/>
<path d="M678 2089 c-43 -22 -78 -81 -78 -129 0 -50 35 -107 80 -130 38 -19
57 -20 720 -20 663 0 682 1 720 20 45 23 80 80 80 130 0 50 -35 107 -80 130
-38 19 -57 20 -722 20 -660 -1 -684 -2 -720 -21z"/>
<path d="M678 1489 c-43 -22 -78 -81 -78 -129 0 -50 35 -107 80 -130 38 -19
57 -20 720 -20 663 0 682 1 720 20 45 23 80 80 80 130 0 50 -35 107 -80 130
-38 19 -57 20 -722 20 -660 -1 -684 -2 -720 -21z"/>
<path d="M678 889 c-43 -22 -78 -81 -78 -129 0 -50 35 -107 80 -130 38 -20 57
-20 870 -20 813 0 832 0 870 20 45 23 80 80 80 130 0 50 -35 107 -80 130 -38
20 -57 20 -872 20 -810 -1 -834 -1 -870 -21z"/>
<path d="M3660 2444 c-164 -43 -287 -156 -350 -319 -19 -49 -24 -79 -24 -165
0 -86 5 -116 24 -165 63 -164 188 -277 355 -320 304 -78 615 167 615 485 0
230 -172 442 -398 489 -71 15 -155 13 -222 -5z m234 -321 c183 -129 46 -413
-171 -352 -119 33 -174 166 -117 284 47 100 194 134 288 68z"/>
</g>
</svg>
