<svg width="18" height="18" viewBox="0 0 18 18" fill="none" xmlns="http://www.w3.org/2000/svg">
<path fill-rule="evenodd" clip-rule="evenodd" d="M15.2993 6.85952L15.8395 7.39952C16.2671 7.81952 16.4997 8.38952 16.4997 8.98952C16.5072 9.58952 16.2746 10.1603 15.8545 10.587C15.8495 10.5925 15.8445 10.5974 15.8395 10.6022C15.837 10.6046 15.8345 10.607 15.832 10.6095L15.2993 11.142C15.0892 11.352 14.9691 11.637 14.9691 11.9378V12.7095C14.9691 13.9545 13.9563 14.9678 12.7108 14.9678H11.938C11.6379 14.9678 11.3528 15.087 11.1428 15.297L10.6026 15.837C10.1599 16.2803 9.58219 16.497 9.00449 16.497C8.42678 16.497 7.84907 16.2803 7.40641 15.8453L6.85871 15.297C6.64863 15.087 6.36353 14.9678 6.06342 14.9678H5.29064C4.04519 14.9678 3.03232 13.9545 3.03232 12.7095V11.9378C3.03232 11.637 2.91228 11.352 2.7022 11.1345L2.162 10.602C1.28419 9.72527 1.27668 8.29202 2.1545 7.40777L2.7022 6.85952C2.91228 6.64952 3.03232 6.36452 3.03232 6.05702V5.29202C3.03232 4.04702 4.04519 3.03527 5.29064 3.03527H6.06342C6.36353 3.03527 6.64863 2.91452 6.85871 2.70452L7.3989 2.16452C8.27672 1.28027 9.70974 1.28027 10.5951 2.15777L11.1428 2.70452C11.3528 2.91452 11.6379 3.03527 11.938 3.03527H12.7108C13.9563 3.03527 14.9691 4.04702 14.9691 5.29202V6.06527C14.9691 6.36452 15.0892 6.64952 15.2993 6.85952ZM7.06878 11.5845C7.24885 11.5845 7.41391 11.517 7.53395 11.3895L11.3903 7.53527C11.6454 7.28027 11.6454 6.85952 11.3903 6.60452C11.1353 6.35027 10.7226 6.35027 10.4675 6.60452L6.61112 10.4595C6.35602 10.7145 6.35602 11.1345 6.61112 11.3895C6.73116 11.517 6.89622 11.5845 7.06878 11.5845ZM10.2724 10.9245C10.2724 11.292 10.5651 11.5845 10.9327 11.5845C11.2928 11.5845 11.5854 11.292 11.5854 10.9245C11.5854 10.5653 11.2928 10.272 10.9327 10.272C10.5651 10.272 10.2724 10.5653 10.2724 10.9245ZM7.07629 6.41702C7.43642 6.41702 7.72902 6.70952 7.72902 7.06952C7.72902 7.43777 7.43642 7.72952 7.07629 7.72952C6.71616 7.72952 6.41605 7.43777 6.41605 7.06952C6.41605 6.70952 6.71616 6.41702 7.07629 6.41702Z" fill="#EF040D"/>
</svg>
