<svg width="18" height="18" viewBox="0 0 18 18" fill="none" xmlns="http://www.w3.org/2000/svg">
<path fill-rule="evenodd" clip-rule="evenodd" d="M5.8575 1.5H12.1432C14.46 1.5 15.75 2.835 15.75 5.1225V12.87C15.75 15.195 14.46 16.5 12.1432 16.5H5.8575C3.5775 16.5 2.25 15.195 2.25 12.87V5.1225C2.25 2.835 3.5775 1.5 5.8575 1.5ZM6.06005 4.99502V4.98752H8.3018C8.62505 4.98752 8.88755 5.25002 8.88755 5.57177C8.88755 5.90252 8.62505 6.16502 8.3018 6.16502H6.06005C5.7368 6.16502 5.47505 5.90252 5.47505 5.58002C5.47505 5.25752 5.7368 4.99502 6.06005 4.99502ZM6.06005 9.55501H11.94C12.2625 9.55501 12.525 9.29251 12.525 8.97001C12.525 8.64751 12.2625 8.38426 11.94 8.38426H6.06005C5.7368 8.38426 5.47505 8.64751 5.47505 8.97001C5.47505 9.29251 5.7368 9.55501 6.06005 9.55501ZM6.06001 12.9825H11.94C12.2393 12.9525 12.465 12.6968 12.465 12.3975C12.465 12.09 12.2393 11.835 11.94 11.805H6.06001C5.83501 11.7825 5.61751 11.8875 5.49751 12.0825C5.37751 12.27 5.37751 12.5175 5.49751 12.7125C5.61751 12.9 5.83501 13.0125 6.06001 12.9825Z" fill="#EF040D"/>
</svg>
