<?xml version="1.0" standalone="no"?>
<!DOCTYPE svg PUBLIC "-//W3C//DTD SVG 20010904//EN"
 "http://www.w3.org/TR/2001/REC-SVG-20010904/DTD/svg10.dtd">
<svg version="1.0" xmlns="http://www.w3.org/2000/svg"
 width="159.000000pt" height="159.000000pt" viewBox="0 0 159.000000 159.000000"
 preserveAspectRatio="xMidYMid meet">

<g transform="translate(0.000000,159.000000) scale(0.100000,-0.100000)"
fill="#000000" stroke="none">
<path d="M102 1144 l3 -147 48 -12 c115 -29 178 -161 128 -271 -24 -52 -84
-101 -136 -112 l-40 -8 -3 -147 -3 -147 446 0 445 0 0 125 0 125 50 0 50 0 0
-125 0 -125 200 0 201 0 -3 146 -3 147 -48 12 c-115 29 -178 161 -128 271 24
52 84 101 136 112 l40 8 3 147 3 147 -201 0 -200 0 0 -125 0 -125 -50 0 -50 0
0 125 0 125 -445 0 -446 0 3 -146z m988 -350 l0 -155 -47 3 -48 3 -3 140 c-1
76 0 145 2 152 3 8 23 13 51 13 l45 0 0 -156z"/>
</g>
</svg>
