<svg width="33" height="32" viewBox="0 0 33 32" fill="none" xmlns="http://www.w3.org/2000/svg">
<path d="M16.4951 0.105103C7.71413 0.105103 0.595581 7.22365 0.595581 16.0046C0.595581 23.8801 6.32767 30.4024 13.8434 31.6654V19.3217H10.008V14.8797H13.8434V11.6044C13.8434 7.80403 16.1645 5.73307 19.5552 5.73307C21.1791 5.73307 22.5747 5.85407 22.9798 5.90737V9.87974L20.6281 9.88087C18.7846 9.88087 18.4291 10.7568 18.4291 12.0425V14.8774H22.8281L22.2543 19.3194H18.4291V31.7716C26.2957 30.8141 32.3944 24.1257 32.3944 16.0001C32.3944 7.22365 25.2759 0.105103 16.4951 0.105103Z" fill="#076FE5"/>
</svg>
