<?xml version="1.0" standalone="no"?>
<!DOCTYPE svg PUBLIC "-//W3C//DTD SVG 20010904//EN"
 "http://www.w3.org/TR/2001/REC-SVG-20010904/DTD/svg10.dtd">
<svg version="1.0" xmlns="http://www.w3.org/2000/svg"
 width="24.000000pt" height="24.000000pt" viewBox="0 0 24.000000 24.000000"
 preserveAspectRatio="xMidYMid meet">

<g transform="translate(0.000000,24.000000) scale(0.100000,-0.100000)"
fill="#000000" stroke="none">
<path d="M135 179 c-4 -6 -14 -8 -22 -5 -8 3 -11 2 -8 -3 3 -6 -9 -11 -27 -13
-32 -3 -33 -4 -34 -53 l-1 -50 4 48 4 47 69 0 69 0 4 -50 4 -50 -1 52 c-1 52
-1 53 -34 56 -28 3 -31 6 -21 18 6 8 9 14 6 14 -3 0 -9 -5 -12 -11z"/>
<path d="M60 100 l0 -40 60 0 60 0 0 40 0 40 -60 0 -60 0 0 -40z"/>
</g>
</svg>
