<?xml version="1.0" standalone="no"?>
<!DOCTYPE svg PUBLIC "-//W3C//DTD SVG 20010904//EN"
 "http://www.w3.org/TR/2001/REC-SVG-20010904/DTD/svg10.dtd">
<svg version="1.0" xmlns="http://www.w3.org/2000/svg"
 width="622.000000pt" height="401.000000pt" viewBox="0 0 622.000000 401.000000"
 preserveAspectRatio="xMidYMid meet">

<g transform="translate(0.000000,401.000000) scale(0.100000,-0.100000)"
fill="#000000" stroke="none">
<path d="M2018 3685 c-305 -58 -562 -253 -699 -530 -78 -160 -93 -229 -93
-430 0 -157 3 -177 28 -260 84 -276 252 -477 506 -604 52 -26 127 -55 165 -65
39 -10 80 -22 93 -27 l22 -9 -2 -212 -3 -213 -270 -5 c-239 -4 -274 -7 -298
-23 -70 -46 -89 -149 -41 -218 44 -64 70 -69 359 -69 l255 0 0 -304 c0 -298 0
-304 23 -336 31 -46 67 -71 113 -76 55 -7 122 29 151 81 22 39 23 48 23 338
l0 297 247 0 c229 0 250 1 289 21 56 27 84 72 84 135 0 58 -26 105 -72 134
-31 19 -51 20 -290 20 l-258 0 0 220 0 220 28 6 c394 87 686 374 764 754 24
117 21 335 -7 440 -45 167 -132 317 -255 441 -125 126 -278 214 -450 259 -110
28 -303 35 -412 15z m337 -375 c108 -27 197 -80 280 -164 121 -122 178 -262
179 -436 0 -162 -52 -294 -166 -416 -148 -157 -350 -227 -556 -190 -233 41
-427 215 -493 444 -24 84 -26 232 -4 317 57 218 236 397 451 449 88 21 217 20
309 -4z"/>
<path d="M3981 3649 c-23 -5 -62 -19 -85 -33 -57 -33 -545 -525 -573 -578 -13
-22 -23 -55 -23 -72 1 -86 96 -165 182 -151 39 7 60 24 209 171 91 90 168 164
172 164 4 0 6 -205 5 -457 l-3 -456 -88 -23 c-231 -62 -436 -210 -568 -411
-290 -443 -163 -1044 282 -1338 170 -112 407 -176 593 -160 490 44 856 396
908 873 52 471 -256 913 -720 1036 l-87 23 -3 464 -2 464 167 -167 c147 -146
174 -169 215 -179 43 -12 50 -11 95 12 82 42 113 134 70 215 -7 13 -135 147
-286 298 -280 282 -298 296 -386 309 -16 2 -50 0 -74 -4z m198 -1784 c159 -38
332 -177 405 -325 175 -358 -19 -777 -406 -876 -231 -60 -503 36 -643 225
-231 316 -129 753 218 927 37 19 93 41 125 48 77 19 222 19 301 1z"/>
</g>
</svg>
