<svg width="32" height="32" viewBox="0 0 32 32" fill="none" xmlns="http://www.w3.org/2000/svg">
<g clip-path="url(#clip0_26_610)">
<path d="M30.3579 13.2434L17.7133 13.2428C17.1549 13.2428 16.7023 13.6953 16.7023 14.2537V18.2931C16.7023 18.8513 17.1549 19.304 17.7132 19.304H24.8339C24.0542 21.3275 22.5989 23.0221 20.7421 24.0989L23.7784 29.3549C28.6489 26.5381 31.5284 21.5957 31.5284 16.0631C31.5284 15.2753 31.4703 14.7121 31.3542 14.078C31.2659 13.5963 30.8477 13.2434 30.3579 13.2434Z" fill="#167EE6"/>
<path d="M16.028 25.373C12.5433 25.373 9.5012 23.469 7.86734 20.6516L2.61151 23.681C5.28617 28.3166 10.2967 31.4382 16.028 31.4382C18.8396 31.4382 21.4926 30.6812 23.778 29.3619V29.3547L20.7418 24.0987C19.353 24.9042 17.7458 25.373 16.028 25.373Z" fill="#12B347"/>
<path d="M23.7782 29.3622V29.3549L20.742 24.0989C19.3531 24.9043 17.7461 25.3732 16.0282 25.3732V31.4384C18.8398 31.4384 21.4929 30.6814 23.7782 29.3622Z" fill="#0F993E"/>
<path d="M6.59342 15.9382C6.59342 14.2206 7.06217 12.6136 7.86751 11.2248L2.61168 8.19543C1.28516 10.4736 0.528198 13.1194 0.528198 15.9382C0.528198 18.757 1.28516 21.4028 2.61168 23.681L7.86751 20.6516C7.06217 19.2628 6.59342 17.6559 6.59342 15.9382Z" fill="#FFD500"/>
<path d="M16.028 6.50358C18.3004 6.50358 20.3877 7.31103 22.0181 8.65414C22.4203 8.98545 23.0049 8.96154 23.3733 8.59311L26.2353 5.73106C26.6533 5.31304 26.6236 4.6288 26.177 4.24143C23.4454 1.87168 19.8913 0.438354 16.028 0.438354C10.2967 0.438354 5.28617 3.55997 2.61151 8.19556L7.86734 11.225C9.5012 8.40754 12.5433 6.50358 16.028 6.50358Z" fill="#FF4B26"/>
<path d="M22.0182 8.65414C22.4204 8.98545 23.0051 8.96154 23.3735 8.59311L26.2355 5.73106C26.6535 5.31304 26.6237 4.6288 26.1772 4.24142C23.4456 1.87162 19.8915 0.438354 16.0282 0.438354V6.50358C18.3005 6.50358 20.3879 7.31103 22.0182 8.65414Z" fill="#D93F21"/>
</g>
<defs>
<clipPath id="clip0_26_610">
<rect width="31" height="31" fill="white" transform="translate(0.528198 0.438354)"/>
</clipPath>
</defs>
</svg>
