<svg width="25" height="25" viewBox="0 0 25 25" fill="none" xmlns="http://www.w3.org/2000/svg">
<path fill-rule="evenodd" clip-rule="evenodd" d="M16.1007 2.75114C16.7317 2.75114 17.3617 2.84014 17.9607 3.04114C21.6517 4.24114 22.9817 8.29114 21.8707 11.8311C21.2407 13.6401 20.2107 15.2911 18.8617 16.6401C16.9307 18.5101 14.8117 20.1701 12.5307 21.6001L12.2807 21.7511L12.0207 21.5901C9.73175 20.1701 7.60075 18.5101 5.65175 16.6301C4.31175 15.2811 3.28075 13.6401 2.64075 11.8311C1.51075 8.29114 2.84075 4.24114 6.57175 3.02014C6.86175 2.92014 7.16075 2.85014 7.46075 2.81114H7.58075C7.86175 2.77014 8.14075 2.75114 8.42075 2.75114H8.53075C9.16075 2.77014 9.77075 2.88014 10.3617 3.08114H10.4207C10.4607 3.10014 10.4907 3.12114 10.5107 3.14014C10.7317 3.21114 10.9407 3.29114 11.1407 3.40114L11.5207 3.57114C11.6126 3.62011 11.7156 3.69494 11.8047 3.75961C11.8611 3.80058 11.912 3.83748 11.9507 3.86114C11.9671 3.87076 11.9837 3.88044 12.0004 3.8902C12.0861 3.94026 12.1754 3.9924 12.2507 4.05014C13.3617 3.20114 14.7107 2.74114 16.1007 2.75114ZM18.7607 9.95114C19.1707 9.94014 19.5207 9.61114 19.5507 9.19014V9.07114C19.5807 7.67014 18.7317 6.40114 17.4407 5.91114C17.0307 5.77014 16.5807 5.99114 16.4307 6.41114C16.2907 6.83114 16.5107 7.29114 16.9307 7.44014C17.5717 7.68014 18.0007 8.31114 18.0007 9.01014V9.04114C17.9817 9.27014 18.0507 9.49114 18.1907 9.66114C18.3307 9.83114 18.5407 9.93014 18.7607 9.95114Z" fill="#F96C6C"/>
</svg>
