<svg width="13" height="14" viewBox="0 0 13 14" fill="none" xmlns="http://www.w3.org/2000/svg">
<path d="M9.52604 2.09079C9.20859 1.98426 8.87471 1.9371 8.5403 1.9371C7.80364 1.9318 7.08871 2.17558 6.49991 2.62553C6.45221 2.58896 6.39392 2.55663 6.34092 2.52536C6.28792 2.49304 6.19253 2.41407 6.11303 2.37167L5.91164 2.28158C5.80565 2.22328 5.69489 2.18088 5.57776 2.14325C5.56716 2.13319 5.55126 2.12206 5.53006 2.11199H5.4988C5.18558 2.00546 4.8623 1.94717 4.52842 1.9371H4.47012C4.32173 1.9371 4.17387 1.94717 4.02495 1.96889H3.96135C3.80236 1.98956 3.6439 2.02666 3.49021 2.07966C1.51289 2.72675 0.808026 4.87313 1.40689 6.74923C1.74607 7.70795 2.29247 8.57763 3.00263 9.29256C4.03555 10.2889 5.16491 11.1687 6.37802 11.9212L6.51581 12.0065L6.6483 11.9265C7.85717 11.1687 8.98017 10.2889 10.0035 9.29786C10.7185 8.58293 11.2643 7.70795 11.5982 6.74923C12.187 4.87313 11.4822 2.72675 9.52604 2.09079Z" fill="#FF3535"/>
</svg>
