<?xml version="1.0" standalone="no"?>
<!DOCTYPE svg PUBLIC "-//W3C//DTD SVG 20010904//EN"
 "http://www.w3.org/TR/2001/REC-SVG-20010904/DTD/svg10.dtd">
<svg version="1.0" xmlns="http://www.w3.org/2000/svg"
 width="235.000000pt" height="214.000000pt" viewBox="0 0 235.000000 214.000000"
 preserveAspectRatio="xMidYMid meet">

<g transform="translate(0.000000,214.000000) scale(0.100000,-0.100000)"
fill="#000000" stroke="none">
<path d="M318 2111 c-160 -51 -281 -192 -308 -357 -13 -78 -13 -1290 0 -1368
27 -167 149 -307 311 -357 57 -18 104 -19 854 -19 750 0 797 1 854 19 162 50
284 190 311 357 13 78 13 1290 0 1368 -27 167 -149 307 -311 357 -58 18 -103
19 -857 18 -745 0 -801 -1 -854 -18z m257 -132 c-4 -11 -42 -95 -85 -185 l-79
-164 -135 0 -136 0 0 55 c0 30 9 78 19 105 53 139 166 208 344 209 75 1 78 0
72 -20z m613 7 c-2 -8 -39 -91 -83 -185 l-80 -171 -243 0 c-239 0 -243 0 -237
20 4 11 42 94 85 185 l79 165 241 0 c204 0 241 -2 238 -14z m602 5 c0 -5 -38
-88 -85 -185 l-84 -176 -236 0 c-129 0 -235 2 -235 5 0 6 38 88 109 238 l60
127 236 0 c129 0 235 -4 235 -9z m238 -22 c102 -44 182 -168 182 -284 l0 -55
-231 0 c-225 0 -230 0 -224 20 3 11 42 94 85 184 l80 166 32 -7 c18 -3 52 -14
76 -24z m182 -1024 c0 -533 0 -545 -22 -602 -32 -86 -105 -155 -193 -182 -66
-21 -85 -21 -819 -21 -827 0 -812 -1 -903 61 -53 37 -89 84 -114 149 -18 47
-19 81 -19 595 l0 545 1035 0 1035 0 0 -545z"/>
<path d="M940 1210 c-19 -19 -20 -33 -20 -385 0 -501 -23 -487 357 -225 277
191 291 205 259 255 -8 12 -128 102 -267 199 -266 185 -289 196 -329 156z"/>
</g>
</svg>
