<svg width="26" height="26" viewBox="0 0 26 26" fill="none" xmlns="http://www.w3.org/2000/svg">
<path d="M13 17.3334C14.1492 17.3334 15.2514 16.8768 16.0641 16.0642C16.8767 15.2515 17.3333 14.1493 17.3333 13C17.3333 11.8507 16.8767 10.7485 16.0641 9.93589C15.2514 9.12323 14.1492 8.66669 13 8.66669C11.8507 8.66669 10.7485 9.12323 9.93583 9.93589C9.12317 10.7485 8.66663 11.8507 8.66663 13C8.66663 14.1493 9.12317 15.2515 9.93583 16.0642C10.7485 16.8768 11.8507 17.3334 13 17.3334Z" stroke="#EF040D" stroke-width="1.5" stroke-linecap="round" stroke-linejoin="round"/>
<path d="M3.25 17.3333V8.66667C3.25 7.23008 3.82068 5.85233 4.8365 4.8365C5.85233 3.82068 7.23008 3.25 8.66667 3.25H17.3333C18.7699 3.25 20.1477 3.82068 21.1635 4.8365C22.1793 5.85233 22.75 7.23008 22.75 8.66667V17.3333C22.75 18.7699 22.1793 20.1477 21.1635 21.1635C20.1477 22.1793 18.7699 22.75 17.3333 22.75H8.66667C7.23008 22.75 5.85233 22.1793 4.8365 21.1635C3.82068 20.1477 3.25 18.7699 3.25 17.3333Z" stroke="#EF040D" stroke-width="1.5"/>
<path d="M18.9584 7.05251L18.9692 7.04059" stroke="#EF040D" stroke-width="1.5" stroke-linecap="round" stroke-linejoin="round"/>
</svg>
