<svg width="18" height="18" viewBox="0 0 18 18" fill="none" xmlns="http://www.w3.org/2000/svg">
<path d="M12.255 1.49988H5.7525C3.21 1.49988 1.5 3.28488 1.5 5.93988V12.0674C1.5 14.7149 3.21 16.4999 5.7525 16.4999H12.255C14.7975 16.4999 16.5 14.7149 16.5 12.0674V5.93988C16.5 3.28488 14.7975 1.49988 12.255 1.49988Z" fill="#EF040D"/>
<path d="M8.80835 11.2625H9.68059V12.1348H8.80835V11.2625Z" fill="white"/>
<path d="M10.1167 7.74448C10.1167 7.99219 10.0159 8.22081 9.83279 8.38833L8.80836 9.32599V10.3903H9.6806V9.71009L10.4217 9.03183C10.7821 8.7019 10.989 8.23273 10.989 7.74448C10.989 6.78252 10.2064 6 9.24448 6C8.28252 6 7.5 6.78252 7.5 7.74448H8.37224C8.37224 7.2635 8.7635 6.87224 9.24448 6.87224C9.72547 6.87224 10.1167 7.2635 10.1167 7.74448Z" fill="white"/>
</svg>
