<svg width="36" height="36" viewBox="0 0 36 36" fill="none" xmlns="http://www.w3.org/2000/svg">
<path fill-rule="evenodd" clip-rule="evenodd" d="M5.5734 16.7639C4.96849 16.8408 4.5 17.3651 4.5 17.9998C4.5 18.6873 5.04982 19.2453 5.72728 19.2453L27.3011 19.2453L19.5071 27.122L19.3968 27.2492C19.0293 27.7363 19.0658 28.4365 19.5038 28.884C19.9816 29.3706 20.7589 29.3723 21.2384 28.8873L31.1384 18.8816L31.2475 18.7563C31.4136 18.5372 31.5 18.2696 31.5 17.9998C31.5 17.8387 31.4689 17.6776 31.4067 17.5248C31.2169 17.0581 30.7702 16.7542 30.2727 16.7542L5.72728 16.7542L5.5734 16.7639ZM19.5037 7.11598C19.0258 7.60423 19.0258 8.39306 19.5069 8.87799L24.9675 14.3965L25.0935 14.508C25.5758 14.8794 26.264 14.8408 26.702 14.3932C26.9409 14.1491 27.0604 13.8319 27.0604 13.5147C27.0604 13.1942 26.9409 12.8753 26.6987 12.6312L21.2398 7.11266L21.1137 7.00156C20.6313 6.63138 19.9417 6.66994 19.5037 7.11598Z" fill="white"/>
</svg>
