<?xml version="1.0" encoding="UTF-8"?>
<svg version="1.1" xmlns="http://www.w3.org/2000/svg" width="225" height="225">
<path d="M0 0 C1.32394915 0.4831531 2.64860282 0.96437946 3.97390747 1.44380188 C6.72389007 2.44403315 9.46754211 3.45942039 12.20703125 4.48803711 C15.6920838 5.79639945 19.18657133 7.07677547 22.68557549 8.3472929 C26.06484628 9.57586046 29.43874851 10.81887475 32.8125 12.0625 C33.44123898 12.29278082 34.06997795 12.52306164 34.71776962 12.76032066 C47.74319422 17.55154795 59.60061257 22.2744327 65.78125 35.46875 C67.25660345 39.31577378 67.63556106 42.71337536 67.64825439 46.83293152 C67.65396454 47.94450623 67.65967468 49.05608093 67.66555786 50.20133972 C67.66723465 52.0240313 67.66723465 52.0240313 67.66894531 53.88354492 C67.67391022 55.16689728 67.67887512 56.45024963 67.68399048 57.77249146 C67.69709297 61.2913412 67.70355555 64.81017188 67.70800114 68.3290422 C67.71093612 70.5302142 67.71504179 72.73138104 67.71950531 74.93255043 C67.73317631 81.82727031 67.74284418 88.72197835 67.7467072 95.61671084 C67.75118323 103.56083691 67.76871153 111.50479051 67.7977078 119.44886416 C67.81937056 125.59850735 67.82941397 131.74810219 67.83074832 137.8977831 C67.83179332 141.5662276 67.83763547 145.23450991 67.85556793 148.90291405 C67.87520983 153.00072959 67.87074141 157.09818739 67.86425781 161.19604492 C67.8734726 162.40105148 67.88268738 163.60605804 67.8921814 164.84757996 C67.84735632 173.90791994 66.81263896 181.61098815 60.5703125 188.55078125 C59.90128906 189.32808594 59.23226562 190.10539063 58.54296875 190.90625 C50.41015599 197.48995557 39.89371567 200.95322309 30.17578125 204.54296875 C28.94096512 205.00059601 27.70614899 205.45822327 26.43391418 205.92971802 C23.84006319 206.88815955 21.24383063 207.83983061 18.64624023 208.78808594 C15.35746497 209.99053772 12.08028442 211.22180708 8.80482006 212.45997429 C5.62372383 213.6547764 2.43025913 214.81505795 -0.76171875 215.98046875 C-1.91533401 216.42099579 -3.06894928 216.86152283 -4.25752258 217.31539917 C-13.8479642 220.74561716 -24.63995475 222.6183772 -34.4296875 218.73828125 C-39.59149201 216.00096068 -44.36275805 212.4927107 -48.4921875 208.36328125 C-50.67081431 208.07391024 -50.67081431 208.07391024 -53.21044922 208.13964844 C-54.19262421 208.1391449 -55.17479919 208.13864136 -56.18673706 208.13812256 C-57.25433258 208.14539368 -58.3219281 208.15266479 -59.421875 208.16015625 C-61.68490154 208.14959655 -63.94792274 208.13783815 -66.2109375 208.125 C-69.77662694 208.11473691 -73.34157252 208.11313639 -76.90722656 208.13330078 C-104.06300434 208.25077624 -104.06300434 208.25077624 -113.9465332 199.08789062 C-121.86598125 190.96575607 -123.66937092 182.44056788 -123.8671875 171.42578125 C-123.90457031 170.64009766 -123.94195312 169.85441406 -123.98046875 169.04492188 C-124.04346109 164.86293067 -123.79732459 162.18341349 -121.125 158.859375 C-118.35791942 156.23598555 -117.26414342 155.36328125 -113.4921875 155.36328125 C-110.64012138 156.11025095 -108.97076082 156.88933183 -106.875 158.96484375 C-104.97784974 162.2553812 -105.0540205 165.35325343 -104.9921875 169.05078125 C-104.62606177 178.02836 -104.62606177 178.02836 -101.4921875 186.36328125 C-88.06237149 191.32515595 -88.06237149 191.32515595 -54.4921875 190.36328125 C-54.4921875 135.91328125 -54.4921875 81.46328125 -54.4921875 25.36328125 C-88.06237149 24.40140655 -88.06237149 24.40140655 -101.4921875 29.36328125 C-104.80956203 35.47969054 -104.90722035 41.83508054 -104.93945312 48.69018555 C-105.05712751 53.51307014 -106.02093858 56.00563684 -109.4921875 59.36328125 C-113.06840231 60.58071608 -114.71162956 60.70817894 -118.1796875 59.17578125 C-120.62326399 57.26054562 -121.95712018 56.06378211 -123.4921875 53.36328125 C-123.78930115 50.3979705 -123.9199905 47.6970703 -123.8671875 44.73828125 C-123.85703613 43.93084473 -123.84688477 43.1234082 -123.83642578 42.29150391 C-123.5793495 32.38111345 -121.46841662 24.66946715 -114.4921875 17.36328125 C-104.45287055 8.3646252 -94.17639433 7.144293 -81.2265625 7.44140625 C-79.26564116 7.46863725 -77.30470248 7.49464312 -75.34375 7.51953125 C-72.27979625 7.56292165 -69.21675217 7.61387632 -66.15332031 7.68554688 C-63.17758932 7.75203304 -60.20285922 7.78687312 -57.2265625 7.81640625 C-56.30985779 7.84534973 -55.39315308 7.87429321 -54.44866943 7.90411377 C-49.15266948 8.00851921 -49.15266948 8.00851921 -45.00439453 4.92944336 C-44.50536621 4.08260986 -44.00633789 3.23577637 -43.4921875 2.36328125 C-41.5625 0.8515625 -41.5625 0.8515625 -39.6171875 -0.32421875 C-38.98039062 -0.71996094 -38.34359375 -1.11570313 -37.6875 -1.5234375 C-25.18707874 -7.8626191 -12.41076595 -4.70247188 0 0 Z M-33.59241295 18.53144264 C-35.98365267 22.09586819 -35.9996843 24.21370864 -36.01358032 28.48519897 C-36.02123142 29.1909867 -36.02888251 29.89677442 -36.03676546 30.62394965 C-36.05736314 32.98316616 -36.04945442 35.34140345 -36.04150391 37.70068359 C-36.05020051 39.39448445 -36.06056761 41.08827742 -36.07247925 42.78205872 C-36.09925844 47.37928215 -36.10041674 51.97617673 -36.09535265 56.57346296 C-36.09321294 60.4129131 -36.10298077 64.25229673 -36.11256349 68.09173262 C-36.13475398 77.15104943 -36.13562887 86.2102004 -36.12353516 95.26953125 C-36.11145625 104.61110368 -36.13607507 113.95207359 -36.17867529 123.29354322 C-36.21391988 131.31750526 -36.22590803 139.34127563 -36.21939981 147.36531222 C-36.21577538 152.15607561 -36.22103262 156.94640929 -36.24882889 161.73710251 C-36.27399751 166.24356736 -36.27008852 170.74909407 -36.24400711 175.25554466 C-36.23927862 176.90709565 -36.24473457 178.55871277 -36.26125336 180.21018791 C-36.67146219 190.1328168 -36.67146219 190.1328168 -32.63314819 198.83804321 C-28.86341344 202.41013008 -24.76322874 202.85884578 -19.75244141 202.80078125 C-12.25035093 201.79406071 -5.20038726 198.58072399 1.8203125 195.86328125 C3.52609985 195.21561094 5.23240193 194.5692947 6.93920898 193.92431641 C10.28500442 192.65745775 13.62723537 191.38183014 16.96679688 190.09863281 C20.79656901 188.62973644 24.6393397 187.20042819 28.4921875 185.79296875 C30.35157354 185.10810289 32.21094974 184.4232103 34.0703125 183.73828125 C34.88218018 183.44501953 35.69404785 183.15175781 36.53051758 182.84960938 C41.36893911 181.03262035 45.78005921 179.14442226 48.62220192 174.56946373 C49.68683048 171.91732188 49.76504914 169.88225691 49.77523804 167.02529907 C49.78376801 165.9430455 49.79229797 164.86079193 49.80108643 163.7457428 C49.80018005 162.5633049 49.79927368 161.380867 49.79833984 160.16259766 C49.80505707 158.9134407 49.81177429 157.66428375 49.81869507 156.37727356 C49.83444079 152.95358867 49.84105025 149.53014636 49.84232664 146.10644197 C49.84374906 143.96625894 49.84802037 141.82610126 49.85332108 139.68592453 C49.87182005 132.21605568 49.87999187 124.74625818 49.87841797 117.27636719 C49.87721664 110.31895351 49.89831736 103.36185009 49.9299053 96.40451491 C49.95607757 90.42645583 49.96678487 84.44849802 49.96550715 78.47038209 C49.96499778 74.90203528 49.97066648 71.33396422 49.99186325 67.76567459 C50.01486693 63.7845783 50.00571882 59.80390582 49.99365234 55.82275391 C50.00489136 54.64436447 50.01613037 53.46597504 50.02770996 52.25187683 C49.9796272 46.016443 49.84244164 42.02289573 45.5078125 37.36328125 C43.86170431 36.01061003 43.86170431 36.01061003 42.01318359 35.27026367 C41.31424988 34.95745453 40.61531616 34.64464539 39.89520264 34.32235718 C35.10529502 32.39812828 30.27934336 30.59786953 25.421875 28.8515625 C23.71467789 28.23102242 23.71467789 28.23102242 21.97299194 27.59794617 C18.36122258 26.28602848 14.74713534 24.9806457 11.1328125 23.67578125 C7.4975351 22.35894751 3.86275075 21.04076847 0.22836304 19.72148132 C-2.02799692 18.9028904 -4.28495922 18.08595754 -6.54257202 17.27082825 C-7.55767853 16.90342026 -8.57278503 16.53601227 -9.61865234 16.1574707 C-10.5138559 15.83422318 -11.40905945 15.51097565 -12.33139038 15.17793274 C-14.4921875 14.36328125 -14.4921875 14.36328125 -16.4921875 13.36328125 C-23.76997824 12.69346688 -28.36122309 13.13103961 -33.59241295 18.53144264 Z " fill="#0E174B" transform="translate(157.4921875,4.63671875)"/>
<path d="M0 0 C3.80626524 0.77415564 4.63652257 1.28979802 7.37109375 3.79296875 C8.06936279 4.4267041 8.76763184 5.06043945 9.48706055 5.71337891 C10.21320557 6.38546387 10.93935059 7.05754883 11.6875 7.75 C12.40526611 8.40274902 13.12303223 9.05549805 13.86254883 9.72802734 C16.06791075 11.74186515 18.25427978 13.77469853 20.4375 15.8125 C21.54931641 16.8344043 21.54931641 16.8344043 22.68359375 17.87695312 C32.53955892 27.08706062 32.53955892 27.08706062 32.875 33.125 C30.26298886 41.0985077 22.59573674 46.92296263 16.5625 52.5 C15.87285156 53.14582031 15.18320313 53.79164063 14.47265625 54.45703125 C4.66070242 63.59359247 4.66070242 63.59359247 0.1875 64.3125 C-3.3125 63.75 -3.3125 63.75 -6.25 61.6875 C-8.3125 58.75 -8.3125 58.75 -9.0625 55.4375 C-8.12503156 50.82828017 -6.16292428 48.76185042 -2.94140625 45.44921875 C-1.23004853 43.83186296 -1.23004853 43.83186296 -0.3125 41.75 C-0.86071915 41.75666183 -1.40893829 41.76332367 -1.97377014 41.77018738 C-7.70047111 41.83676615 -13.42706137 41.88189378 -19.15405273 41.91479492 C-21.28886382 41.92984362 -23.42364419 41.95028736 -25.55834961 41.97631836 C-28.63402914 42.01287386 -31.70929844 42.0297659 -34.78515625 42.04296875 C-35.73334732 42.05845261 -36.68153839 42.07393646 -37.65846252 42.08988953 C-43.31656825 42.09131343 -47.34478157 41.54472484 -52.3125 38.75 C-54.81281654 34.99952518 -54.84853554 33.19143734 -54.3125 28.75 C-51.59792357 25.28137457 -49.61586667 23.50960163 -45.3125 22.75 C-43.75538926 22.66593189 -42.1951148 22.63219062 -40.63574219 22.63647461 C-39.71508972 22.63655014 -38.79443726 22.63662567 -37.84588623 22.63670349 C-36.86033752 22.64186478 -35.87478882 22.64702606 -34.859375 22.65234375 C-33.84401672 22.6537587 -32.82865845 22.65517365 -31.78253174 22.65663147 C-28.54249108 22.66222484 -25.30251975 22.67477615 -22.0625 22.6875 C-19.86458433 22.69251586 -17.66666758 22.69707861 -15.46875 22.70117188 C-10.08330971 22.7121921 -4.69790981 22.72892367 0.6875 22.75 C0.12160156 22.19570312 -0.44429687 21.64140625 -1.02734375 21.0703125 C-1.76082031 20.34585938 -2.49429688 19.62140625 -3.25 18.875 C-3.98089844 18.15570313 -4.71179687 17.43640625 -5.46484375 16.6953125 C-7.94203418 14.08719234 -8.27548982 13.07692325 -8.6875 9.4375 C-8.3125 5.75 -8.3125 5.75 -6.25 2.8125 C-3.3125 0.75 -3.3125 0.75 0 0 Z " fill="#111A4D" transform="translate(54.3125,80.25)"/>
<path d="M0 0 C0.66 0.33 1.32 0.66 2 1 C2 44.89 2 88.78 2 134 C1.34 134.33 0.68 134.66 0 135 C-0.15381127 117.69354357 -0.30184697 100.38704876 -0.4429636 83.08048439 C-0.50861847 75.0451665 -0.57617969 67.009873 -0.64819336 58.97460938 C-0.71093882 51.9729547 -0.77014355 44.97128068 -0.82505554 37.96956003 C-0.85426898 34.26051716 -0.88528314 30.55150866 -0.92053413 26.84251785 C-0.95977218 22.70705553 -0.99110669 18.57157025 -1.02172852 14.43603516 C-1.03467453 13.19957748 -1.04762054 11.96311981 -1.06095886 10.68919373 C-1.06799835 9.56736191 -1.07503784 8.44553009 -1.08229065 7.28970337 C-1.09058679 6.31075922 -1.09888292 5.33181507 -1.10743046 4.32320595 C-1 2 -1 2 0 0 Z " fill="#1B2151" transform="translate(223,45)"/>
<path d="M0 0 C1.13917374 0.00666183 1.13917374 0.00666183 2.30136108 0.01345825 C3.59247299 0.01368484 3.59247299 0.01368484 4.90966797 0.01391602 C5.83991791 0.02423859 6.77016785 0.03456116 7.72860718 0.04519653 C8.68020721 0.04802643 9.63180725 0.05085632 10.61224365 0.05377197 C13.6589706 0.06498914 16.70540621 0.09009641 19.75204468 0.11550903 C21.81454044 0.12553685 23.8770408 0.13466304 25.93954468 0.14285278 C31.00215735 0.16493349 36.06455158 0.19947374 41.12704468 0.24050903 C41.62204468 1.23050903 41.62204468 1.23050903 42.12704468 2.24050903 C39.26200559 3.06599495 36.79362404 3.3429163 33.81747437 3.26223755 C32.97690491 3.24214127 32.13633545 3.22204498 31.27029419 3.20133972 C30.3722406 3.17430466 29.47418701 3.14726959 28.54891968 3.11941528 C27.15905853 3.08399879 27.15905853 3.08399879 25.74111938 3.04786682 C22.78626575 2.9713902 19.83168481 2.88729696 16.87704468 2.80300903 C14.87184962 2.74977233 12.86664131 2.69703204 10.86141968 2.64480591 C5.94978917 2.51579668 1.03838945 2.37995682 -3.87295532 2.24050903 C-1.87295532 0.24050903 -1.87295532 0.24050903 0 0 Z " fill="#787A8B" transform="translate(67.87295532226563,11.759490966796875)"/>
<path d="M0 0 C0.99 0.33 1.98 0.66 3 1 C2.34 2.65 1.68 4.3 1 6 C-0.65 6 -2.3 6 -4 6 C-4 8.31 -4 10.62 -4 13 C-3.34 13.33 -2.68 13.66 -2 14 C-1.67 14.99 -1.34 15.98 -1 17 C0.98 17.33 2.96 17.66 5 18 C5 18.66 5 19.32 5 20 C0.70892835 20.4206933 -1.35134537 20.45543836 -4.9375 17.9375 C-7 15 -7 15 -7.75 11.6875 C-6.68819632 6.46696525 -3.72653778 3.65999247 0 0 Z " fill="#2E3156" transform="translate(53,124)"/>
<path d="M0 0 C1.98 0.495 1.98 0.495 4 1 C3.67 1.33 3.34 1.66 3 2 C3.99 2.66 4.98 3.32 6 4 C5.67 4.99 5.34 5.98 5 7 C5.639375 7.103125 6.27875 7.20625 6.9375 7.3125 C7.618125 7.539375 8.29875 7.76625 9 8 C9.33 8.99 9.66 9.98 10 11 C6.98968256 11.93423645 6.13349732 12.04449911 3 11 C3 10.34 3 9.68 3 9 C1.68 8.67 0.36 8.34 -1 8 C-1.125 2.25 -1.125 2.25 0 0 Z " fill="#030B44" transform="translate(49,130)"/>
<path d="M0 0 C1.98 0.99 1.98 0.99 4 2 C4 2.99 4 3.98 4 5 C4.66 5.66 5.32 6.32 6 7 C5.67 7.66 5.34 8.32 5 9 C7.08770553 10.11841368 8.85408801 10.9708176 11.1875 11.4375 C11.785625 11.623125 12.38375 11.80875 13 12 C13.33 12.99 13.66 13.98 14 15 C14.66 15 15.32 15 16 15 C16 15.66 16 16.32 16 17 C16.66 17 17.32 17 18 17 C18.33 17.99 18.66 18.98 19 20 C12.60017956 18.68721632 8.31264361 14.68089591 4 10 C1.9810284 6.92039532 0 3.781825 0 0 Z " fill="#333759" transform="translate(36,190)"/>
<path d="M0 0 C-1.65 1.32 -3.3 2.64 -5 4 C-4.67 4.66 -4.34 5.32 -4 6 C-4.66 6 -5.32 6 -6 6 C-6.66 7.32 -7.32 8.64 -8 10 C-8.66 10 -9.32 10 -10 10 C-10.33 11.32 -10.66 12.64 -11 14 C-12.56935594 10.86128812 -12.35201103 8.46144178 -12 5 C-8.52254958 0.04726758 -5.9082216 -0.57923741 0 0 Z " fill="#30355B" transform="translate(58,81)"/>
<path d="M0 0 C-1.6875 1.125 -1.6875 1.125 -4 2 C-4.70125 1.71125 -5.4025 1.4225 -6.125 1.125 C-11.65934127 -1.0406118 -17.18262223 -0.75201839 -22.625 1.5 C-23.40875 1.995 -24.1925 2.49 -25 3 C-24.67 1.35 -24.34 -0.3 -24 -2 C-15.81013979 -4.41795873 -7.64780581 -3.52975653 0 0 Z " fill="#444769" transform="translate(150,19)"/>
<path d="M0 0 C3 1 3 1 4.16796875 2.7421875 C4.50441406 3.44601563 4.84085938 4.14984375 5.1875 4.875 C5.53167969 5.57367188 5.87585938 6.27234375 6.23046875 6.9921875 C7 9 7 9 7 12 C5.02 12.33 3.04 12.66 1 13 C1 12.34 1 11.68 1 11 C1.66 11 2.32 11 3 11 C3 9.02 3 7.04 3 5 C2.01 4.67 1.02 4.34 0 4 C0 2.68 0 1.36 0 0 Z " fill="#2C3258" transform="translate(217,33)"/>
<path d="M0 0 C3.54429684 1.39240233 4.93260758 1.94632907 6.5 5.375 C6.1875 8.125 6.1875 8.125 5.5 10.375 C4.0393715 7.72761084 3.5 6.48051666 3.5 3.375 C0.2 2.715 -3.1 2.055 -6.5 1.375 C-3.5 -0.625 -3.5 -0.625 0 0 Z " fill="#3A3D60" transform="translate(45.5,160.625)"/>
<path d="M0 0 C3.24239854 2.74356799 4.8380216 4.42295196 6 8.5625 C6 12 6 12 4.5625 14.4375 C4.046875 14.953125 3.53125 15.46875 3 16 C2.83266843 14.5209084 2.66615314 13.04172444 2.5 11.5625 C2.4071875 10.73878906 2.314375 9.91507813 2.21875 9.06640625 C2 7 2 7 2 6 C1.34561559 3.99594773 0.67939174 1.99571323 0 0 Z " fill="#434669" transform="translate(81,103)"/>
<path d="M0 0 C0.7425 0.78375 1.485 1.5675 2.25 2.375 C5.96525013 5.92137513 8.66161513 7.17602486 13.75 7.625 C14.94882813 7.73714844 14.94882813 7.73714844 16.171875 7.8515625 C16.77515625 7.90054688 17.3784375 7.94953125 18 8 C18 8.33 18 8.66 18 9 C13.44020444 9.84102896 10.01431261 10.3503989 5.5625 8.8125 C2.99535158 6.99671209 2.01160113 5.93364327 1 3 C0.34 3 -0.32 3 -1 3 C-0.67 2.01 -0.34 1.02 0 0 Z " fill="#585B7A" transform="translate(122,199)"/>
<path d="M0 0 C0.66 0 1.32 0 2 0 C2 0.66 2 1.32 2 2 C2.66 2 3.32 2 4 2 C4.33 2.66 4.66 3.32 5 4 C5.99 4.2165625 5.99 4.2165625 7 4.4375 C7.66 4.623125 8.32 4.80875 9 5 C9.33 5.99 9.66 6.98 10 8 C-0.55808656 4.92482916 -0.55808656 4.92482916 -5 3 C-5 2.67 -5 2.34 -5 2 C-3.35 1.67 -1.7 1.34 0 1 C0 0.67 0 0.34 0 0 Z " fill="#43466B" transform="translate(154,19)"/>
<path d="M0 0 C2.97 0 5.94 0 9 0 C3.53054458 3.64630361 -1.41384937 4.28778093 -7.875 4.125 C-8.56335938 4.11597656 -9.25171875 4.10695312 -9.9609375 4.09765625 C-11.64077838 4.07432513 -13.32043746 4.03846326 -15 4 C-15 3.67 -15 3.34 -15 3 C-10.38 3 -5.76 3 -1 3 C-0.67 2.01 -0.34 1.02 0 0 Z " fill="#606384" transform="translate(143,221)"/>
<path d="M0 0 C-0.99 0.495 -0.99 0.495 -2 1 C-2.33 1.99 -2.66 2.98 -3 4 C-5.06640625 4.94921875 -5.06640625 4.94921875 -7.5625 5.6875 C-8.38878906 5.93886719 -9.21507812 6.19023437 -10.06640625 6.44921875 C-10.70449219 6.63097656 -11.34257813 6.81273437 -12 7 C-5.54347826 -1.84782609 -5.54347826 -1.84782609 0 0 Z " fill="#33375D" transform="translate(54,17)"/>
<path d="M0 0 C0.33 0.66 0.66 1.32 1 2 C-1 4 -3 6 -5 8 C-6.98 7.34 -8.96 6.68 -11 6 C-8.61542052 4.41028035 -6.3695876 3.13258407 -3.8125 1.875 C-3.09707031 1.52179688 -2.38164062 1.16859375 -1.64453125 0.8046875 C-1.10183594 0.53914062 -0.55914062 0.27359375 0 0 Z " fill="#3D4164" transform="translate(203,182)"/>
<path d="M0 0 C0.99 0.33 1.98 0.66 3 1 C3.33 2.65 3.66 4.3 4 6 C3.01 6 2.02 6 1 6 C1.33 6.99 1.66 7.98 2 9 C0.68 8.67 -0.64 8.34 -2 8 C-1.125 2.25 -1.125 2.25 0 0 Z " fill="#04093F" transform="translate(3,106)"/>
<path d="M0 0 C1.32 0 2.64 0 4 0 C4 0.66 4 1.32 4 2 C6.97 2.495 6.97 2.495 10 3 C10.33 3.99 10.66 4.98 11 6 C7.70342144 6 5.83635572 5.25666731 2.8125 4 C1.91144531 3.62875 1.01039063 3.2575 0.08203125 2.875 C-0.60503906 2.58625 -1.29210937 2.2975 -2 2 C-1.34 1.34 -0.68 0.68 0 0 Z " fill="#3D4061" transform="translate(194,36)"/>
<path d="M0 0 C0.66 0 1.32 0 2 0 C2.66 0.99 3.32 1.98 4 3 C5.2375 3.495 5.2375 3.495 6.5 4 C9 5 9 5 11 8 C5.82069003 6.75696561 2.29833361 5.14512215 -2 2 C-1.34 1.34 -0.68 0.68 0 0 Z " fill="#434668" transform="translate(116,216)"/>
<path d="M0 0 C1.98 0.99 1.98 0.99 4 2 C4 2.99 4 3.98 4 5 C4.66 5.66 5.32 6.32 6 7 C5.67 7.66 5.34 8.32 5 9 C5.99 9.33 6.98 9.66 8 10 C7.34 10.66 6.68 11.32 6 12 C0.44419134 4.88610478 0.44419134 4.88610478 0 0 Z " fill="#46496A" transform="translate(36,190)"/>
<path d="M0 0 C-2.30838651 2.69435467 -4.11185835 3.5677981 -7.5625 4.3125 C-8.74005859 4.58513672 -8.74005859 4.58513672 -9.94140625 4.86328125 C-10.96041016 4.93095703 -10.96041016 4.93095703 -12 5 C-12.66 4.34 -13.32 3.68 -14 3 C-9.07015675 0.96006486 -5.42039575 -0.40652968 0 0 Z " fill="#373A61" transform="translate(179,194)"/>
<path d="M0 0 C0.66 0.66 1.32 1.32 2 2 C1.34 3.65 0.68 5.3 0 7 C-2.31 6.34 -4.62 5.68 -7 5 C-6.34 3.68 -5.68 2.36 -5 1 C-4.67 1.99 -4.34 2.98 -4 4 C-2.68 2.68 -1.36 1.36 0 0 Z " fill="#1F2757" transform="translate(46,23)"/>
<path d="M0 0 C1.65 0.33 3.3 0.66 5 1 C4.01 1.33 3.02 1.66 2 2 C2.33 2.99 2.66 3.98 3 5 C2.34 5.66 1.68 6.32 1 7 C0.01 7 -0.98 7 -2 7 C-2 6.34 -2 5.68 -2 5 C-2.66 4.67 -3.32 4.34 -4 4 C-2.68 3.34 -1.36 2.68 0 2 C0 1.34 0 0.68 0 0 Z " fill="#22295B" transform="translate(188,17)"/>
<path d="M0 0 C-3.36423277 2.96052484 -6.69159287 3.92289822 -11 5 C-11 4.34 -11 3.68 -11 3 C-7.14243493 0.84694043 -4.44870215 -0.39253254 0 0 Z " fill="#44476B" transform="translate(210,199)"/>
<path d="M0 0 C0.99 0 1.98 0 3 0 C2.835 0.721875 2.67 1.44375 2.5 2.1875 C2.02412881 4.86427545 1.922557 7.28949487 2 10 C0 9 0 9 -1.25 6.125 C-1.4975 5.09375 -1.745 4.0625 -2 3 C-1.34 2.01 -0.68 1.02 0 0 Z " fill="#020A3E" transform="translate(82,109)"/>
<path d="M0 0 C1.98 0 3.96 0 6 0 C5.01 0.495 5.01 0.495 4 1 C4.33 2.32 4.66 3.64 5 5 C4.01 5.66 3.02 6.32 2 7 C1.01 5.35 0.02 3.7 -1 2 C-0.01 2 0.98 2 2 2 C1.34 1.34 0.68 0.68 0 0 Z " fill="#00083B" transform="translate(52,82)"/>
<path d="M0 0 C0.144375 0.61875 0.28875 1.2375 0.4375 1.875 C0.93152225 4.03258322 0.93152225 4.03258322 2 6 C1.01 6.99 0.02 7.98 -1 9 C-1.80967438 6.08517222 -2.21845993 4.53886783 -1.0625 1.6875 C-0.711875 1.130625 -0.36125 0.57375 0 0 Z " fill="#454B6C" transform="translate(38,28)"/>
<path d="M0 0 C2.97 0.495 2.97 0.495 6 1 C6 1.66 6 2.32 6 3 C3.69 3 1.38 3 -1 3 C-0.67 2.01 -0.34 1.02 0 0 Z " fill="#393D60" transform="translate(52,141)"/>
<path d="M0 0 C3.65316671 1.24976756 4.78065836 1.67098753 7 5 C3.31245243 4.50168276 1.39509338 3.89932357 -1 1 C-0.67 0.67 -0.34 0.34 0 0 Z " fill="#434767" transform="translate(74,98)"/>
<path d="M0 0 C2.97 0.495 2.97 0.495 6 1 C5.01 1.66 4.02 2.32 3 3 C3 3.66 3 4.32 3 5 C1.68 4.34 0.36 3.68 -1 3 C-0.67 2.01 -0.34 1.02 0 0 Z " fill="#151B4D" transform="translate(189,32)"/>
</svg>
