<svg width="18" height="18" viewBox="0 0 18 18" fill="none" xmlns="http://www.w3.org/2000/svg">
<path fill-rule="evenodd" clip-rule="evenodd" d="M7.42151 8.4225C7.09339 8.4225 6.83394 8.6775 6.83394 9C6.83394 9.315 7.09339 9.5775 7.42151 9.5775H12V13.1625C12 15 10.4815 16.5 8.60429 16.5H4.88808C3.01853 16.5 1.5 15.0075 1.5 13.17V4.8375C1.5 2.9925 3.02616 1.5 4.89571 1.5H8.61955C10.4815 1.5 12 2.9925 12 4.83V8.4225H7.42151ZM14.7226 6.40516L16.9126 8.58766C17.0251 8.70016 17.0851 8.84266 17.0851 9.00016C17.0851 9.15016 17.0251 9.30016 16.9126 9.40516L14.7226 11.5877C14.6101 11.7002 14.4601 11.7602 14.3176 11.7602C14.1676 11.7602 14.0176 11.7002 13.9051 11.5877C13.6801 11.3627 13.6801 10.9952 13.9051 10.7702L15.1051 9.57766H12.0001V8.42266H15.1051L13.9051 7.23016C13.6801 7.00516 13.6801 6.63766 13.9051 6.41266C14.1301 6.18016 14.4976 6.18016 14.7226 6.40516Z" fill="#EF040D"/>
</svg>
