<svg width="211" height="60" viewBox="0 0 211 60" fill="none" xmlns="http://www.w3.org/2000/svg">
<g clip-path="url(#clip0_26_5793)">
<path d="M53.3974 58.1655C52.9902 58.1655 52.6195 58.0644 52.2826 57.8593C51.9484 57.6542 51.6816 57.3789 51.4879 57.0278C51.2941 56.6766 51.1958 56.2889 51.1958 55.8647C51.1958 55.4405 51.2941 55.0444 51.4879 54.6961C51.6816 54.3477 51.9484 54.0724 52.2826 53.8702C52.6195 53.6651 52.9902 53.564 53.3974 53.564C53.8046 53.564 54.1837 53.6651 54.5151 53.8702C54.8464 54.0752 55.1104 54.3506 55.307 54.6961C55.5007 55.0444 55.599 55.4321 55.599 55.8647C55.599 56.2974 55.5007 56.6794 55.307 57.0278C55.1132 57.3761 54.8492 57.6542 54.5151 57.8593C54.1837 58.0644 53.8102 58.1655 53.3974 58.1655ZM53.3974 57.7891C53.7316 57.7891 54.0377 57.7048 54.3101 57.5334C54.5824 57.3621 54.7987 57.1317 54.9559 56.8424C55.1132 56.553 55.1946 56.2271 55.1946 55.8676C55.1946 55.508 55.116 55.1821 54.9559 54.8927C54.7959 54.6034 54.5824 54.3702 54.3101 54.2017C54.0377 54.0303 53.7344 53.946 53.3974 53.946C53.0604 53.946 52.7571 54.0303 52.4847 54.2017C52.2124 54.373 51.9961 54.6034 51.8389 54.8927C51.6788 55.1849 51.6002 55.508 51.6002 55.8676C51.6002 56.2271 51.6788 56.553 51.8389 56.8424C51.9989 57.1317 52.2124 57.3649 52.4847 57.5334C52.7571 57.7048 53.0604 57.7891 53.3974 57.7891Z" fill="black"/>
<path d="M58.4127 58.0756V53.6539H58.8087V54.2747C59.1681 53.7999 59.6567 53.564 60.2745 53.564C60.6087 53.564 60.9064 53.6342 61.1591 53.7747C61.4146 53.9151 61.6112 54.1146 61.7516 54.3674C61.892 54.6231 61.9622 54.918 61.9622 55.2523V58.0756H61.5663V55.3619C61.5663 54.918 61.4427 54.5697 61.1984 54.314C60.9513 54.0584 60.6143 53.932 60.1819 53.932C59.8814 53.932 59.6118 54.0022 59.3731 54.1427C59.1344 54.2831 58.9435 54.4854 58.8059 54.7495V58.0756H58.4099H58.4127Z" fill="black"/>
<path d="M64.9642 58.0756V51.7829L65.3602 51.6846V58.0756H64.9642Z" fill="black"/>
<path d="M68.5755 52.6566C68.48 52.6566 68.3986 52.6229 68.334 52.5583C68.2694 52.4937 68.2357 52.4122 68.2357 52.3167C68.2357 52.2212 68.2694 52.1397 68.334 52.0751C68.4014 52.0105 68.48 51.9768 68.5755 51.9768C68.6766 51.9768 68.7608 52.0105 68.8226 52.0751C68.8844 52.1397 68.9181 52.2212 68.9181 52.3167C68.9181 52.4122 68.8872 52.4937 68.8226 52.5583C68.7608 52.6229 68.6766 52.6566 68.5755 52.6566ZM68.3789 58.0785V53.6567H68.7749V58.0785H68.3789Z" fill="black"/>
<path d="M71.7937 58.0756V53.6539H72.1897V54.2747C72.5491 53.7999 73.0377 53.564 73.6555 53.564C73.9897 53.564 74.2874 53.6342 74.5401 53.7747C74.7956 53.9151 74.9922 54.1146 75.1326 54.3674C75.273 54.6231 75.3432 54.918 75.3432 55.2523V58.0756H74.9473V55.3619C74.9473 54.918 74.8237 54.5697 74.5794 54.314C74.3323 54.0584 73.9953 53.932 73.5628 53.932C73.2624 53.932 72.9928 54.0022 72.7541 54.1427C72.5154 54.2831 72.3244 54.4854 72.1868 54.7495V58.0756H71.7909H71.7937Z" fill="black"/>
<path d="M80.3389 58.1655C79.9317 58.1655 79.5611 58.0644 79.2241 57.8593C78.8899 57.6542 78.6231 57.3789 78.4294 57.0334C78.2356 56.685 78.1373 56.2974 78.1373 55.8647C78.1373 55.4321 78.2328 55.0444 78.421 54.6961C78.6091 54.3477 78.8675 54.0724 79.1988 53.8702C79.5274 53.6651 79.898 53.564 80.3052 53.564C80.6871 53.564 81.0297 53.6651 81.3302 53.8702C81.6307 54.0752 81.8694 54.3449 82.0435 54.6849C82.2204 55.0248 82.3075 55.3984 82.3075 55.8142V55.9771H78.5417C78.5586 56.3198 78.6484 56.626 78.8113 56.8985C78.9742 57.171 79.1876 57.3874 79.4544 57.5503C79.7211 57.7132 80.016 57.7919 80.3389 57.7919C80.5917 57.7919 80.8388 57.7526 81.0859 57.6711C81.333 57.5896 81.5408 57.4801 81.7149 57.3424L81.948 57.657C81.7093 57.8312 81.4538 57.9604 81.1842 58.0447C80.9146 58.129 80.6338 58.1711 80.3389 58.1711V58.1655ZM78.5586 55.5951H81.8834C81.8525 55.2888 81.7655 55.0135 81.6223 54.7635C81.479 54.5163 81.2937 54.3168 81.0662 54.1651C80.8388 54.0163 80.5804 53.9404 80.294 53.9404C79.9879 53.9404 79.7099 54.0134 79.4628 54.1567C79.2129 54.3 79.0107 54.4966 78.8506 54.7467C78.6905 54.9967 78.5951 55.2776 78.5586 55.5951Z" fill="black"/>
<path d="M90.117 58.1655C89.7744 58.1655 89.4515 58.1037 89.1426 57.9801C88.8337 57.8565 88.5754 57.6795 88.3647 57.4464L88.6708 57.1935C88.8506 57.3789 89.0668 57.525 89.3223 57.6346C89.5779 57.7413 89.8418 57.7975 90.117 57.7975C90.5242 57.7975 90.8528 57.7104 91.0999 57.5334C91.347 57.3565 91.4734 57.1289 91.4734 56.8452C91.4734 56.6345 91.3976 56.4603 91.2487 56.3227C91.0999 56.185 90.8556 56.0951 90.5214 56.053L89.7941 55.9631C89.3757 55.9153 89.0556 55.7917 88.8365 55.5951C88.6175 55.3984 88.508 55.1343 88.508 54.8028C88.508 54.5584 88.5725 54.3421 88.7045 54.1567C88.8365 53.9713 89.0219 53.8252 89.2577 53.7213C89.4936 53.6173 89.7688 53.564 90.0805 53.564C90.3922 53.564 90.6674 53.6089 90.9426 53.6988C91.2178 53.7887 91.4958 53.9348 91.7795 54.1399L91.5464 54.4629C91.2937 54.2831 91.055 54.1511 90.8219 54.064C90.5916 53.9769 90.3473 53.9348 90.089 53.9348C89.7407 53.9348 89.4571 54.0078 89.2353 54.1539C89.0134 54.3 88.9039 54.5191 88.9039 54.8057C88.9039 55.022 88.9769 55.1961 89.1229 55.3282C89.269 55.4602 89.5077 55.5473 89.8362 55.5894L90.5551 55.6793C90.9988 55.7327 91.3274 55.8619 91.5436 56.067C91.7598 56.2721 91.8665 56.5305 91.8665 56.848C91.8665 57.1008 91.7907 57.3256 91.6419 57.5278C91.493 57.7301 91.288 57.8846 91.0269 57.9998C90.7657 58.115 90.4624 58.1711 90.1142 58.1711L90.117 58.1655Z" fill="black"/>
<path d="M94.4556 58.0756V51.7829L94.8515 51.6846V54.2747C95.211 53.7999 95.6996 53.564 96.3174 53.564C96.6515 53.564 96.9492 53.6342 97.202 53.7747C97.4575 53.9151 97.6541 54.1146 97.7945 54.3674C97.9349 54.623 98.0051 54.918 98.0051 55.2523V58.0756H97.6091V55.3619C97.6091 54.918 97.4856 54.5697 97.2413 54.314C96.9941 54.0584 96.6572 53.932 96.2247 53.932C95.9242 53.932 95.6547 54.0022 95.416 54.1427C95.1773 54.2831 94.9863 54.4854 94.8487 54.7495V58.0756H94.4528H94.4556Z" fill="black"/>
<path d="M103.001 58.1655C102.594 58.1655 102.223 58.0644 101.886 57.8593C101.552 57.6542 101.285 57.3789 101.091 57.0278C100.898 56.6766 100.799 56.2889 100.799 55.8647C100.799 55.4405 100.898 55.0444 101.091 54.6961C101.285 54.3477 101.552 54.0724 101.886 53.8702C102.223 53.6651 102.594 53.564 103.001 53.564C103.408 53.564 103.787 53.6651 104.119 53.8702C104.45 54.0752 104.714 54.3506 104.91 54.6961C105.104 55.0444 105.203 55.4321 105.203 55.8647C105.203 56.2974 105.104 56.6794 104.91 57.0278C104.717 57.3761 104.453 57.6542 104.119 57.8593C103.787 58.0644 103.414 58.1655 103.001 58.1655ZM103.001 57.7891C103.335 57.7891 103.641 57.7048 103.914 57.5334C104.186 57.3621 104.402 57.1317 104.559 56.8424C104.717 56.553 104.798 56.2271 104.798 55.8676C104.798 55.508 104.72 55.1821 104.559 54.8927C104.399 54.6034 104.186 54.3702 103.914 54.2017C103.641 54.0303 103.338 53.946 103.001 53.946C102.664 53.946 102.361 54.0303 102.088 54.2017C101.816 54.373 101.6 54.6034 101.442 54.8927C101.282 55.1849 101.204 55.508 101.204 55.8676C101.204 56.2271 101.282 56.553 101.442 56.8424C101.602 57.1317 101.816 57.3649 102.088 57.5334C102.361 57.7048 102.664 57.7891 103.001 57.7891Z" fill="black"/>
<path d="M108.016 59.91V53.6538H108.412V54.1848C108.814 53.7718 109.319 53.5639 109.931 53.5639C110.344 53.5583 110.718 53.6595 111.049 53.8645C111.38 54.0724 111.644 54.3477 111.841 54.6961C112.035 55.0444 112.133 55.4321 112.133 55.8647C112.133 56.2973 112.035 56.6794 111.841 57.0278C111.647 57.3761 111.383 57.6542 111.049 57.8593C110.718 58.0644 110.344 58.1655 109.931 58.1655C109.651 58.1655 109.378 58.1093 109.117 57.9998C108.856 57.8902 108.62 57.7413 108.412 57.5559V59.91H108.016ZM109.931 57.7891C110.266 57.7891 110.572 57.7048 110.844 57.5334C111.116 57.3621 111.333 57.1317 111.49 56.8423C111.647 56.553 111.729 56.2271 111.729 55.8675C111.729 55.5079 111.65 55.1821 111.49 54.8927C111.33 54.6034 111.116 54.3702 110.844 54.2016C110.572 54.0303 110.268 53.946 109.931 53.946C109.594 53.946 109.302 54.0134 109.038 54.1483C108.774 54.2831 108.564 54.4629 108.415 54.682V57.0558C108.569 57.2665 108.783 57.4407 109.052 57.5812C109.322 57.7216 109.614 57.7919 109.934 57.7919L109.931 57.7891Z" fill="black"/>
<path d="M115.143 52.6566C115.048 52.6566 114.966 52.6229 114.902 52.5583C114.837 52.4937 114.804 52.4122 114.804 52.3167C114.804 52.2212 114.837 52.1397 114.902 52.0751C114.969 52.0105 115.048 51.9768 115.143 51.9768C115.244 51.9768 115.329 52.0105 115.39 52.0751C115.452 52.1397 115.486 52.2212 115.486 52.3167C115.486 52.4122 115.455 52.4937 115.39 52.5583C115.329 52.6229 115.244 52.6566 115.143 52.6566ZM114.947 58.0785V53.6567H115.343V58.0785H114.947Z" fill="black"/>
<path d="M118.359 58.0756V53.6539H118.755V54.2747C119.114 53.7999 119.603 53.564 120.221 53.564C120.555 53.564 120.852 53.6342 121.105 53.7747C121.361 53.9151 121.557 54.1146 121.698 54.3674C121.838 54.6231 121.908 54.918 121.908 55.2523V58.0756H121.512V55.3619C121.512 54.918 121.389 54.5697 121.144 54.314C120.897 54.0584 120.56 53.932 120.128 53.932C119.827 53.932 119.558 54.0022 119.319 54.1427C119.08 54.2831 118.89 54.4854 118.752 54.7495V58.0756H118.356H118.359Z" fill="black"/>
<path d="M127.039 60C126.747 60 126.455 59.9578 126.168 59.8735C125.882 59.7893 125.618 59.6741 125.376 59.5224L125.601 59.1993C125.865 59.3482 126.106 59.4578 126.325 59.5224C126.544 59.587 126.772 59.6207 127.013 59.6207C127.474 59.6207 127.825 59.5083 128.064 59.2892C128.302 59.0673 128.423 58.7386 128.423 58.3004V57.5447C128.022 57.9576 127.516 58.1655 126.904 58.1655C126.497 58.1655 126.126 58.0644 125.789 57.8593C125.455 57.6542 125.188 57.3789 124.994 57.0334C124.801 56.685 124.702 56.2974 124.702 55.8647C124.702 55.4321 124.801 55.0444 124.994 54.6961C125.188 54.3477 125.455 54.0724 125.789 53.8702C126.126 53.6651 126.497 53.564 126.904 53.564C127.185 53.564 127.457 53.6201 127.721 53.7297C127.985 53.8421 128.218 53.9882 128.423 54.1736V53.6511H128.819V58.2807C128.819 58.8454 128.665 59.2724 128.356 59.5617C128.047 59.8511 127.609 59.9972 127.039 59.9972V60ZM126.904 57.7891C127.232 57.7891 127.53 57.7217 127.797 57.5868C128.064 57.452 128.271 57.275 128.42 57.0531V54.6792C128.263 54.4685 128.052 54.2944 127.783 54.1539C127.513 54.0134 127.218 53.9432 126.901 53.9432C126.564 53.9432 126.261 54.0275 125.988 54.1989C125.716 54.3702 125.5 54.6006 125.343 54.8899C125.182 55.1821 125.104 55.5052 125.104 55.8647C125.104 56.2243 125.182 56.5502 125.343 56.8396C125.503 57.1289 125.716 57.3621 125.988 57.5306C126.261 57.702 126.564 57.7863 126.901 57.7863L126.904 57.7891Z" fill="black"/>
<path d="M136.879 58.1655C136.536 58.1655 136.213 58.1037 135.904 57.9801C135.595 57.8565 135.337 57.6795 135.126 57.4464L135.432 57.1935C135.612 57.3789 135.828 57.525 136.084 57.6346C136.339 57.7413 136.603 57.7975 136.879 57.7975C137.286 57.7975 137.614 57.7104 137.861 57.5334C138.108 57.3565 138.235 57.1289 138.235 56.8452C138.235 56.6345 138.159 56.4603 138.01 56.3227C137.861 56.185 137.617 56.0951 137.283 56.053L136.556 55.9631C136.137 55.9153 135.817 55.7917 135.598 55.5951C135.379 55.3984 135.269 55.1343 135.269 54.8028C135.269 54.5584 135.334 54.3421 135.466 54.1567C135.598 53.9713 135.783 53.8252 136.019 53.7213C136.255 53.6173 136.53 53.564 136.842 53.564C137.154 53.564 137.429 53.6089 137.704 53.6988C137.979 53.7887 138.257 53.9348 138.541 54.1399L138.308 54.4629C138.055 54.2831 137.816 54.1511 137.583 54.064C137.353 53.9769 137.109 53.9348 136.85 53.9348C136.502 53.9348 136.219 54.0078 135.997 54.1539C135.775 54.3 135.665 54.5191 135.665 54.8057C135.665 55.022 135.738 55.1961 135.884 55.3282C136.03 55.4602 136.269 55.5473 136.598 55.5894L137.317 55.6793C137.76 55.7327 138.089 55.8619 138.305 56.067C138.521 56.2721 138.628 56.5305 138.628 56.848C138.628 57.1008 138.552 57.3256 138.403 57.5278C138.255 57.7301 138.05 57.8846 137.788 57.9998C137.527 58.115 137.224 58.1711 136.876 58.1711L136.879 58.1655Z" fill="black"/>
<path d="M142.596 58.1656C142.259 58.1656 142.003 58.0813 141.824 57.9127C141.644 57.7442 141.554 57.511 141.554 57.2104V54.0107H140.583V53.6511H141.554V52.5358L141.95 52.4094V53.6511H143.315V54.0107H141.95V57.0756C141.95 57.3284 142.006 57.5082 142.116 57.6206C142.225 57.733 142.411 57.7863 142.669 57.7863C142.807 57.7863 142.925 57.7751 143.02 57.7554C143.115 57.7358 143.214 57.7021 143.318 57.6599V58.0476C143.203 58.0897 143.087 58.1206 142.967 58.1375C142.846 58.1543 142.725 58.1656 142.599 58.1656H142.596Z" fill="black"/>
<path d="M147.69 58.1655C147.283 58.1655 146.912 58.0644 146.575 57.8593C146.241 57.6542 145.974 57.3789 145.78 57.0278C145.587 56.6766 145.488 56.2889 145.488 55.8647C145.488 55.4405 145.587 55.0444 145.78 54.6961C145.974 54.3477 146.241 54.0724 146.575 53.8702C146.912 53.6651 147.283 53.564 147.69 53.564C148.097 53.564 148.476 53.6651 148.808 53.8702C149.139 54.0752 149.403 54.3506 149.6 54.6961C149.793 55.0444 149.892 55.4321 149.892 55.8647C149.892 56.2974 149.793 56.6794 149.6 57.0278C149.406 57.3761 149.142 57.6542 148.808 57.8593C148.476 58.0644 148.103 58.1655 147.69 58.1655ZM147.69 57.7891C148.024 57.7891 148.33 57.7048 148.603 57.5334C148.875 57.3621 149.091 57.1317 149.249 56.8424C149.406 56.553 149.487 56.2271 149.487 55.8676C149.487 55.508 149.409 55.1821 149.249 54.8927C149.088 54.6034 148.875 54.3702 148.603 54.2017C148.33 54.0303 148.027 53.946 147.69 53.946C147.353 53.946 147.05 54.0303 146.777 54.2017C146.505 54.373 146.289 54.6034 146.131 54.8927C145.971 55.1849 145.893 55.508 145.893 55.8676C145.893 56.2271 145.971 56.553 146.131 56.8424C146.292 57.1317 146.505 57.3649 146.777 57.5334C147.05 57.7048 147.353 57.7891 147.69 57.7891Z" fill="black"/>
<path d="M152.714 58.067V53.6452H153.11V54.3475C153.236 54.1031 153.407 53.9093 153.626 53.7688C153.845 53.6283 154.093 53.5581 154.368 53.5581C154.489 53.5581 154.618 53.5693 154.755 53.5946V53.9992C154.691 53.9767 154.623 53.9598 154.559 53.9486C154.494 53.9402 154.43 53.9345 154.371 53.9345C154.079 53.9345 153.823 54.0216 153.612 54.1986C153.399 54.3756 153.233 54.6312 153.112 54.9684V58.0698H152.717L152.714 58.067Z" fill="black"/>
<path d="M158.906 58.1655C158.499 58.1655 158.128 58.0644 157.791 57.8593C157.457 57.6542 157.19 57.3789 156.996 57.0334C156.803 56.685 156.704 56.2974 156.704 55.8647C156.704 55.4321 156.8 55.0444 156.988 54.6961C157.176 54.3477 157.434 54.0724 157.766 53.8702C158.094 53.6651 158.465 53.564 158.872 53.564C159.254 53.564 159.597 53.6651 159.897 53.8702C160.198 54.0752 160.436 54.3449 160.61 54.6849C160.787 55.0248 160.874 55.3984 160.874 55.8142V55.9771H157.109C157.125 56.3198 157.215 56.626 157.378 56.8985C157.541 57.171 157.754 57.3874 158.021 57.5503C158.288 57.7132 158.583 57.7919 158.906 57.7919C159.159 57.7919 159.406 57.7526 159.653 57.6711C159.9 57.5896 160.108 57.4801 160.282 57.3424L160.515 57.657C160.276 57.8312 160.021 57.9604 159.751 58.0447C159.481 58.129 159.201 58.1711 158.906 58.1711V58.1655ZM157.125 55.5951H160.45C160.419 55.2888 160.332 55.0135 160.189 54.7635C160.046 54.5163 159.861 54.3168 159.633 54.1651C159.406 54.0163 159.147 53.9404 158.861 53.9404C158.555 53.9404 158.277 54.0134 158.03 54.1567C157.78 54.3 157.578 54.4966 157.417 54.7467C157.257 54.9967 157.162 55.2776 157.125 55.5951Z" fill="black"/>
<path d="M22.2687 37.9616C21.7716 37.9616 21.0499 37.852 20.1064 37.6329C19.1628 37.4138 18.326 36.1328 17.5931 33.7927C16.6271 35.2844 15.6105 36.2957 14.5434 36.821C13.5184 37.3323 12.2323 37.588 10.6822 37.588H10.4407C7.9386 37.47 5.81282 36.4699 4.05771 34.5821C2.30261 32.6942 1.0979 30.2951 0.440794 27.3848L0.263879 26.5729C-0.205084 23.9237 -0.0506352 21.196 0.724419 18.3867C1.51351 15.8106 2.6789 13.6531 4.22339 11.9114C5.76508 10.1697 7.54826 8.85773 9.56453 7.97282C11.5836 7.0879 13.6729 6.64404 15.838 6.64404C17.6801 6.64404 19.3482 6.9334 20.8393 7.5121C22.3305 8.09081 23.5745 8.84088 24.5686 9.76231C25.8266 10.9619 26.5708 12.2569 26.8067 13.6475C26.9387 14.4088 26.8881 15.1617 26.6522 15.909C26.4472 16.5663 26.0597 17.0495 25.4896 17.3585C24.6837 17.7968 23.7036 18.0159 22.5495 18.0159C22.2574 18.0159 21.9822 17.999 21.7267 17.9597C21.4712 17.9232 21.3729 18.0159 21.4318 18.235C21.4318 17.6647 21.3869 17.0945 21.2999 16.5242C21.2268 16.0129 21.0387 15.3752 20.741 14.6139C20.4406 13.8526 19.8873 13.139 19.0842 12.4732C18.2783 11.8074 17.2842 11.476 16.0991 11.476C14.4311 11.549 12.8529 12.3637 11.3589 13.9228C9.865 15.4819 8.77824 17.4681 8.09024 19.8812C7.63532 21.7101 7.57073 23.5529 7.89367 25.4127C7.9386 25.6627 8.03688 26.1178 8.18853 26.7836C8.34297 27.4494 8.6968 28.2275 9.25282 29.1209C9.80884 30.0142 10.539 30.739 11.446 31.2924C12.353 31.8486 13.4201 32.1268 14.6501 32.1268C15.6891 32.1268 16.4782 31.9105 17.0202 31.4806C17.5622 31.048 17.9638 30.5761 18.2277 30.0648C18.3148 29.6546 18.4243 29.2754 18.5563 28.9242C18.8343 28.0758 19.0842 26.9858 19.3032 25.6542C18.2361 25.5531 17.3347 25.4997 16.6046 25.4997C15.3746 25.4997 14.1109 25.5728 12.808 25.7189L12.7434 25.2581C12.7125 25.1121 12.6956 24.8452 12.6872 24.4575C12.6788 24.0698 12.8529 23.6204 13.2039 23.1091C13.5549 22.5978 14.1334 22.2972 14.9365 22.2101C15.7987 22.1652 16.6102 22.1455 17.3712 22.1455C18.7304 22.1455 19.9295 22.2185 20.9685 22.3646C22.2265 22.4967 23.4481 22.5613 24.6331 22.5613C25.8182 22.5613 27.0454 22.4601 28.3624 22.2551C28.4635 22.4011 28.5534 22.6708 28.6264 23.0669C28.8903 24.5895 28.3568 25.4801 27.0257 25.7441H26.7393C26.6354 25.7722 26.3742 25.7891 25.9502 25.7891C26.0232 26.7836 25.9979 27.6039 25.8744 28.2472C25.7508 28.8905 25.5992 29.5338 25.4251 30.18C25.06 31.3065 24.8325 32.4779 24.7455 33.6915C24.7146 34.1607 24.7371 34.6354 24.8101 35.1186C24.9701 35.9811 25.2116 36.7143 25.5346 37.3126C24.5096 37.7509 23.42 37.97 22.2659 37.97L22.2687 37.9616Z" fill="#EF040D"/>
<path d="M40.9346 37.8098H40.4516C38.7835 37.8098 37.3092 37.3856 36.0315 36.5372C34.751 35.6888 33.7738 34.4668 33.1026 32.8711C32.8106 32.1829 32.5915 31.4525 32.4455 30.6771C32.2686 29.6517 32.2321 28.5561 32.336 27.3847C32.541 25.2918 33.2346 23.3562 34.4196 21.5808C35.6047 19.8053 37.1941 18.3613 39.1907 17.2573C41.1873 16.1533 43.5518 15.5999 46.287 15.5999C49.0221 15.5999 51.0047 16.5438 52.5829 18.4316C53.6219 19.662 54.2874 21.1228 54.5795 22.8224C55.0484 25.4575 54.6665 27.9802 53.4394 30.3934C52.7233 31.812 51.7657 33.079 50.5666 34.1915C49.3675 35.3039 47.9522 36.186 46.3207 36.835C44.6891 37.4867 42.8947 37.8126 40.9346 37.8126V37.8098ZM41.8332 34.3432C42.8413 34.2701 43.7484 33.8375 44.5543 33.0481C45.3575 32.2587 46.0286 31.3485 46.5622 30.3147C47.0957 29.2837 47.4832 28.3426 47.7247 27.4942C47.9662 26.6458 48.1207 25.7581 48.1853 24.8282C48.2499 23.8984 48.219 23.0247 48.087 22.2044C47.9101 21.342 47.604 20.6031 47.1659 19.9879C46.7278 19.3727 46.0904 19.0665 45.2564 19.0665C44.2173 19.1395 43.2963 19.5525 42.4931 20.3053C41.6872 21.0582 41.0076 21.9431 40.4516 22.9601C39.8956 23.977 39.4996 24.9097 39.2665 25.7581C39.0335 26.6065 38.8846 27.4886 38.8285 28.4016C38.7695 29.3174 38.806 30.1686 38.938 30.958L39.07 31.6603C39.157 32.1716 39.4294 32.7475 39.8815 33.3824C40.3336 34.0201 40.9851 34.3376 41.8332 34.3376V34.3432Z" fill="#EF040D"/>
<path d="M68.0924 37.8098H67.6094C65.9414 37.8098 64.4671 37.3856 63.1894 36.5372C61.9088 35.6888 60.9316 34.4668 60.2605 32.8711C59.9684 32.1829 59.7494 31.4525 59.6033 30.6771C59.4264 29.6517 59.3899 28.5561 59.4938 27.3847C59.6988 25.2918 60.3924 23.3562 61.5775 21.5808C62.7625 19.8053 64.352 18.3613 66.3486 17.2573C68.3452 16.1533 70.7096 15.5999 73.4448 15.5999C76.1799 15.5999 78.1625 16.5438 79.7407 18.4316C80.7797 19.662 81.4453 21.1228 81.7373 22.8224C82.2063 25.4575 81.8244 27.9802 80.5972 30.3934C79.8811 31.812 78.9235 33.079 77.7244 34.1915C76.5254 35.3039 75.11 36.186 73.4785 36.835C71.8469 37.4867 70.0525 37.8126 68.0924 37.8126V37.8098ZM68.991 34.3432C69.9992 34.2701 70.9062 33.8375 71.7122 33.0481C72.5153 32.2587 73.1864 31.3485 73.72 30.3147C74.2535 29.2837 74.6411 28.3426 74.8826 27.4942C75.1241 26.6458 75.2785 25.7581 75.3431 24.8282C75.4077 23.8984 75.3768 23.0247 75.2448 22.2044C75.0679 21.342 74.7618 20.6031 74.3238 19.9879C73.8857 19.3727 73.2482 19.0665 72.4142 19.0665C71.3752 19.1395 70.4541 19.5525 69.651 20.3053C68.845 21.0582 68.1654 21.9431 67.6094 22.9601C67.0534 23.977 66.6575 24.9097 66.4244 25.7581C66.1913 26.6065 66.0425 27.4886 65.9863 28.4016C65.9273 29.3174 65.9638 30.1686 66.0958 30.958L66.2278 31.6603C66.3149 32.1716 66.5872 32.7475 67.0394 33.3824C67.4915 34.0201 68.143 34.3376 68.991 34.3376V34.3432Z" fill="#EF040D"/>
<path d="M135.424 37.8297C133.231 37.8297 131.344 37.4027 129.763 36.5459C128.182 35.6891 127.005 34.4642 126.23 32.8686C125.865 32.1073 125.609 31.287 125.463 30.4105C125.286 29.4609 125.25 28.4496 125.354 27.3821C125.5 25.8174 125.91 24.3284 126.584 22.9154C127.255 21.5023 128.165 20.2494 129.305 19.151C130.445 18.0526 131.807 17.1873 133.385 16.5496C134.963 15.9119 136.727 15.5945 138.673 15.5945H139.088C140.756 15.5945 142.217 15.9372 143.478 16.6255C144.736 17.3137 145.634 18.2492 146.176 19.4347C146.367 19.8308 146.496 20.255 146.572 20.7073C146.718 21.5276 146.668 22.3985 146.418 23.3199C145.949 24.6796 145.005 25.8511 143.587 26.8315C142.169 27.8119 140.515 28.5508 138.628 29.048C136.991 29.4862 135.41 29.7054 133.888 29.7054L132.397 29.6604C133.127 31.1381 133.969 32.1438 134.918 32.6775C135.867 33.2113 137.016 33.4782 138.364 33.4782C140.015 33.4332 141.416 33.1355 142.565 32.5792C143.713 32.023 144.615 31.4021 145.275 30.7139C145.202 30.6858 145.179 30.7644 145.21 30.9555C145.224 31.0285 145.238 31.2224 145.255 31.537C145.269 31.8516 145.084 32.3741 144.696 33.1074C144.309 33.8378 143.73 34.5626 142.964 35.2789C142.197 35.9953 141.254 36.5965 140.133 37.0796C139.013 37.5628 137.732 37.8044 136.283 37.8044L135.427 37.8269L135.424 37.8297ZM132.2 26.7247C134.73 26.4326 136.713 25.9719 138.145 25.3426C140.22 24.4212 141.113 23.098 140.821 21.3703C140.571 19.8336 139.591 19.0667 137.881 19.0667C136.71 19.1398 135.752 19.5724 135.008 20.3618C134.264 21.1512 133.68 22.0586 133.264 23.0839C132.849 24.1093 132.492 25.3229 132.2 26.7275V26.7247Z" fill="#EF040D"/>
<path d="M170.217 37.9616C169.633 37.9616 168.841 37.824 167.847 37.5459C166.853 37.2678 166.179 36.2368 165.828 34.4501C165.724 33.8658 165.777 32.3431 165.982 29.885C164.182 33.0314 162.705 35.1384 161.551 36.2059C160.307 37.3043 158.953 37.8521 157.493 37.8521C155.929 37.8521 154.567 37.4195 153.413 36.557C152.256 35.6946 151.402 34.4726 150.846 32.8909C150.627 32.2926 150.464 31.6689 150.363 31.0256C150.158 29.8991 150.108 28.6855 150.209 27.382C150.428 25.3032 151.068 23.376 152.13 21.5978C153.191 19.8195 154.573 18.3755 156.277 17.2631C157.982 16.1506 159.9 15.5944 162.037 15.5944C163.295 15.5944 164.382 15.7967 165.294 16.1984C166.207 16.6001 167.243 17.7463 168.397 19.6341C168.675 17.426 168.785 16.0635 168.726 15.5522C170.158 15.6253 171.509 15.8809 172.772 16.3192C174.036 16.7574 174.794 17.2715 175.044 17.8558C175.131 18.075 175.199 18.325 175.241 18.6031C175.387 19.4093 175.362 20.4403 175.165 21.6989C174.968 22.9574 174.643 24.4435 174.188 26.1544C173.618 28.2753 173.208 30.3401 172.958 32.3431C172.812 33.4837 172.817 34.5456 172.98 35.526C173.126 36.3604 173.295 36.9531 173.486 37.3043C172.447 37.7425 171.357 37.9616 170.217 37.9616ZM160.324 32.7589C161.186 32.7589 162.045 32.2757 162.902 31.3093C163.758 30.343 164.561 29.1434 165.314 27.7107C166.066 26.278 166.721 24.7469 167.277 23.1232C167.437 22.4939 167.482 21.9377 167.409 21.4545C167.336 20.9432 167.035 20.4151 166.51 19.8729C165.982 19.3307 165.011 19.061 163.592 19.061C162.306 19.1059 161.2 19.5217 160.279 20.3111C159.358 21.1005 158.625 22.0529 158.086 23.1653C157.151 25.1711 156.85 27.1741 157.187 29.1799C157.187 29.2249 157.235 29.4946 157.33 29.9918C157.426 30.489 157.732 31.0734 158.251 31.7476C158.771 32.4218 159.462 32.7561 160.324 32.7561V32.7589Z" fill="#EF040D"/>
<path d="M182.916 37.9417C182.331 37.9417 181.534 37.8041 180.523 37.526C179.515 37.2479 178.832 36.2253 178.481 34.4526C178.349 33.5453 178.442 32.2811 178.757 30.6545C179.071 29.0308 179.492 27.1711 180.018 25.081C180.821 22.0667 181.506 18.881 182.067 15.5239C182.629 12.1668 182.758 9.16938 182.452 6.53711C183.286 6.5652 184.247 6.71409 185.336 6.97535C186.426 7.23942 187.302 7.55406 187.97 7.91926C188.636 8.28446 188.99 8.62157 189.035 8.92778C189.414 11.0937 189.394 13.5041 188.97 16.1588C188.546 18.8135 187.998 21.4879 187.324 24.1792C185.934 29.9017 185.415 33.8065 185.766 35.8994C185.884 36.6158 186.007 37.0849 186.139 37.304C185.131 37.7282 184.056 37.9417 182.916 37.9417Z" fill="#EF040D"/>
<path d="M210.818 37.8295C211.037 37.8576 211.059 37.866 210.882 37.852C206.889 37.2677 203.73 36.9727 201.405 36.9727C199.284 36.9727 196.782 37.1918 193.901 37.63C193.418 37.7621 192.921 37.8267 192.41 37.8267C192.028 37.8267 191.511 37.7705 190.851 37.6609C190.192 37.5514 189.518 37.2733 188.821 36.8266C188.128 36.3799 187.743 35.9304 187.67 35.4782C190.172 33.5313 192.309 31.5592 194.086 29.5647C195.864 27.5701 197.366 25.7132 198.594 24.0024C199.616 22.6427 200.905 21.0976 202.455 19.3727C198.973 19.6368 196.403 20.1228 194.744 20.8335C193.084 21.5443 191.997 22.1623 191.486 22.6876C191.104 22.2634 190.835 21.5976 190.675 20.6903C190.675 20.6453 190.638 20.3672 190.565 19.8559C190.492 19.3446 190.677 18.6676 191.124 17.8248C191.57 16.9849 192.334 16.364 193.415 15.9707C194.35 15.6786 195.645 15.5325 197.299 15.5325C197.695 15.5325 198.551 15.5578 199.877 15.6083C201.2 15.6589 203.036 16.01 205.384 16.6618C207.731 17.3135 209.453 18.1507 210.551 19.1761C209.175 20.4206 207.903 21.8364 206.734 23.4237C205.563 25.0109 204.51 26.5672 203.575 28.087C202.463 29.8709 200.759 32.2138 198.464 35.1101C200.688 33.9836 202.093 33.2364 202.677 32.8712C203.261 32.506 203.814 32.2026 204.333 31.961C204.853 31.7194 205.339 31.5986 205.794 31.5986H205.858C207.217 31.6576 208.265 32.0986 208.995 32.9274C209.725 33.7533 210.225 34.6859 210.486 35.7254L210.641 36.5597C210.773 37.2761 210.832 37.7003 210.818 37.8323V37.8295Z" fill="#EF040D"/>
<path d="M94.5566 15.2459C95.0621 15.4846 95.6321 15.9931 96.2668 16.7713C95.3317 16.6252 94.6099 16.4651 94.1045 16.2881C92.4168 15.6981 93.4052 14.7037 94.5566 15.2487V15.2459Z" fill="#17BADA"/>
<path d="M99.0384 15.2459C100.19 14.701 101.178 15.6982 99.4905 16.2854C98.9823 16.4624 98.2606 16.6253 97.3282 16.7686C97.9629 15.9904 98.5329 15.4847 99.0384 15.2431V15.2459Z" fill="#17BADA"/>
<path d="M103.88 23.0839V24.5981C103.871 24.7919 103.863 24.983 103.852 25.1768C103.781 26.3426 103.63 27.5029 103.321 28.6294C102.872 30.2672 102.066 31.8375 100.827 32.995C99.0524 34.6524 96.5026 35.3266 94.0819 35.1468C93.408 35.0963 92.7172 34.9755 92.1387 34.6215C91.8495 34.4445 91.5967 34.2001 91.417 33.9108C91.2457 33.6355 91.1783 33.3264 91.0744 33.023C90.9677 32.7168 90.993 32.3882 90.993 32.0679V31.9864C90.993 31.8937 90.993 31.8038 90.993 31.7111C90.993 31.3965 90.993 31.0818 90.993 30.7672C90.993 29.8992 90.993 29.0339 90.993 28.1658C90.993 27.2978 90.993 26.4325 90.993 25.5645C90.993 24.6964 90.993 23.8284 90.993 22.9631C90.993 22.0951 90.993 21.227 90.993 20.3617C90.993 19.4937 90.993 18.6256 90.993 17.7604C90.993 16.8979 90.993 16.0355 90.993 15.1702C90.993 14.8388 90.9986 14.482 91.0913 14.1673C91.1474 13.9763 91.2345 13.7993 91.3693 13.6504C91.6922 13.2937 92.2033 13.1897 92.6807 13.1251C94.3178 12.9116 96.0196 12.9678 97.595 13.4482C97.9628 13.5577 98.3195 13.6954 98.6705 13.8555C98.0302 14.2938 97.4124 15.2096 96.8143 16.5973C96.146 15.0382 95.4495 14.0774 94.725 13.7151C92.8576 12.7796 90.3808 16.3361 93.2423 17.0862C94.0595 17.2997 95.2501 17.3558 96.8143 17.2519C98.3784 17.3558 99.5691 17.2997 100.386 17.0862C101.094 16.9007 101.476 16.544 101.619 16.1254C102.226 16.853 102.717 17.6817 103.057 18.5666C103.248 19.0611 103.388 19.5752 103.478 20.1005C103.537 20.3196 103.585 20.5443 103.63 20.7719C103.63 20.7691 103.635 20.7635 103.638 20.7607C103.776 21.4883 103.863 22.2552 103.896 23.053C103.896 23.0642 103.896 23.0727 103.896 23.0839H103.88Z" fill="#17BADA"/>
<path d="M115.045 37.925H90.9144C89.9989 37.925 89.1874 37.5121 88.6482 36.8688H93.0542C97.6371 36.8688 101.38 35.8546 104.301 33.6494C107.311 31.3795 109.19 27.8398 109.19 23.3141C109.19 19.4289 107.704 16.6899 105.739 14.8386C103.262 12.5041 99.6534 11.4338 94.4695 11.4338H90.6083C90.9986 10.2399 92.1219 9.39429 93.4249 9.39429H113.371C114.924 9.39429 116.213 10.591 116.328 12.1417L118.002 34.7422C118.128 36.4614 116.769 37.925 115.045 37.925Z" fill="#17BADA"/>
<path d="M97.5809 7.28184C97.5809 7.00092 97.6006 6.7228 97.6371 6.44469L97.6034 6.69471C97.6792 6.13005 97.8281 5.57944 98.0499 5.05692L97.9544 5.28166C98.1678 4.78161 98.443 4.31246 98.7744 3.88265L98.6284 4.07368C98.9597 3.64667 99.3417 3.26461 99.7685 2.93312L99.5775 3.0792C100.007 2.74771 100.476 2.4724 100.976 2.2589L100.751 2.35442C101.276 2.13249 101.827 1.98359 102.389 1.90774L102.139 1.94146C102.695 1.86842 103.256 1.86842 103.812 1.94146L103.562 1.90774C104.127 1.98359 104.677 2.13249 105.199 2.35442L104.975 2.2589C105.475 2.4724 105.944 2.74771 106.373 3.0792L106.182 2.93312C106.609 3.26461 106.991 3.64667 107.322 4.07368L107.176 3.88265C107.508 4.31246 107.783 4.78161 107.996 5.28166L107.901 5.05692C108.123 5.58225 108.272 6.13286 108.347 6.69471L108.314 6.44469C108.35 6.7228 108.367 7.00092 108.37 7.28184C108.37 7.77346 108.8 8.24261 109.308 8.22013C109.816 8.19766 110.249 7.80717 110.246 7.28184C110.24 5.81261 109.796 4.32651 108.94 3.12696C108.053 1.88246 106.845 0.955408 105.41 0.42446C103.975 -0.106489 102.417 -0.131772 100.984 0.275569C99.6112 0.666055 98.3307 1.47512 97.4181 2.57916C96.4268 3.77871 95.8399 5.20862 95.7135 6.75932C95.6995 6.9335 95.6938 7.10767 95.691 7.28184C95.691 7.77346 96.1235 8.24261 96.629 8.22013C97.1344 8.19766 97.5669 7.80717 97.5669 7.28184H97.5809Z" fill="#17BADA"/>
</g>
<defs>
<clipPath id="clip0_26_5793">
<rect width="211" height="60" fill="white"/>
</clipPath>
</defs>
</svg>
