<svg width="22" height="22" viewBox="0 0 22 22" fill="none" xmlns="http://www.w3.org/2000/svg">
<g id="Icon / gmail">
<path id="Vector" d="M5.04165 6.875L8.78391 9.7442C9.83539 10.4954 11.2479 10.4954 12.2994 9.7442L16.0416 6.875M2.18659 13.8887C1.71555 11.9917 1.71555 10.0083 2.18659 8.11135C2.80319 5.62818 4.77216 3.70823 7.26966 3.15482L7.68571 3.06263C9.56686 2.64579 11.5164 2.64579 13.3976 3.06263L13.8136 3.15482C16.3111 3.70823 18.2801 5.62819 18.8967 8.11136C19.3677 10.0083 19.3677 11.9917 18.8967 13.8886C18.2801 16.3718 16.3111 18.2918 13.8136 18.8452L13.3976 18.9374C11.5164 19.3542 9.56686 19.3542 7.68571 18.9374L7.26965 18.8452C4.77216 18.2918 2.80319 16.3718 2.18659 13.8887Z" stroke="#807A7A" stroke-width="1.5" stroke-linecap="round"/>
</g>
</svg>
