<svg width="26" height="26" viewBox="0 0 26 26" fill="none" xmlns="http://www.w3.org/2000/svg">
<g clip-path="url(#clip0_126_663)">
<path fill-rule="evenodd" clip-rule="evenodd" d="M4.33329 13C4.33345 11.3322 4.81485 9.6998 5.71973 8.29877C6.62461 6.89774 7.91453 5.78756 9.43472 5.10145C10.9549 4.41534 12.6408 4.18245 14.29 4.43072C15.9393 4.67898 17.4819 5.39786 18.7327 6.5011C19.9836 7.60433 20.8895 9.04505 21.3418 10.6504C21.7941 12.2557 21.7736 13.9575 21.2828 15.5515C20.7919 17.1454 19.8516 18.5639 18.5745 19.6367C17.2975 20.7095 15.7381 21.391 14.0833 21.5995V15.1667H16.25C16.5373 15.1667 16.8128 15.0525 17.016 14.8494C17.2192 14.6462 17.3333 14.3707 17.3333 14.0834C17.3333 13.796 17.2192 13.5205 17.016 13.3173C16.8128 13.1142 16.5373 13 16.25 13H14.0833V10.8334C14.0833 10.546 14.1974 10.2705 14.4006 10.0673C14.6038 9.86416 14.8793 9.75002 15.1666 9.75002H15.7083C15.9956 9.75002 16.2712 9.63588 16.4743 9.43272C16.6775 9.22955 16.7916 8.954 16.7916 8.66669C16.7916 8.37937 16.6775 8.10382 16.4743 7.90065C16.2712 7.69749 15.9956 7.58335 15.7083 7.58335H15.1666C14.3047 7.58335 13.478 7.92576 12.8685 8.53526C12.259 9.14475 11.9166 9.9714 11.9166 10.8334V13H9.74996C9.46264 13 9.18709 13.1142 8.98393 13.3173C8.78076 13.5205 8.66663 13.796 8.66663 14.0834C8.66663 14.3707 8.78076 14.6462 8.98393 14.8494C9.18709 15.0525 9.46264 15.1667 9.74996 15.1667H11.9166V21.5995C9.82222 21.3354 7.89618 20.3161 6.49996 18.7327C5.10374 17.1494 4.33333 15.111 4.33329 13ZM13 23.8334C18.9832 23.8334 23.8333 18.9833 23.8333 13C23.8333 7.01677 18.9832 2.16669 13 2.16669C7.01671 2.16669 2.16663 7.01677 2.16663 13C2.16663 18.9833 7.01671 23.8334 13 23.8334Z" fill="#EF040D"/>
</g>
<defs>
<clipPath id="clip0_126_663">
<rect width="26" height="26" fill="white"/>
</clipPath>
</defs>
</svg>
