<?xml version="1.0" standalone="no"?>
<!DOCTYPE svg PUBLIC "-//W3C//DTD SVG 20010904//EN"
 "http://www.w3.org/TR/2001/REC-SVG-20010904/DTD/svg10.dtd">
<svg version="1.0" xmlns="http://www.w3.org/2000/svg"
 width="225.000000pt" height="225.000000pt" viewBox="0 0 225.000000 225.000000"
 preserveAspectRatio="xMidYMid meet">

<g transform="translate(0.000000,225.000000) scale(0.100000,-0.100000)"
fill="#000000" stroke="none">
<path d="M1407 2240 c-128 -22 -261 -123 -317 -242 -17 -35 -30 -68 -30 -75 0
-7 -17 -15 -37 -18 -152 -23 -268 -63 -383 -131 -318 -190 -508 -572 -461
-929 59 -441 404 -783 844 -835 186 -22 412 23 565 113 35 21 43 55 17 77 -13
11 -29 7 -93 -22 -155 -71 -237 -90 -387 -90 -150 0 -285 33 -407 99 -57 31
-64 65 -22 104 15 13 40 42 55 63 l29 39 0 206 c0 186 -2 209 -20 238 -27 45
-54 56 -143 63 l-78 7 -130 129 -129 129 16 55 c38 128 155 310 250 389 36 29
40 30 49 14 6 -10 68 -78 140 -151 112 -115 136 -135 179 -147 27 -8 61 -15
74 -15 14 0 38 -14 58 -34 l34 -34 0 -160 c0 -154 -1 -160 -25 -193 -59 -80
-75 -172 -42 -235 21 -41 173 -184 214 -201 44 -18 117 -17 156 3 39 20 332
307 355 349 12 21 18 64 22 147 l5 118 90 90 90 90 12 -35 c40 -116 46 -322
14 -457 -23 -98 -55 -175 -112 -269 -40 -67 -43 -93 -9 -104 30 -9 45 3 86 73
100 167 140 314 138 512 -3 200 -50 357 -159 520 l-54 80 24 55 c117 265 -46
569 -331 615 -66 11 -79 11 -147 0z m156 -102 c41 -29 57 -69 57 -141 0 -102
-52 -160 -142 -159 -81 1 -128 60 -128 160 0 71 16 111 57 140 48 34 107 34
156 0z m-255 -292 c24 -35 32 -57 32 -90 l0 -43 -83 -32 c-46 -17 -86 -31 -89
-31 -4 0 -14 23 -23 51 -23 67 -16 185 13 251 12 26 40 68 64 94 l43 47 5
-101 c5 -93 7 -104 38 -146z m499 114 c35 -73 43 -185 18 -259 -9 -28 -19 -51
-23 -51 -3 0 -43 14 -89 31 l-83 32 0 43 c0 33 8 55 33 89 30 44 32 52 35 147
l4 100 39 -38 c22 -22 52 -64 66 -94z m-762 -177 c11 -76 26 -129 50 -176 28
-54 242 -355 289 -405 58 -62 144 -62 202 0 17 18 72 90 123 161 51 70 96 127
99 127 8 0 64 -82 85 -126 l16 -31 -95 -94 c-53 -52 -103 -107 -112 -124 -11
-21 -18 -67 -22 -148 l-5 -118 -166 -164 c-210 -209 -213 -210 -356 -62 -66
67 -73 79 -73 114 0 27 8 51 25 74 52 70 55 87 55 268 0 95 -5 182 -11 198
-13 36 -64 89 -98 102 -14 5 -48 13 -76 16 -47 7 -56 13 -168 123 -65 65 -125
129 -133 144 -13 25 -12 28 16 48 59 42 254 108 322 109 24 1 28 -4 33 -36z
m505 -59 c0 -16 7 -39 15 -50 8 -10 15 -24 15 -30 0 -14 -64 -44 -95 -44 -31
0 -95 30 -95 44 0 6 7 20 15 30 8 11 15 34 15 50 l0 31 65 0 65 0 0 -31z
m-155 -185 c77 -36 175 -18 250 44 28 23 31 24 72 10 l43 -15 -23 -32 c-12
-18 -67 -94 -121 -169 -92 -127 -102 -137 -131 -137 -29 0 -39 10 -131 137
-54 75 -109 151 -121 169 l-23 32 43 15 c40 13 43 13 72 -11 17 -14 48 -33 70
-43z m-882 -708 c16 -6 56 -11 89 -11 98 0 98 1 98 -216 l0 -184 -47 -53 c-27
-30 -53 -62 -60 -73 -11 -18 -19 -12 -95 67 -96 99 -154 194 -197 325 -32 95
-49 226 -43 323 l4 54 112 -111 c61 -61 124 -116 139 -121z"/>
<path d="M1704 306 c-15 -40 21 -80 54 -60 37 24 21 74 -25 74 -13 0 -26 -6
-29 -14z"/>
</g>
</svg>
