<svg width="18" height="22" viewBox="0 0 18 22" fill="none" xmlns="http://www.w3.org/2000/svg">
<path fill-rule="evenodd" clip-rule="evenodd" d="M15.9025 7.68577C15.9025 8.98506 16.2441 9.75088 16.9959 10.6334C17.5656 11.2836 17.7476 12.1182 17.7476 13.0236C17.7476 13.928 17.452 14.7866 16.8599 15.4836C16.0846 16.3192 14.9913 16.8527 13.8754 16.9454C12.2584 17.084 10.6404 17.2007 9.00093 17.2007C7.36042 17.2007 5.74343 17.1309 4.12644 16.9454C3.00958 16.8527 1.91625 16.3192 1.14202 15.4836C0.549836 14.7866 0.253235 13.928 0.253235 13.0236C0.253235 12.1182 0.43631 11.2836 1.00497 10.6334C1.78022 9.75088 2.09932 8.98506 2.09932 7.68577V7.24503C2.09932 5.505 2.53093 4.3672 3.41971 3.25337C4.74112 1.629 6.85927 0.654785 8.95491 0.654785H9.04696C11.1876 0.654785 13.3743 1.67588 14.6732 3.37007C15.5159 4.46098 15.9025 5.55084 15.9025 7.24503V7.68577ZM5.98949 19.3391C5.98949 18.8181 6.46508 18.5795 6.90486 18.4774C7.41931 18.368 10.5541 18.368 11.0685 18.4774C11.5083 18.5795 11.9839 18.8181 11.9839 19.3391C11.9583 19.835 11.6689 20.2747 11.269 20.554C10.7505 20.9603 10.1419 21.2177 9.50575 21.3104C9.15392 21.3563 8.80823 21.3573 8.46867 21.3104C7.83149 21.2177 7.22294 20.9603 6.70543 20.5529C6.3045 20.2747 6.01506 19.835 5.98949 19.3391Z" fill="#6E6E6E"/>
</svg>
