<svg width="313" height="367" viewBox="0 0 313 367" fill="none" xmlns="http://www.w3.org/2000/svg">
<path d="M294.657 208.452H256.066C255.823 208.451 255.587 208.367 255.398 208.214C255.21 208.061 255.079 207.847 255.029 207.609C254.886 206.926 251.431 190.957 250.816 184.002C250.799 183.847 250.818 183.691 250.87 183.545C250.923 183.399 251.008 183.267 251.12 183.159C251.228 183.047 251.359 182.96 251.505 182.906C251.651 182.852 251.807 182.832 251.962 182.847H252.105H298.71H298.844C298.999 182.832 299.155 182.852 299.301 182.906C299.447 182.96 299.579 183.047 299.687 183.159C299.798 183.267 299.883 183.399 299.936 183.545C299.989 183.691 300.007 183.847 299.99 184.002C299.341 190.991 295.887 206.96 295.777 207.609C295.725 207.862 295.582 208.087 295.376 208.242C295.17 208.397 294.914 208.472 294.657 208.452ZM256.925 206.336H293.797C294.488 203.107 296.948 191.328 297.707 184.954H253.049C253.774 191.328 256.234 203.107 256.925 206.336Z" fill="#F1F1F1"/>
<path d="M261.939 183.9H259.824V207.398H261.939V183.9Z" fill="#F1F1F1"/>
<path d="M276.414 183.9H274.299V207.398H276.414V183.9Z" fill="#F1F1F1"/>
<path d="M290.899 183.9H288.784V207.398H290.899V183.9Z" fill="#F1F1F1"/>
<path d="M297.934 189.819H252.788V191.935H297.934V189.819Z" fill="#F1F1F1"/>
<path d="M296.156 198.849H254.473V200.965H296.156V198.849Z" fill="#F1F1F1"/>
<path d="M298.676 177.678H252.055C250.594 177.678 249.409 178.863 249.409 180.326V181.253C249.409 182.715 250.594 183.9 252.055 183.9H298.676C300.137 183.9 301.322 182.715 301.322 181.253V180.326C301.322 178.863 300.137 177.678 298.676 177.678Z" fill="#17BADA"/>
<path d="M298.667 184.954H252.055C251.568 184.954 251.086 184.858 250.636 184.672C250.186 184.486 249.778 184.212 249.433 183.868C249.089 183.523 248.816 183.114 248.63 182.664C248.443 182.214 248.347 181.732 248.347 181.245V180.326C248.347 179.342 248.738 178.398 249.433 177.703C250.129 177.007 251.072 176.616 252.055 176.616H298.667C299.651 176.616 300.594 177.007 301.289 177.703C301.984 178.398 302.375 179.342 302.375 180.326V181.27C302.368 182.249 301.975 183.187 301.28 183.877C300.585 184.567 299.646 184.954 298.667 184.954ZM252.055 178.741C251.633 178.741 251.227 178.909 250.929 179.207C250.63 179.506 250.462 179.911 250.462 180.334V181.27C250.462 181.693 250.63 182.098 250.929 182.397C251.227 182.696 251.633 182.863 252.055 182.863H298.667C299.09 182.863 299.495 182.696 299.793 182.397C300.092 182.098 300.26 181.693 300.26 181.27V180.351C300.26 179.928 300.092 179.523 299.793 179.224C299.495 178.925 299.09 178.757 298.667 178.757L252.055 178.741Z" fill="#17BADA"/>
<path d="M262.512 180.789C262.512 181.113 262.416 181.429 262.236 181.698C262.056 181.967 261.801 182.177 261.502 182.3C261.204 182.424 260.875 182.457 260.558 182.393C260.241 182.33 259.95 182.175 259.721 181.946C259.492 181.717 259.337 181.426 259.274 181.108C259.211 180.791 259.243 180.462 259.367 180.163C259.49 179.864 259.7 179.609 259.969 179.429C260.238 179.249 260.554 179.154 260.877 179.154C261.31 179.154 261.726 179.326 262.033 179.633C262.339 179.939 262.512 180.355 262.512 180.789Z" fill="#FFD855"/>
<path d="M291.472 180.789C291.472 181.113 291.376 181.43 291.196 181.699C291.016 181.968 290.76 182.178 290.461 182.301C290.161 182.425 289.832 182.457 289.515 182.393C289.198 182.329 288.906 182.172 288.678 181.943C288.45 181.713 288.295 181.421 288.233 181.103C288.171 180.785 288.204 180.456 288.329 180.157C288.454 179.859 288.665 179.604 288.935 179.425C289.205 179.246 289.522 179.152 289.845 179.154C290.277 179.156 290.691 179.329 290.996 179.636C291.301 179.942 291.472 180.357 291.472 180.789Z" fill="#FFD855"/>
<path d="M289.854 181.843C289.715 181.844 289.577 181.818 289.448 181.765C289.319 181.713 289.202 181.635 289.104 181.537C289.005 181.44 288.927 181.323 288.873 181.195C288.82 181.066 288.792 180.928 288.792 180.789V169.913C288.792 169.49 288.624 169.085 288.326 168.786C288.027 168.487 287.622 168.32 287.2 168.32H263.523C263.102 168.322 262.699 168.491 262.402 168.789C262.105 169.088 261.939 169.492 261.939 169.913V180.789C261.915 181.054 261.793 181.3 261.598 181.479C261.402 181.658 261.146 181.757 260.881 181.757C260.616 181.757 260.36 181.658 260.165 181.479C259.969 181.3 259.847 181.054 259.824 180.789V169.913C259.824 168.931 260.213 167.988 260.907 167.293C261.6 166.597 262.541 166.206 263.523 166.203H287.191C287.678 166.203 288.16 166.299 288.61 166.486C289.06 166.672 289.468 166.945 289.813 167.29C290.157 167.634 290.43 168.043 290.616 168.493C290.803 168.944 290.899 169.426 290.899 169.913V180.789C290.899 181.067 290.789 181.334 290.593 181.532C290.397 181.729 290.132 181.841 289.854 181.843Z" fill="#323348"/>
<path d="M181.917 194.962H254.473" stroke="#EF040D" stroke-width="2" stroke-miterlimit="10"/>
<path d="M185.372 324.726V254.773" stroke="#EF040D" stroke-width="2" stroke-miterlimit="10"/>
<path d="M191.135 319.077C194.017 315.283 195.929 309.424 195.929 305.748H174.822C174.822 309.424 176.727 315.283 179.608 319.077C171.334 324.557 165.284 340.518 165.284 349.522C165.284 360.483 174.873 365.946 185.953 365.946C197.033 365.946 205.417 360.516 205.417 349.522C205.442 340.518 199.409 324.6 191.135 319.077Z" fill="#17BADA"/>
<path d="M183.686 356.992V353.982C181.813 353.932 179.974 353.465 178.302 352.616L179.254 348.915C180.867 349.802 182.672 350.28 184.512 350.306C186.315 350.306 187.554 349.615 187.554 348.342C187.554 347.069 186.534 346.377 184.184 345.585C180.813 344.446 178.488 342.861 178.488 339.784C178.488 337.002 180.451 334.818 183.838 334.152V331.142H186.939V333.924C188.525 333.953 190.089 334.309 191.531 334.97L190.613 338.553C189.193 337.855 187.635 337.486 186.054 337.474C183.998 337.474 183.333 338.359 183.333 339.253C183.333 340.298 184.436 340.939 187.133 341.976C190.899 343.308 192.416 345.045 192.416 347.878C192.416 350.711 190.427 353.105 186.787 353.738V356.967L183.686 356.992Z" fill="#F1F1F1"/>
<path d="M200.538 303.404C200.538 302.782 200.292 302.186 199.852 301.746C199.413 301.307 198.817 301.06 198.196 301.06H172.573C171.951 301.06 171.356 301.307 170.916 301.746C170.477 302.186 170.23 302.782 170.23 303.404C170.229 303.712 170.289 304.017 170.406 304.302C170.524 304.587 170.696 304.846 170.914 305.064C171.131 305.281 171.39 305.454 171.675 305.571C171.96 305.689 172.265 305.749 172.573 305.748H198.179C198.487 305.749 198.792 305.689 199.077 305.571C199.362 305.454 199.62 305.281 199.838 305.064C200.056 304.846 200.228 304.587 200.346 304.302C200.463 304.017 200.523 303.712 200.522 303.404H200.538Z" fill="#17BADA"/>
<path d="M195.685 308.277C195.835 307.442 195.916 306.596 195.929 305.748H174.822C174.831 306.596 174.913 307.442 175.067 308.277H195.685Z" fill="#BF6E17"/>
<path d="M17.8799 228.147H121.511" stroke="#EF040D" stroke-width="2" stroke-miterlimit="10"/>
<path d="M114.526 135.025V132.133L110.069 131.543C109.781 129.984 109.166 128.504 108.265 127.201L111.004 123.626L108.965 121.577L105.392 124.326C104.089 123.426 102.61 122.811 101.053 122.522L100.463 118.062H97.5729L96.9831 122.522C95.428 122.809 93.9518 123.424 92.6521 124.326L89.0795 121.586L87.032 123.626L89.7704 127.201C88.8686 128.503 88.2565 129.984 87.9757 131.543L83.5099 132.133V135.025L87.9757 135.607C88.2565 137.166 88.8686 138.647 89.7704 139.949L87.032 143.524L89.0795 145.572L92.6521 142.832C93.9505 143.735 95.4275 144.347 96.9831 144.628L97.5729 149.088H100.463L101.053 144.628C102.611 144.346 104.09 143.733 105.392 142.832L108.965 145.572L111.004 143.524L108.265 139.957C109.166 138.654 109.781 137.174 110.069 135.615L114.526 135.025ZM107.853 133.575C107.861 135.324 107.35 137.037 106.385 138.495C105.42 139.954 104.044 141.093 102.431 141.768C100.818 142.443 99.0411 142.624 97.3254 142.288C95.6097 141.952 94.0323 141.114 92.7931 139.88C91.554 138.646 90.7088 137.071 90.3646 135.356C90.0205 133.641 90.1928 131.862 90.8599 130.245C91.527 128.628 92.6588 127.246 94.1119 126.273C95.5649 125.3 97.2739 124.781 99.0221 124.781C101.356 124.783 103.595 125.709 105.249 127.357C106.903 129.004 107.839 131.239 107.853 133.575Z" fill="white"/>
<path d="M99.0221 126.046C97.534 126.046 96.0792 126.487 94.8418 127.315C93.6044 128.142 92.64 129.318 92.0705 130.693C91.501 132.069 91.352 133.583 91.6423 135.044C91.9327 136.504 92.6493 137.846 93.7016 138.899C94.7539 139.951 96.0946 140.669 97.5542 140.959C99.0138 141.25 100.527 141.1 101.902 140.531C103.277 139.961 104.452 138.996 105.278 137.758C106.105 136.519 106.547 135.064 106.547 133.575C106.544 131.579 105.751 129.665 104.34 128.253C102.93 126.842 101.017 126.048 99.0221 126.046ZM99.0221 140.143C97.7236 140.144 96.4537 139.76 95.3732 139.04C94.2927 138.319 93.45 137.294 92.9519 136.094C92.4538 134.894 92.3227 133.573 92.575 132.299C92.8273 131.024 93.4518 129.853 94.3694 128.933C95.287 128.014 96.4566 127.388 97.7301 127.134C99.0036 126.88 100.324 127.009 101.524 127.506C102.724 128.003 103.749 128.845 104.471 129.925C105.192 131.005 105.578 132.275 105.578 133.575C105.578 135.315 104.887 136.984 103.658 138.216C102.429 139.447 100.762 140.14 99.0221 140.143Z" fill="white"/>
<path d="M95.5169 155.479V153.363L92.5847 152.975C92.3696 151.717 91.8742 150.524 91.1354 149.484L92.9302 147.132L91.4388 145.64L89.0879 147.436C88.0448 146.703 86.8542 146.208 85.5996 145.985L85.212 143.06H83.097L82.7094 145.985C81.4489 146.206 80.2523 146.701 79.2042 147.436L76.8534 145.64L75.362 147.132L77.1567 149.484C76.4179 150.524 75.9226 151.717 75.7074 152.975L72.7836 153.363V155.479L75.7074 155.867C75.9288 157.123 76.4299 158.313 77.1736 159.349L75.3788 161.701L76.8702 163.202L79.2042 161.406C80.2435 162.145 81.4358 162.641 82.6926 162.856L83.0802 165.79H85.1951L85.5827 162.856C86.8395 162.641 88.0318 162.145 89.0711 161.406L91.4219 163.21L92.9133 161.71L91.1354 159.349C91.8742 158.309 92.3696 157.116 92.5847 155.858L95.5169 155.479ZM84.1587 160.538C82.9438 160.538 81.7562 160.177 80.7461 159.502C79.736 158.826 78.9487 157.866 78.4837 156.743C78.0188 155.62 77.8972 154.384 78.1342 153.192C78.3712 152 78.9562 150.905 79.8153 150.045C80.6743 149.186 81.7688 148.6 82.9604 148.363C84.1519 148.126 85.387 148.248 86.5094 148.713C87.6318 149.178 88.5911 149.966 89.266 150.977C89.941 151.987 90.3013 153.176 90.3013 154.391C90.3035 155.201 90.1463 156.003 89.8389 156.751C89.5314 157.5 89.0795 158.18 88.5091 158.754C87.9387 159.328 87.261 159.784 86.5145 160.096C85.7681 160.408 84.9676 160.569 84.1587 160.571V160.538Z" fill="#17BADA"/>
<path d="M84.1587 149.585C83.2018 149.584 82.2659 149.866 81.4694 150.397C80.6729 150.928 80.0517 151.683 79.6844 152.567C79.317 153.451 79.22 154.425 79.4057 155.364C79.5914 156.303 80.0513 157.166 80.7274 157.844C81.4034 158.522 82.2652 158.983 83.2036 159.171C84.1421 159.358 85.115 159.263 85.9992 158.897C86.8834 158.531 87.6393 157.911 88.1711 157.114C88.7029 156.318 88.9868 155.382 88.9868 154.425C88.9846 153.144 88.4755 151.915 87.5708 151.008C86.666 150.101 85.4393 149.59 84.1587 149.585ZM84.1587 158.295C83.3934 158.297 82.6449 158.071 82.0078 157.647C81.3706 157.223 80.8736 156.619 80.5796 155.912C80.2856 155.205 80.2078 154.426 80.3561 153.675C80.5043 152.924 80.872 152.234 81.4126 151.692C81.9531 151.149 82.6422 150.78 83.3927 150.63C84.1431 150.48 84.9212 150.556 85.6284 150.849C86.3356 151.141 86.9401 151.637 87.3654 152.274C87.7908 152.911 88.0178 153.659 88.0178 154.425C88.0178 155.45 87.6115 156.433 86.888 157.158C86.1646 157.884 85.183 158.293 84.1587 158.295Z" fill="#17BADA"/>
<path d="M121.57 189.895H30.9065C26.7835 189.895 22.8293 188.256 19.9139 185.339C16.9984 182.422 15.3606 178.465 15.3606 174.34V141.584" stroke="#EF040D" stroke-width="2" stroke-miterlimit="10"/>
<path d="M140.318 180.005V74.7252C140.318 70.5996 138.68 66.643 135.765 63.7258C132.849 60.8086 128.895 59.1697 124.772 59.1697H97.2443" stroke="#EF040D" stroke-width="2" stroke-miterlimit="10"/>
<path d="M115.942 233.332V324.052C115.942 328.177 114.304 332.134 111.388 335.051C108.473 337.968 104.519 339.607 100.396 339.607H63.119" stroke="#EF040D" stroke-width="2" stroke-miterlimit="10"/>
<path d="M172.514 236.519H263.177C265.22 236.519 267.243 236.922 269.13 237.705C271.017 238.488 272.732 239.635 274.176 241.081C275.62 242.528 276.764 244.244 277.545 246.134C278.325 248.023 278.725 250.047 278.723 252.092V263.803" stroke="#EF040D" stroke-width="2" stroke-miterlimit="10"/>
<path d="M267.222 79.2021V135.691C267.219 139.817 265.58 143.774 262.663 146.691C259.746 149.608 255.791 151.246 251.667 151.246H180.636C176.513 151.246 172.559 152.885 169.644 155.803C166.728 158.72 165.09 162.676 165.09 166.802V178.513" stroke="#EF040D" stroke-width="2" stroke-miterlimit="10"/>
<path d="M28.5809 120.506C27.1641 117.655 24.8655 115.336 22.0267 113.896C19.188 112.456 15.9606 111.971 12.8242 112.512C9.68775 113.054 6.80968 114.594 4.61767 116.903C2.42567 119.212 1.03672 122.167 0.657227 125.329H4.33096C4.72129 122.889 5.90991 120.647 7.71046 118.955C9.51101 117.264 11.8217 116.218 14.2802 115.982C16.7388 115.745 19.2062 116.332 21.2956 117.65C23.385 118.968 24.9783 120.942 25.8256 123.263L23.7697 125.329H30.7211V118.373L28.5809 120.506Z" fill="#323348"/>
<path d="M15.3521 138.271C13.0691 138.269 10.8414 137.568 8.96891 136.261C7.09639 134.954 5.66892 133.104 4.87864 130.961L6.95144 128.887H0V135.834L2.12335 133.718C3.54257 136.566 5.84181 138.881 8.67981 140.318C11.5178 141.755 14.7433 142.239 17.8775 141.696C21.0117 141.154 23.8876 139.615 26.0784 137.307C28.2691 135 29.6579 132.047 30.0386 128.887H26.3733C25.9443 131.504 24.601 133.883 22.5828 135.602C20.5645 137.32 18.0022 138.266 15.3521 138.271Z" fill="#17BADA"/>
<path d="M197.362 221.706H111.535L98.8536 258.069H210.034L197.362 221.706Z" fill="#17BADA"/>
<path d="M210.034 258.069H98.8536V261.256H210.034V258.069Z" fill="#323348"/>
<path d="M180.56 227.144H185.936L185.498 225.382H180.215L180.56 227.144Z" fill="#323348"/>
<path d="M186.973 227.144H192.331L191.801 225.382H186.534L186.973 227.144Z" fill="#323348"/>
<path d="M167.753 227.144H173.146L172.876 225.382H167.576L167.753 227.144Z" fill="#323348"/>
<path d="M174.157 227.144H179.541L179.187 225.382H173.895L174.157 227.144Z" fill="#323348"/>
<path d="M189.079 239.765H183.08L184.04 244.571H190.276L189.079 239.765Z" fill="#323348"/>
<path d="M187.217 228.147L188.422 232.953H194.067L192.626 228.147H187.217Z" fill="#323348"/>
<path d="M191.725 250.389L190.528 245.583H184.243L185.195 250.389H191.725Z" fill="#323348"/>
<path d="M199.274 250.389L197.842 245.583H191.565L192.761 250.389H199.274Z" fill="#323348"/>
<path d="M120.062 238.762H126.011L126.971 233.965H121.258L120.062 238.762Z" fill="#323348"/>
<path d="M121.511 232.953H127.173L128.125 228.147H122.708L121.511 232.953Z" fill="#323348"/>
<path d="M161.349 227.144H166.742L166.565 225.382H161.265L161.349 227.144Z" fill="#323348"/>
<path d="M113.094 238.762H119.025L120.222 233.965H114.526L113.094 238.762Z" fill="#323348"/>
<path d="M127.039 238.762H132.996L133.712 233.965H127.999L127.039 238.762Z" fill="#323348"/>
<path d="M111.358 244.571H117.576L118.781 239.765H112.79L111.358 244.571Z" fill="#323348"/>
<path d="M134.015 238.762H139.981L140.461 233.965H134.731L134.015 238.762Z" fill="#323348"/>
<path d="M154.945 227.144H160.346L160.254 225.382H154.945V227.144Z" fill="#323348"/>
<path d="M128.193 232.953H133.864L134.58 228.147H129.153L128.193 232.953Z" fill="#323348"/>
<path d="M141.034 228.147H135.599L134.883 232.953H140.562L141.034 228.147Z" fill="#323348"/>
<path d="M154.945 228.147V232.953H160.633L160.397 228.147H154.945Z" fill="#323348"/>
<path d="M181.917 233.965L182.878 238.762H188.826L187.63 233.965H181.917Z" fill="#323348"/>
<path d="M167.323 232.953L166.843 228.147H161.4L161.644 232.953H167.323Z" fill="#323348"/>
<path d="M167.896 238.762L167.424 233.965H161.695L161.931 238.762H167.896Z" fill="#323348"/>
<path d="M188.666 233.965L189.863 238.762H195.803L194.362 233.965H188.666Z" fill="#323348"/>
<path d="M191.312 244.571H197.539L196.106 239.765H190.115L191.312 244.571Z" fill="#323348"/>
<path d="M154.945 250.389H161.501L161.265 245.583H154.945V250.389Z" fill="#323348"/>
<path d="M184.167 250.389L183.215 245.583H176.912L177.628 250.389H184.167Z" fill="#323348"/>
<path d="M154.945 244.571H161.214L160.97 239.765H154.945V244.571Z" fill="#323348"/>
<path d="M154.945 238.762H160.919L160.683 233.965H154.945V238.762Z" fill="#323348"/>
<path d="M176.617 250.389L175.901 245.583H169.59L170.07 250.389H176.617Z" fill="#323348"/>
<path d="M175.749 244.571L175.033 239.765H169.017L169.489 244.571H175.749Z" fill="#323348"/>
<path d="M183.012 244.571L182.052 239.765H176.044L176.76 244.571H183.012Z" fill="#323348"/>
<path d="M180.763 228.147L181.723 232.953H187.377L186.181 228.147H180.763Z" fill="#323348"/>
<path d="M169.059 250.389L168.579 245.583H162.268L162.512 250.389H169.059Z" fill="#323348"/>
<path d="M175.892 238.762H181.85L180.897 233.965H175.176L175.892 238.762Z" fill="#323348"/>
<path d="M168.478 244.571L167.997 239.765H161.981L162.217 244.571H168.478Z" fill="#323348"/>
<path d="M168.435 233.965L168.916 238.762H174.873L174.157 233.965H168.435Z" fill="#323348"/>
<path d="M167.854 228.147L168.334 232.953H174.013L173.289 228.147H167.854Z" fill="#323348"/>
<path d="M174.308 228.147L175.025 232.953H180.695L179.735 228.147H174.308Z" fill="#323348"/>
<path d="M116.565 227.144H121.916L122.362 225.382H117.096L116.565 227.144Z" fill="#323348"/>
<path d="M120.475 232.953L121.671 228.147H116.262L114.829 232.953H120.475Z" fill="#323348"/>
<path d="M139.298 245.583H132.996L132.28 250.389H138.826L139.298 245.583Z" fill="#323348"/>
<path d="M139.88 239.765H133.864L133.147 244.571H139.399L139.88 239.765Z" fill="#323348"/>
<path d="M146.621 245.583H140.309L139.838 250.389H146.385L146.621 245.583Z" fill="#323348"/>
<path d="M132.844 239.765H126.836L125.884 244.571H132.128L132.844 239.765Z" fill="#323348"/>
<path d="M146.915 239.765H140.891L140.411 244.571H146.671L146.915 239.765Z" fill="#323348"/>
<path d="M124.654 245.583H118.368L117.172 250.389H123.702L124.654 245.583Z" fill="#323348"/>
<path d="M122.96 227.144H128.328L128.682 225.382H123.399L122.96 227.144Z" fill="#323348"/>
<path d="M131.976 245.583H125.682L124.721 250.389H131.26L131.976 245.583Z" fill="#323348"/>
<path d="M116.135 250.389L117.332 245.583H111.054L109.622 250.389H116.135Z" fill="#323348"/>
<path d="M125.808 239.765H119.817L118.613 244.571H124.856L125.808 239.765Z" fill="#323348"/>
<path d="M147.202 233.965H141.472L140.992 238.762H146.958L147.202 233.965Z" fill="#323348"/>
<path d="M142.146 227.144H147.539L147.632 225.382H142.323L142.146 227.144Z" fill="#323348"/>
<path d="M135.751 227.144H141.135L141.312 225.382H136.012L135.751 227.144Z" fill="#323348"/>
<path d="M129.356 227.144H134.731L135.001 225.382H129.71L129.356 227.144Z" fill="#323348"/>
<path d="M153.943 225.382H148.634L148.55 227.144H153.943V225.382Z" fill="#323348"/>
<path d="M153.943 245.583H147.632L147.396 250.389H153.943V245.583Z" fill="#323348"/>
<path d="M147.488 228.147H142.045L141.573 232.953H147.252L147.488 228.147Z" fill="#323348"/>
<path d="M153.943 228.147H148.5L148.264 232.953H153.943V228.147Z" fill="#323348"/>
<path d="M153.943 239.765H147.918L147.682 244.571H153.943V239.765Z" fill="#323348"/>
<path d="M153.943 233.965H148.213L147.969 238.762H153.943V233.965Z" fill="#323348"/>
<path d="M197.539 171.051H111.535V221.706H197.539V171.051Z" fill="white"/>
<path d="M192.888 175.376H116.186V219.058H192.888V175.376Z" fill="#323348"/>
<path d="M155.426 173.496C155.426 173.673 155.373 173.846 155.275 173.993C155.177 174.14 155.038 174.254 154.874 174.322C154.711 174.39 154.532 174.407 154.358 174.373C154.185 174.338 154.026 174.253 153.901 174.128C153.776 174.003 153.691 173.844 153.657 173.671C153.622 173.497 153.64 173.318 153.707 173.154C153.775 172.991 153.889 172.851 154.036 172.753C154.183 172.655 154.356 172.603 154.533 172.603C154.65 172.601 154.767 172.624 154.876 172.668C154.985 172.713 155.083 172.779 155.167 172.862C155.25 172.945 155.316 173.044 155.36 173.153C155.404 173.262 155.427 173.379 155.426 173.496Z" fill="#05293D"/>
<path d="M153.125 207.651V205.122C151.551 205.076 150.006 204.685 148.601 203.975L149.401 200.864C150.755 201.609 152.271 202.011 153.816 202.036C155.333 202.036 156.344 201.446 156.344 200.35C156.344 199.254 155.502 198.663 153.53 198.031C150.682 197.07 148.735 195.738 148.735 193.158C148.735 190.814 150.421 188.942 153.235 188.419V185.89H155.881V188.234C157.209 188.24 158.522 188.528 159.731 189.077L158.965 192.087C157.772 191.497 156.461 191.186 155.131 191.176C153.446 191.176 152.839 191.927 152.839 192.669C152.839 193.554 153.774 194.111 156.032 194.962C159.201 196.083 160.481 197.542 160.481 199.936C160.481 202.331 158.796 204.338 155.746 204.869V207.584L153.125 207.651Z" fill="#28B7C6"/>
<path d="M175.126 208.351L177.08 206.386L167.323 201.951L171.755 211.715L173.718 209.75L176.053 212.094L177.468 210.686L175.126 208.351Z" fill="white"/>
<path d="M28.2439 242.092C28.2439 243.357 22.4721 244.386 15.3606 244.386C8.24903 244.386 2.46881 243.357 2.46881 242.092C2.46881 240.828 8.24061 239.799 15.3606 239.799C22.4805 239.799 28.2439 240.828 28.2439 242.092Z" fill="#28B7C6"/>
<path d="M15.3606 199.026C13.2274 199.025 11.1273 199.553 9.24874 200.565C7.37019 201.576 5.772 203.038 4.59761 204.82C3.42322 206.602 2.70939 208.648 2.5202 210.774C2.331 212.9 2.67236 215.04 3.51363 217.001C3.62316 217.262 3.74955 217.515 3.87594 217.76L15.3606 242.092L26.7356 217.962C27.7804 215.998 28.2991 213.797 28.2412 211.574C28.1834 209.35 27.551 207.179 26.4056 205.272C25.2602 203.365 23.6409 201.788 21.7053 200.693C19.7697 199.599 17.5839 199.024 15.3606 199.026ZM15.3606 220.584C13.6474 220.584 11.9727 220.076 10.5483 219.124C9.12382 218.171 8.0136 216.818 7.358 215.234C6.7024 213.65 6.53086 211.908 6.86508 210.226C7.19931 208.545 8.02427 207.001 9.23566 205.788C10.4471 204.576 11.9905 203.751 13.6707 203.416C15.351 203.082 17.0926 203.254 18.6753 203.91C20.2581 204.566 21.6109 205.677 22.5627 207.102C23.5145 208.527 24.0225 210.203 24.0225 211.917C24.0225 214.216 23.1099 216.42 21.4855 218.046C19.861 219.671 17.6578 220.584 15.3606 220.584Z" fill="#17BADA"/>
<path d="M21.857 211.917C21.857 213.203 21.476 214.46 20.7622 215.529C20.0483 216.598 19.0337 217.431 17.8466 217.923C16.6596 218.415 15.3534 218.544 14.0932 218.293C12.833 218.042 11.6754 217.423 10.7669 216.514C9.85836 215.605 9.23963 214.446 8.98897 213.185C8.7383 211.924 8.86695 210.617 9.35865 209.43C9.85035 208.242 10.683 207.227 11.7513 206.512C12.8197 205.798 14.0757 205.417 15.3606 205.417C16.2137 205.417 17.0585 205.585 17.8466 205.912C18.6348 206.238 19.351 206.717 19.9542 207.321C20.5575 207.924 21.036 208.641 21.3625 209.43C21.689 210.218 21.857 211.064 21.857 211.917Z" fill="white"/>
<path d="M38.8775 300.419L39.838 295.276H34.5718L35.5408 300.419L36.4255 302.51L35.5408 305.199V325.299H36.375H38.0433H38.8775V305.199L37.9928 302.51L38.8775 300.419Z" fill="#17BADA"/>
<path d="M38.7005 333.528H35.7093C33.7827 333.528 32.2209 335.091 32.2209 337.019V363.509C32.2209 365.437 33.7827 367 35.7093 367H38.7005C40.6271 367 42.1889 365.437 42.1889 363.509V337.019C42.1889 335.091 40.6271 333.528 38.7005 333.528Z" fill="#323348"/>
<path d="M42.1889 327.432C42.1889 327.996 41.9652 328.536 41.567 328.935C41.1688 329.333 40.6287 329.557 40.0655 329.557H34.3527C34.0732 329.558 33.7962 329.504 33.5376 329.398C33.279 329.291 33.0439 329.135 32.8458 328.938C32.6478 328.74 32.4906 328.506 32.3834 328.247C32.2761 327.989 32.2209 327.712 32.2209 327.432C32.2209 326.867 32.4455 326.324 32.8453 325.924C33.2451 325.524 33.7873 325.299 34.3527 325.299H40.0655C40.3451 325.299 40.6219 325.355 40.8801 325.462C41.1382 325.569 41.3727 325.726 41.57 325.925C41.7672 326.123 41.9235 326.358 42.0297 326.617C42.1359 326.876 42.19 327.153 42.1889 327.432Z" fill="#323348"/>
<path d="M33.7039 327.93V329.641V335.181H40.7059V329.641V327.93H33.7039Z" fill="#323348"/>
<path d="M42.1889 337.609H32.2209V339.008H42.1889V337.609Z" fill="#17BADA"/>
<path d="M42.1889 361.612H32.2209V363.012H42.1889V361.612Z" fill="#17BADA"/>
<path d="M37.9085 338.309H36.5098V362.304H37.9085V338.309Z" fill="#17BADA"/>
<path d="M62.3691 333.528H59.3779C57.4513 333.528 55.8896 335.091 55.8896 337.019V363.509C55.8896 365.437 57.4513 367 59.3779 367H62.3691C64.2957 367 65.8575 365.437 65.8575 363.509V337.019C65.8575 335.091 64.2957 333.528 62.3691 333.528Z" fill="#323348"/>
<path d="M63.119 362.321C63.1207 362.767 62.99 363.203 62.7434 363.574C62.4968 363.946 62.1456 364.236 61.7341 364.407C61.3227 364.579 60.8697 364.624 60.4325 364.537C59.9953 364.451 59.5936 364.236 59.2785 363.921C58.9634 363.605 58.7489 363.204 58.6624 362.766C58.5758 362.329 58.6211 361.875 58.7924 361.464C58.9638 361.052 59.2534 360.7 59.6247 360.454C59.9959 360.207 60.432 360.076 60.8777 360.078C61.1721 360.078 61.4635 360.136 61.7354 360.249C62.0074 360.361 62.2544 360.527 62.4626 360.735C62.6707 360.943 62.8358 361.19 62.9484 361.462C63.0611 361.734 63.119 362.026 63.119 362.321Z" fill="#FFD855"/>
<path d="M68.697 302.603C68.6977 301.187 68.314 299.797 67.5868 298.582C66.8596 297.368 65.8163 296.374 64.5683 295.706V302.603H57.1787V295.706C55.8147 296.439 54.6987 297.561 53.9718 298.929C53.2448 300.296 52.9396 301.849 53.0948 303.391C53.2499 304.932 53.8584 306.393 54.8433 307.588C55.8282 308.784 57.1453 309.66 58.628 310.106V325.283H63.119V310.106C64.7316 309.622 66.1452 308.631 67.1501 307.279C68.1549 305.927 68.6974 304.287 68.697 302.603Z" fill="#17BADA"/>
<path d="M64.5936 335.729V328.613C64.5936 326.783 63.4308 325.299 61.99 325.299H59.7571C58.3162 325.299 57.1534 326.783 57.1534 328.613V335.729H64.5936Z" fill="#323348"/>
<path d="M289.163 277.225H268.283L264.323 286.474V326.05H268.283H289.163H293.123V286.474L289.163 277.225Z" fill="#F1F1F1"/>
<path d="M281.133 282.705C281.133 283.182 280.992 283.648 280.727 284.045C280.462 284.441 280.086 284.751 279.645 284.933C279.205 285.116 278.72 285.163 278.253 285.07C277.786 284.977 277.356 284.748 277.019 284.41C276.682 284.073 276.453 283.643 276.36 283.176C276.267 282.708 276.314 282.223 276.497 281.782C276.679 281.342 276.988 280.965 277.384 280.7C277.781 280.435 278.246 280.294 278.723 280.294C279.04 280.294 279.353 280.356 279.645 280.477C279.938 280.599 280.203 280.776 280.427 281C280.651 281.224 280.828 281.49 280.949 281.782C281.071 282.075 281.133 282.389 281.133 282.705Z" fill="#FFD855"/>
<path d="M275.673 277.225C275.46 275.909 275.356 274.578 275.361 273.245C275.361 268.018 276.869 263.786 278.732 263.786C280.594 263.786 282.102 268.001 282.102 273.245C282.102 278.49 280.594 282.705 278.732 282.705" stroke="#323348" stroke-width="2" stroke-linecap="round" stroke-linejoin="round"/>
<path d="M277.392 302.139C277.392 305.393 275.336 307.088 273.086 307.088C270.836 307.088 268.873 305.318 268.873 302.4C268.873 299.627 270.558 297.519 273.229 297.519C275.9 297.519 277.392 299.483 277.392 302.139ZM271.561 302.299C271.561 303.926 272.109 305.107 273.162 305.107C274.215 305.107 274.695 304.053 274.695 302.299C274.695 300.723 274.257 299.5 273.137 299.5C272.016 299.5 271.561 300.748 271.561 302.299ZM273.246 313.597L282.169 297.519H284.133L275.218 313.639L273.246 313.597ZM288.59 308.58C288.59 311.835 286.534 313.538 284.284 313.538C282.035 313.538 280.071 311.767 280.071 308.842C280.071 306.068 281.756 303.96 284.427 303.96C287.099 303.96 288.59 305.942 288.59 308.58ZM282.776 308.749C282.776 310.376 283.298 311.548 284.352 311.548C285.405 311.548 285.885 310.494 285.885 308.749C285.885 307.172 285.481 305.95 284.352 305.95C283.223 305.95 282.776 307.206 282.776 308.766V308.749Z" fill="#17BADA"/>
<path d="M283.442 72.238H251.516L245.339 118.685H289.618L283.442 72.238Z" fill="#28B7C6"/>
<path d="M259.251 76.9005C259.251 77.3824 259.108 77.8535 258.84 78.2542C258.573 78.6549 258.192 78.9672 257.747 79.1516C257.302 79.336 256.813 79.3843 256.34 79.2903C255.868 79.1962 255.434 78.9642 255.094 78.6234C254.753 78.2826 254.521 77.8485 254.427 77.3758C254.333 76.9032 254.381 76.4133 254.566 75.968C254.75 75.5228 255.062 75.1422 255.463 74.8745C255.863 74.6068 256.334 74.4639 256.816 74.4639C257.461 74.4661 258.079 74.7235 258.535 75.18C258.991 75.6365 259.248 76.2549 259.251 76.9005Z" fill="#FFD855"/>
<path d="M280.585 76.9005C280.585 77.3824 280.442 77.8535 280.175 78.2542C279.907 78.6549 279.527 78.9672 279.082 79.1516C278.637 79.336 278.147 79.3843 277.675 79.2903C277.203 79.1962 276.769 78.9642 276.428 78.6234C276.088 78.2826 275.856 77.8485 275.762 77.3758C275.668 76.9032 275.716 76.4133 275.9 75.968C276.085 75.5228 276.397 75.1422 276.797 74.8745C277.198 74.6068 277.668 74.4639 278.15 74.4639C278.795 74.4661 279.413 74.7235 279.87 75.18C280.326 75.6365 280.583 76.2549 280.585 76.9005Z" fill="#FFD855"/>
<path d="M271.746 98.0964V82.5493H263.211V98.0964H260.127L267.474 109.023L274.83 98.0964H271.746Z" fill="#F1F1F1"/>
<path d="M278.142 78.0976C277.984 78.0988 277.827 78.0686 277.681 78.0089C277.535 77.9493 277.402 77.8613 277.29 77.75C277.178 77.6387 277.089 77.5063 277.029 77.3605C276.968 77.2147 276.937 77.0584 276.937 76.9004V62.7529C276.937 62.2766 276.748 61.8199 276.411 61.4831C276.075 61.1463 275.618 60.9571 275.142 60.9571H259.815C259.338 60.9571 258.881 61.146 258.543 61.4826C258.205 61.8191 258.014 62.2759 258.012 62.7529V76.9004C257.987 77.2017 257.849 77.4825 257.627 77.6871C257.405 77.8918 257.113 78.0053 256.811 78.0053C256.509 78.0053 256.218 77.8918 255.996 77.6871C255.773 77.4825 255.636 77.2017 255.611 76.9004V62.7529C255.611 61.6349 256.055 60.5626 256.845 59.7721C257.635 58.9815 258.706 58.5374 259.824 58.5374H275.15C276.268 58.5374 277.339 58.9815 278.13 59.7721C278.92 60.5626 279.363 61.6349 279.363 62.7529V76.9004C279.364 77.0598 279.332 77.2176 279.27 77.3645C279.208 77.5114 279.118 77.6445 279.004 77.7561C278.89 77.8676 278.755 77.9552 278.607 78.0139C278.459 78.0725 278.301 78.101 278.142 78.0976Z" fill="#323348"/>
<path d="M190.343 130.034H195.811V127.546C196.642 127.315 197.44 126.981 198.188 126.552L199.949 128.322L203.816 124.452L202.055 122.682C202.484 121.935 202.816 121.136 203.041 120.304H205.569V114.841H203.041C202.814 114.01 202.483 113.211 202.055 112.463L203.816 110.693L199.949 106.823L198.188 108.593C197.44 108.167 196.641 107.835 195.811 107.607V105.077H190.343V107.607C189.512 107.834 188.714 108.165 187.967 108.593L186.214 106.823L182.347 110.693L184.108 112.463C183.68 113.211 183.349 114.01 183.122 114.841H180.594V120.304H183.122C183.347 121.136 183.678 121.935 184.108 122.682L182.347 124.452L186.214 128.322L187.975 126.552C188.721 126.983 189.52 127.315 190.351 127.538L190.343 130.034ZM188.211 117.572C188.21 116.608 188.494 115.664 189.028 114.862C189.563 114.059 190.324 113.433 191.214 113.063C192.104 112.693 193.084 112.596 194.029 112.784C194.975 112.972 195.844 113.436 196.525 114.118C197.207 114.8 197.671 115.669 197.858 116.615C198.046 117.561 197.949 118.542 197.579 119.433C197.21 120.324 196.584 121.085 195.782 121.619C194.98 122.154 194.037 122.439 193.073 122.437C191.784 122.435 190.549 121.922 189.638 121.01C188.726 120.098 188.213 118.862 188.211 117.572Z" fill="#17BADA"/>
<path d="M204.128 108.61H205.763C205.913 109.154 206.128 109.677 206.403 110.17L205.249 111.291L207.776 113.821L208.931 112.666C209.418 112.947 209.939 113.165 210.481 113.315V114.942H214.062V113.315C214.604 113.164 215.125 112.946 215.612 112.666L216.767 113.821L219.295 111.291L218.14 110.136C218.422 109.646 218.64 109.122 218.789 108.576H220.415V105.002H218.789C218.639 104.459 218.421 103.938 218.14 103.45L219.295 102.295L216.767 99.7659L215.612 100.921C215.123 100.647 214.602 100.432 214.062 100.28V98.6445H210.481V100.331C209.94 100.481 209.42 100.696 208.931 100.972L207.776 99.8165L205.249 102.346L206.403 103.501C206.128 103.99 205.913 104.511 205.763 105.052H204.128V108.61ZM212.276 103.636C212.906 103.634 213.523 103.82 214.048 104.169C214.572 104.518 214.982 105.015 215.224 105.597C215.467 106.179 215.531 106.821 215.409 107.439C215.287 108.058 214.984 108.627 214.539 109.073C214.094 109.52 213.527 109.824 212.909 109.948C212.291 110.072 211.65 110.009 211.067 109.768C210.485 109.527 209.987 109.118 209.637 108.594C209.286 108.07 209.099 107.453 209.099 106.823C209.101 105.98 209.437 105.172 210.032 104.575C210.627 103.978 211.433 103.64 212.276 103.636Z" fill="#323348"/>
<path d="M86.7202 75.7623C85.9898 76.093 85.2383 76.3746 84.4705 76.6054C85.2149 75.9336 85.9104 75.2095 86.5517 74.4386L86.1557 71.3022C84.6677 73.559 82.714 75.4708 80.426 76.909V68.3345C82.3177 68.4488 84.1799 68.8584 85.945 69.5486L85.6501 67.2216C83.9644 66.6697 82.2138 66.3409 80.4429 66.2435V60.2827H89.7115C89.6397 61.9535 89.3797 63.6109 88.9363 65.2234L90.7731 66.7326C91.4417 64.6439 91.8243 62.4742 91.9106 60.2827H97.4128C97.2262 63.6115 96.1175 66.8227 94.2109 69.557L95.8203 70.8807C98.4733 67.1347 99.7683 62.5945 99.491 58.0117C99.2136 53.4289 97.3806 49.0782 94.2952 45.6799L93.5537 44.938C90.3089 41.687 86.0459 39.651 81.4793 39.1711H81.3782L80.5356 39.1036H79.9963C79.5497 39.0615 79.0779 39.0362 78.5976 39.0362C78.4555 39.0347 78.3148 39.0635 78.1847 39.1205H78.1089L77.2663 39.1879H77.1652C72.6007 39.6632 68.338 41.6932 65.0907 44.938L64.3492 45.6799C60.9779 49.3894 59.1097 54.2233 59.1097 59.2373C59.1097 64.2512 60.9779 69.0851 64.3492 72.7946L65.0907 73.5365C68.34 76.7784 72.6016 78.8079 77.1652 79.2865H77.2663L78.1089 79.3456H78.1847C78.3129 79.3993 78.4502 79.4279 78.5892 79.4299C79.0694 79.4299 79.5413 79.4299 79.9879 79.3624H80.3418H80.5271L81.3697 79.3034H81.4708C83.3642 79.1028 85.2196 78.6344 86.9814 77.9123L86.7202 75.7623ZM97.3875 58.1749H91.8854C91.7684 55.112 91.0707 52.0992 89.8294 49.2969C90.873 48.6585 91.8571 47.9277 92.7701 47.1132C95.5271 50.1643 97.1567 54.0681 97.3875 58.1749ZM91.2871 45.6462C90.5417 46.3065 89.7411 46.9017 88.8941 47.4252C87.7377 45.338 86.2428 43.4576 84.4705 41.8606C86.9931 42.6187 89.3196 43.9194 91.2871 45.6715V45.6462ZM80.426 41.5824C83.1567 43.2978 85.4067 45.6797 86.9646 48.5044C84.9088 49.4619 82.6899 50.0199 80.426 50.1485V41.5824ZM80.426 52.2394C83.0125 52.1075 85.5484 51.4717 87.8914 50.3677C88.9575 52.8398 89.5657 55.4852 89.6862 58.1749H80.4176L80.426 52.2394ZM74.1487 41.8859C72.3783 43.4847 70.8837 45.3648 69.725 47.4505C68.9073 46.9191 68.1326 46.3242 67.4079 45.6715C69.3561 43.9387 71.6555 42.6473 74.1487 41.8859ZM65.8575 47.1385C66.7675 47.9529 67.7489 48.6837 68.7897 49.3222C67.5612 52.1183 66.875 55.1225 66.7675 58.1749H61.2569C61.5004 54.077 63.132 50.1843 65.8828 47.1385H65.8575ZM61.2569 60.2827H66.7675C66.8848 63.3366 67.5795 66.3405 68.815 69.1354C67.7723 69.7711 66.7907 70.5021 65.8828 71.3191C63.132 68.2733 61.5004 64.3807 61.2569 60.2827ZM67.4079 72.8199C68.152 72.1616 68.9496 71.5666 69.7924 71.0409C70.9307 73.1216 72.4023 75.0014 74.1487 76.6054C71.6555 75.844 69.3561 74.5527 67.4079 72.8199ZM78.269 76.909C75.5194 75.197 73.2516 72.8117 71.6798 69.9785C73.7357 69.0066 75.9575 68.4343 78.2268 68.2923L78.269 76.909ZM78.269 66.2435C75.6751 66.3803 73.1319 67.0158 70.7783 68.1153C69.7057 65.6368 69.1001 62.9814 68.992 60.2827H78.2605L78.269 66.2435ZM78.269 58.2002H69.0004C69.1074 55.5023 69.7101 52.8471 70.7783 50.3677C73.1138 51.4812 75.6438 52.1284 78.2268 52.2731L78.269 58.2002ZM78.269 50.1485C75.9996 50.0064 73.7779 49.4342 71.722 48.4622C73.2833 45.6397 75.5362 43.2606 78.269 41.5487V50.1485Z" fill="#323348"/>
<path d="M97.0589 73.7305L86.7876 65.2656L88.456 78.4773L91.4809 76.7994L94.312 81.9256L96.8567 80.5176L94.034 75.3999L97.0589 73.7305Z" fill="white"/>
<path d="M247.657 301.642C247.657 304.76 246.732 307.809 245 310.402C243.269 312.995 240.807 315.015 237.928 316.208C235.048 317.402 231.88 317.713 228.823 317.104C225.766 316.495 222.959 314.993 220.755 312.787C218.552 310.581 217.052 307.771 216.445 304.712C215.838 301.653 216.151 298.483 217.345 295.602C218.539 292.721 220.56 290.26 223.152 288.528C225.744 286.797 228.792 285.874 231.908 285.875C233.977 285.875 236.026 286.283 237.937 287.076C239.848 287.868 241.584 289.029 243.047 290.494C244.509 291.958 245.669 293.696 246.46 295.609C247.251 297.521 247.658 299.571 247.657 301.642Z" fill="white"/>
<path d="M233.147 305.984C231.984 305.891 231.462 305.317 230.619 304.761C230.122 307.392 229.507 309.904 227.704 311.219C227.139 307.248 228.546 304.272 229.161 301.102C228.066 299.264 229.296 295.554 231.597 296.473C234.428 297.595 229.145 303.311 232.692 304.061C236.399 304.812 237.916 297.628 235.616 295.293C232.288 291.92 225.943 295.217 226.726 300.048C226.912 301.228 228.133 301.582 227.215 303.21C225.083 302.746 224.451 301.068 224.536 298.825C224.662 295.166 227.822 292.603 230.99 292.249C234.992 291.802 238.75 293.716 239.264 297.485C239.854 301.743 237.461 306.346 233.181 306.017L233.147 305.984Z" fill="#28B7C6"/>
<path d="M63.119 284.315C72.482 284.315 80.0721 276.721 80.0721 267.352C80.0721 257.983 72.482 250.388 63.119 250.388C53.7561 250.388 46.166 257.983 46.166 267.352C46.166 276.721 53.7561 284.315 63.119 284.315Z" fill="white"/>
<path d="M70.0284 258.634H56.2013C55.7294 258.647 55.2802 258.84 54.9464 259.174C54.6125 259.508 54.4193 259.958 54.4066 260.43V274.266C54.4193 274.738 54.6125 275.187 54.9464 275.521C55.2802 275.855 55.7294 276.049 56.2013 276.061H70.0284C70.501 276.051 70.9513 275.858 71.2856 275.524C71.6198 275.189 71.8124 274.739 71.8231 274.266V260.43C71.8103 259.958 71.6171 259.508 71.2833 259.174C70.9494 258.84 70.5003 258.647 70.0284 258.634ZM63.1191 263.895C63.804 263.895 64.4735 264.099 65.043 264.479C65.6125 264.86 66.0564 265.401 66.3185 266.034C66.5806 266.668 66.6492 267.364 66.5156 268.037C66.382 268.709 66.0521 269.326 65.5678 269.811C65.0835 270.295 64.4664 270.625 63.7947 270.759C63.1229 270.893 62.4266 270.824 61.7938 270.562C61.161 270.3 60.6201 269.856 60.2396 269.286C59.8591 268.716 59.656 268.046 59.656 267.361C59.656 266.441 60.0208 265.56 60.6703 264.91C61.3197 264.26 62.2006 263.895 63.1191 263.895ZM56.631 274.207C56.3783 274.207 56.2687 274.105 56.2687 273.844V266.425H58.0213C57.9472 266.719 57.9159 267.023 57.9286 267.327C57.9286 268.704 58.4755 270.025 59.4489 270.999C60.4223 271.973 61.7425 272.52 63.1191 272.52C64.4956 272.52 65.8158 271.973 66.7892 270.999C67.7626 270.025 68.3095 268.704 68.3095 267.327C68.3339 267.025 68.3141 266.721 68.2505 266.425H69.9357V273.844C69.9357 274.105 69.8346 274.207 69.5734 274.207H56.631ZM69.9357 262.588C69.9357 262.85 69.8346 262.993 69.5734 262.993H67.8882C67.8334 263 67.7778 262.994 67.7256 262.976C67.6735 262.958 67.626 262.929 67.587 262.89C67.548 262.851 67.5184 262.803 67.5005 262.751C67.4826 262.699 67.4769 262.643 67.4837 262.588V260.86C67.4837 260.607 67.627 260.498 67.8882 260.498H69.5734C69.8346 260.498 69.9357 260.607 69.9357 260.86V262.588Z" fill="#323348"/>
<path d="M219.05 159.062L224.906 164.096L216.396 169.331L210.641 164.677L219.05 159.062Z" fill="#17BADA"/>
<path d="M224.906 174.66L216.396 169.331L210.641 174.129L218.958 179.744L224.906 174.66Z" fill="#17BADA"/>
<path d="M230.712 159.062L224.864 164.096L233.374 169.331L239.129 164.677L230.712 159.062Z" fill="#17BADA"/>
<path d="M224.864 174.66L233.374 169.331L239.129 174.129L230.805 179.744L224.864 174.66Z" fill="#17BADA"/>
<path d="M230.889 181.185L224.991 176.186L218.915 181.185L216.017 179.373V181.287L224.856 186.632L233.888 181.287V179.213L230.889 181.185Z" fill="#17BADA"/>
<path d="M144.876 95.7862H135.751L140.318 86.6553L144.876 95.7862Z" fill="#17BADA"/>
<path d="M249.898 146.905V156.027L240.781 151.466L249.898 146.905Z" fill="#323348"/>
<path d="M229.33 199.523V190.401L238.447 194.962L229.33 199.523Z" fill="#28B7C6"/>
<path d="M247.572 231.958V241.081L238.447 236.519L247.572 231.958Z" fill="#17BADA"/>
<path d="M180.712 275.733H189.829L185.271 284.855L180.712 275.733Z" fill="#323348"/>
<path d="M120.5 301.279H111.383L115.942 292.148L120.5 301.279Z" fill="#28B7C6"/>
<path d="M63.119 232.708V223.586L72.236 228.147L63.119 232.708Z" fill="white"/>
<path d="M45.9216 185.334V194.456L36.8047 189.895L45.9216 185.334Z" fill="#323348"/>
<path d="M118.174 105.811C118.174 106.578 117.947 107.328 117.521 107.966C117.095 108.603 116.49 109.101 115.782 109.394C115.073 109.688 114.294 109.764 113.542 109.615C112.79 109.465 112.1 109.096 111.558 108.553C111.016 108.011 110.647 107.32 110.497 106.568C110.347 105.815 110.424 105.035 110.718 104.327C111.011 103.618 111.508 103.012 112.145 102.586C112.783 102.16 113.532 101.933 114.298 101.933C115.326 101.933 116.312 102.341 117.039 103.069C117.766 103.796 118.174 104.782 118.174 105.811Z" fill="#323348"/>
<path d="M95.3737 321.278C95.3754 322.047 95.1488 322.8 94.7226 323.44C94.2964 324.081 93.6898 324.58 92.9797 324.875C92.2696 325.171 91.4879 325.248 90.7336 325.099C89.9793 324.949 89.2864 324.579 88.7427 324.035C88.1989 323.49 87.8288 322.797 87.6792 322.042C87.5296 321.288 87.6072 320.505 87.9022 319.795C88.1973 319.084 88.6965 318.477 89.3365 318.051C89.9766 317.625 90.7288 317.398 91.4977 317.399C92.5257 317.399 93.5116 317.808 94.2385 318.535C94.9653 319.263 95.3737 320.249 95.3737 321.278Z" fill="white"/>
<path d="M155.122 282.705C155.122 283.472 154.895 284.222 154.469 284.86C154.043 285.498 153.438 285.995 152.73 286.288C152.021 286.582 151.242 286.659 150.49 286.509C149.738 286.359 149.048 285.99 148.506 285.448C147.964 284.905 147.594 284.214 147.445 283.462C147.295 282.71 147.372 281.93 147.665 281.221C147.959 280.512 148.456 279.907 149.093 279.481C149.73 279.054 150.48 278.827 151.246 278.827C152.274 278.827 153.26 279.236 153.987 279.963C154.714 280.69 155.122 281.677 155.122 282.705Z" fill="#323348"/>
<path d="M221.654 135.742C221.662 136.085 221.568 136.423 221.384 136.713C221.199 137.003 220.932 137.231 220.617 137.368C220.303 137.506 219.954 137.546 219.616 137.484C219.278 137.422 218.967 137.261 218.721 137.021C218.475 136.781 218.306 136.473 218.236 136.137C218.166 135.8 218.198 135.451 218.327 135.132C218.457 134.814 218.678 134.542 218.963 134.35C219.248 134.158 219.583 134.056 219.927 134.055C220.378 134.055 220.811 134.232 221.133 134.547C221.456 134.862 221.643 135.291 221.654 135.742Z" fill="#323348"/>
<path d="M97.2443 216.158C97.2441 216.504 97.1409 216.841 96.9479 217.128C96.7548 217.415 96.4807 217.637 96.1606 217.767C95.8404 217.897 95.4889 217.928 95.1509 217.857C94.8129 217.786 94.5038 217.615 94.2632 217.367C94.0225 217.119 93.8613 216.805 93.8002 216.465C93.739 216.125 93.7807 215.774 93.9199 215.458C94.059 215.141 94.2893 214.874 94.5814 214.689C94.8734 214.504 95.2138 214.411 95.5591 214.421C96.0113 214.432 96.4412 214.62 96.7563 214.945C97.0714 215.27 97.2466 215.705 97.2443 216.158Z" fill="#323348"/>
<path d="M43.9162 282.705C43.9079 283.037 43.8021 283.359 43.612 283.63C43.4218 283.902 43.1558 284.112 42.8473 284.233C42.5387 284.354 42.2013 284.381 41.8772 284.312C41.5531 284.242 41.2568 284.078 41.0253 283.841C40.7938 283.603 40.6375 283.303 40.5758 282.977C40.5141 282.651 40.5498 282.314 40.6785 282.008C40.8072 281.703 41.0232 281.442 41.2993 281.258C41.5755 281.075 41.8995 280.977 42.231 280.977C42.6818 280.988 43.1104 281.175 43.4253 281.498C43.7402 281.821 43.9164 282.254 43.9162 282.705Z" fill="#323348"/>
<path d="M250.075 216.158C250.073 216.499 249.97 216.833 249.78 217.116C249.589 217.399 249.318 217.619 249.003 217.749C248.687 217.878 248.34 217.911 248.005 217.844C247.671 217.776 247.364 217.611 247.123 217.369C246.882 217.127 246.719 216.819 246.653 216.484C246.587 216.149 246.621 215.801 246.752 215.486C246.883 215.171 247.105 214.901 247.389 214.712C247.673 214.522 248.006 214.421 248.347 214.421C248.575 214.421 248.8 214.466 249.01 214.554C249.221 214.641 249.411 214.769 249.572 214.93C249.732 215.092 249.859 215.283 249.946 215.494C250.032 215.705 250.076 215.93 250.075 216.158Z" fill="#323348"/>
<path d="M76.1119 208.452C76.1119 209.219 75.8846 209.969 75.4587 210.607C75.0328 211.244 74.4275 211.741 73.7192 212.035C73.011 212.328 72.2317 212.405 71.4798 212.256C70.7279 212.106 70.0373 211.737 69.4953 211.194C68.9532 210.652 68.584 209.961 68.4345 209.208C68.2849 208.456 68.3617 207.676 68.6551 206.968C68.9484 206.259 69.4452 205.653 70.0826 205.227C70.72 204.801 71.4694 204.573 72.236 204.573C73.2639 204.573 74.2498 204.982 74.9767 205.709C75.7036 206.437 76.1119 207.423 76.1119 208.452Z" fill="white"/>
<path d="M254.372 270.463C254.372 271.23 254.145 271.98 253.719 272.618C253.293 273.256 252.688 273.753 251.979 274.046C251.271 274.34 250.492 274.417 249.74 274.267C248.988 274.117 248.297 273.748 247.755 273.205C247.213 272.663 246.844 271.972 246.695 271.22C246.545 270.467 246.622 269.688 246.915 268.979C247.209 268.27 247.705 267.664 248.343 267.238C248.98 266.812 249.729 266.585 250.496 266.585C251.005 266.585 251.509 266.685 251.979 266.88C252.45 267.075 252.877 267.361 253.237 267.721C253.597 268.081 253.882 268.508 254.077 268.979C254.272 269.449 254.372 269.954 254.372 270.463Z" fill="white"/>
<path d="M166.152 133.575C166.154 134.344 165.927 135.096 165.501 135.737C165.076 136.377 164.47 136.876 163.76 137.172C163.05 137.467 162.269 137.545 161.515 137.396C160.761 137.247 160.068 136.878 159.524 136.335C158.98 135.791 158.609 135.099 158.458 134.345C158.308 133.59 158.384 132.809 158.678 132.098C158.972 131.387 159.47 130.78 160.109 130.352C160.748 129.925 161.499 129.697 162.268 129.697C162.777 129.695 163.282 129.795 163.753 129.989C164.225 130.184 164.653 130.469 165.014 130.829C165.375 131.19 165.661 131.618 165.856 132.089C166.051 132.56 166.152 133.065 166.152 133.575Z" fill="white"/>
<path d="M54.4319 143.65C54.4319 143.984 54.333 144.31 54.1479 144.587C53.9627 144.864 53.6995 145.08 53.3916 145.208C53.0836 145.336 52.7448 145.369 52.4179 145.304C52.091 145.239 51.7907 145.078 51.555 144.842C51.3194 144.607 51.1589 144.306 51.0938 143.979C51.0288 143.652 51.0622 143.313 51.1897 143.005C51.3173 142.697 51.5333 142.433 51.8104 142.248C52.0875 142.063 52.4134 141.964 52.7467 141.964C53.1936 141.964 53.6222 142.142 53.9383 142.458C54.2543 142.774 54.4319 143.203 54.4319 143.65Z" fill="white"/>
<path d="M260.978 128.862C260.978 129.204 260.877 129.538 260.687 129.822C260.497 130.106 260.227 130.328 259.912 130.459C259.596 130.589 259.249 130.624 258.914 130.557C258.579 130.49 258.271 130.326 258.029 130.084C257.788 129.842 257.623 129.534 257.557 129.199C257.49 128.864 257.524 128.516 257.655 128.2C257.786 127.884 258.007 127.615 258.291 127.425C258.575 127.235 258.909 127.133 259.251 127.133C259.477 127.133 259.702 127.178 259.912 127.265C260.121 127.352 260.312 127.479 260.472 127.64C260.632 127.8 260.76 127.991 260.847 128.2C260.933 128.41 260.978 128.635 260.978 128.862Z" fill="white"/>
<path d="M285.54 149.586C285.548 149.929 285.454 150.267 285.269 150.557C285.085 150.847 284.818 151.075 284.503 151.212C284.188 151.35 283.84 151.39 283.502 151.328C283.164 151.266 282.852 151.105 282.607 150.865C282.361 150.625 282.192 150.317 282.122 149.981C282.052 149.644 282.083 149.295 282.213 148.977C282.342 148.658 282.564 148.386 282.849 148.194C283.133 148.002 283.469 147.9 283.812 147.899C284.037 147.894 284.261 147.933 284.47 148.016C284.68 148.098 284.87 148.221 285.031 148.378C285.192 148.535 285.32 148.723 285.408 148.93C285.495 149.138 285.54 149.361 285.54 149.586Z" fill="#323348"/>
<path d="M229.945 83.3336C229.945 83.8972 229.778 84.4482 229.465 84.9168C229.152 85.3855 228.707 85.7507 228.187 85.9664C227.667 86.1821 227.094 86.2386 226.542 86.1286C225.989 86.0186 225.482 85.7472 225.083 85.3487C224.685 84.9501 224.414 84.4424 224.304 83.8896C224.194 83.3368 224.25 82.7638 224.466 82.2431C224.681 81.7224 225.047 81.2773 225.515 80.9642C225.983 80.651 226.534 80.4839 227.097 80.4839C227.852 80.4839 228.577 80.7841 229.111 81.3186C229.645 81.853 229.945 82.5778 229.945 83.3336Z" fill="#323348"/>
<path d="M303.824 146.904C303.824 147.673 303.596 148.425 303.169 149.065C302.742 149.704 302.135 150.202 301.424 150.496C300.714 150.79 299.933 150.866 299.179 150.716C298.425 150.565 297.733 150.194 297.19 149.65C296.647 149.105 296.278 148.412 296.129 147.657C295.98 146.903 296.058 146.121 296.353 145.411C296.649 144.701 297.148 144.095 297.788 143.669C298.428 143.242 299.18 143.016 299.948 143.018C300.458 143.018 300.963 143.118 301.433 143.314C301.904 143.509 302.332 143.795 302.692 144.156C303.052 144.518 303.337 144.946 303.531 145.418C303.726 145.889 303.825 146.394 303.824 146.904Z" fill="#17BADA"/>
<path d="M127.544 159.062C127.554 159.408 127.461 159.748 127.276 160.041C127.092 160.333 126.825 160.563 126.508 160.702C126.192 160.842 125.842 160.883 125.502 160.822C125.162 160.761 124.848 160.6 124.6 160.359C124.352 160.118 124.182 159.809 124.111 159.471C124.039 159.132 124.071 158.781 124.2 158.46C124.33 158.14 124.553 157.866 124.839 157.673C125.125 157.479 125.463 157.376 125.808 157.376C126.26 157.376 126.694 157.552 127.018 157.867C127.342 158.182 127.531 158.61 127.544 159.062Z" fill="#17BADA"/>
<path d="M165.731 311.219C165.731 311.561 165.629 311.895 165.44 312.18C165.25 312.464 164.98 312.685 164.664 312.816C164.349 312.947 164.001 312.981 163.666 312.915C163.331 312.848 163.023 312.683 162.782 312.442C162.54 312.2 162.376 311.892 162.309 311.557C162.243 311.221 162.277 310.874 162.407 310.558C162.538 310.242 162.76 309.972 163.044 309.782C163.328 309.592 163.662 309.491 164.003 309.491C164.23 309.491 164.455 309.536 164.664 309.623C164.874 309.709 165.064 309.837 165.225 309.997C165.385 310.158 165.512 310.348 165.599 310.558C165.686 310.768 165.731 310.992 165.731 311.219Z" fill="#17BADA"/>
<path d="M217.887 246.232C217.889 246.576 217.789 246.912 217.599 247.199C217.409 247.486 217.139 247.71 216.822 247.842C216.505 247.975 216.156 248.011 215.818 247.945C215.481 247.879 215.171 247.714 214.927 247.471C214.684 247.229 214.518 246.919 214.45 246.582C214.382 246.245 214.416 245.895 214.547 245.578C214.678 245.26 214.901 244.988 215.187 244.797C215.472 244.606 215.808 244.503 216.152 244.503C216.379 244.502 216.605 244.546 216.815 244.633C217.026 244.719 217.217 244.846 217.379 245.007C217.54 245.167 217.668 245.358 217.755 245.568C217.843 245.779 217.888 246.004 217.887 246.232Z" fill="#17BADA"/>
<path d="M48.7696 244.386C48.7696 244.949 48.6025 245.5 48.2896 245.969C47.9767 246.437 47.5319 246.803 47.0115 247.018C46.4911 247.234 45.9184 247.291 45.366 247.181C44.8135 247.071 44.3061 246.799 43.9078 246.401C43.5095 246.002 43.2382 245.494 43.1283 244.942C43.0184 244.389 43.0748 243.816 43.2904 243.295C43.506 242.774 43.871 242.329 44.3393 242.016C44.8077 241.703 45.3583 241.536 45.9216 241.536C46.6769 241.536 47.4013 241.836 47.9354 242.371C48.4695 242.905 48.7696 243.63 48.7696 244.386Z" fill="#17BADA"/>
<path d="M44.6577 154.931C44.6594 156.034 44.3339 157.113 43.7226 158.03C43.1112 158.948 42.2415 159.664 41.2234 160.087C40.2054 160.509 39.0848 160.621 38.0036 160.406C36.9225 160.191 35.9293 159.66 35.1498 158.88C34.3704 158.1 33.8398 157.106 33.6252 156.025C33.4105 154.943 33.5215 153.822 33.9441 152.803C34.3667 151.784 35.0819 150.914 35.9991 150.302C36.9163 149.69 37.9943 149.365 39.0966 149.366C40.5715 149.366 41.986 149.953 43.0289 150.996C44.0718 152.04 44.6577 153.455 44.6577 154.931Z" fill="white"/>
<path d="M39.5347 159.779H38.7595C33.7039 159.779 29.651 165.386 29.651 172.316H48.6432C48.6432 165.386 44.565 159.779 39.5347 159.779Z" fill="white"/>
<path d="M53.0837 169.778C53.0837 170.474 52.8776 171.153 52.4915 171.732C52.1055 172.31 51.5567 172.76 50.9147 173.026C50.2726 173.293 49.5662 173.362 48.8846 173.226C48.203 173.091 47.5769 172.756 47.0855 172.264C46.5942 171.773 46.2595 171.146 46.1239 170.464C45.9884 169.782 46.0579 169.075 46.3239 168.433C46.5898 167.79 47.0402 167.241 47.618 166.855C48.1958 166.469 48.8751 166.262 49.5701 166.262C50.5013 166.265 51.3937 166.636 52.0521 167.295C52.7106 167.954 53.0815 168.846 53.0837 169.778Z" fill="#17BADA"/>
<path d="M51.5586 169.374H49.9998V167.822H49.1909V169.374H47.6321V170.183H49.1909V171.743H49.9998V170.183H51.5586V169.374Z" fill="white"/>
<path d="M311.424 224.817H288.944C288.524 224.817 288.121 224.984 287.824 225.281C287.527 225.578 287.36 225.982 287.36 226.402V239.234C287.362 239.653 287.53 240.054 287.827 240.35C288.124 240.645 288.525 240.811 288.944 240.811H304.439L308.121 244.504V240.811H311.424C311.842 240.811 312.243 240.645 312.539 240.349C312.834 240.053 313 239.652 313 239.234V226.402C313 225.983 312.834 225.581 312.539 225.284C312.244 224.987 311.843 224.819 311.424 224.817Z" fill="#323348"/>
<path d="M297.328 233.366C297.329 233.546 297.277 233.723 297.178 233.874C297.079 234.025 296.938 234.143 296.772 234.213C296.606 234.283 296.422 234.303 296.245 234.269C296.068 234.234 295.905 234.148 295.777 234.021C295.649 233.894 295.562 233.732 295.526 233.555C295.49 233.378 295.508 233.195 295.576 233.028C295.645 232.861 295.761 232.718 295.911 232.618C296.061 232.518 296.237 232.464 296.418 232.464C296.658 232.464 296.888 232.559 297.058 232.728C297.229 232.897 297.325 233.126 297.328 233.366Z" fill="#17BADA"/>
<path d="M301.086 233.366C301.087 233.547 301.035 233.724 300.936 233.875C300.836 234.026 300.694 234.144 300.528 234.214C300.361 234.284 300.178 234.303 300 234.268C299.823 234.233 299.66 234.146 299.532 234.018C299.404 233.89 299.318 233.727 299.283 233.55C299.248 233.373 299.267 233.189 299.337 233.022C299.406 232.855 299.524 232.713 299.675 232.614C299.826 232.514 300.003 232.462 300.184 232.464C300.423 232.464 300.653 232.559 300.822 232.728C300.991 232.897 301.086 233.127 301.086 233.366Z" fill="#17BADA"/>
<path d="M304.852 233.366C304.854 233.546 304.802 233.723 304.703 233.874C304.604 234.025 304.462 234.143 304.296 234.213C304.13 234.283 303.947 234.303 303.77 234.269C303.593 234.234 303.43 234.148 303.302 234.021C303.174 233.894 303.086 233.732 303.05 233.555C303.014 233.378 303.032 233.195 303.101 233.028C303.169 232.861 303.286 232.718 303.436 232.618C303.585 232.518 303.762 232.464 303.942 232.464C304.182 232.464 304.412 232.559 304.583 232.728C304.753 232.897 304.85 233.126 304.852 233.366Z" fill="#17BADA"/>
<path d="M180.156 79.4888V101.933H140.318" stroke="white" stroke-width="2" stroke-miterlimit="10"/>
<path d="M63.1527 189.895V126.046" stroke="white" stroke-width="2" stroke-miterlimit="10"/>
<path d="M80.3502 112.303C80.3502 115.708 79.3405 119.037 77.4489 121.868C75.5574 124.698 72.869 126.904 69.7241 128.205C66.5793 129.506 63.1193 129.845 59.7822 129.177C56.445 128.51 53.3808 126.867 50.9774 124.456C48.574 122.045 46.9394 118.975 46.2806 115.634C45.6218 112.293 45.9684 108.832 47.2765 105.689C48.5846 102.545 50.7954 99.8603 53.629 97.9746C56.4627 96.0888 59.7918 95.0867 63.1949 95.095C67.7486 95.1062 72.112 96.9241 75.3281 100.15C78.5441 103.376 80.3502 107.746 80.3502 112.303Z" fill="#28B7C6"/>
<path fill-rule="evenodd" clip-rule="evenodd" d="M73.5672 108.205C73.5434 107.366 73.196 106.568 72.5976 105.978C71.9993 105.389 71.1964 105.054 70.3569 105.044H55.8558C55.0273 105.059 54.2378 105.399 53.6566 105.99C53.0754 106.581 52.7487 107.376 52.7466 108.205V116.51C52.7499 116.915 52.833 117.316 52.991 117.689C53.1491 118.062 53.379 118.4 53.6677 118.685C53.9565 118.969 54.2983 119.193 54.6737 119.345C55.0492 119.497 55.4508 119.574 55.8558 119.571H70.3569C71.1858 119.582 71.9862 119.268 72.5864 118.696C73.1865 118.124 73.5387 117.339 73.5672 116.51V108.205ZM60.9283 115.861V108.062L66.8265 111.957L60.9283 115.861Z" fill="#323348"/>
<path d="M200.943 62.8288C200.943 66.9343 199.726 70.9475 197.447 74.3611C195.167 77.7746 191.927 80.4352 188.137 82.0063C184.346 83.5773 180.175 83.9884 176.151 83.1875C172.127 82.3865 168.431 80.4096 165.529 77.5066C162.628 74.6036 160.652 70.905 159.852 66.8784C159.051 62.8518 159.462 58.6782 161.032 54.8852C162.603 51.0923 165.261 47.8504 168.673 45.5696C172.084 43.2887 176.095 42.0713 180.198 42.0713C185.7 42.0713 190.976 44.2582 194.867 48.151C198.757 52.0438 200.943 57.3236 200.943 62.8288Z" fill="#17BADA"/>
<path d="M185.447 63.0144H182.001V75.3576H176.861V63.0144H174.418V58.6555H176.853V55.8395C176.853 53.816 177.814 50.6543 182.027 50.6543H185.827V54.8699H183.071C182.916 54.8638 182.761 54.8927 182.618 54.9542C182.475 55.0158 182.347 55.1086 182.245 55.2257C182.142 55.3429 182.067 55.4815 182.025 55.6315C181.983 55.7814 181.975 55.9389 182.001 56.0924V58.6217H185.902L185.447 63.0144Z" fill="white"/>
<path d="M115.942 269.603H76.1119" stroke="white" stroke-width="2" stroke-miterlimit="10"/>
<path d="M231.908 287.823V236.519" stroke="#EF040D" stroke-width="2" stroke-miterlimit="10"/>
</svg>
