<svg width="375" height="290" viewBox="0 0 375 290" fill="none" xmlns="http://www.w3.org/2000/svg">
<g clip-path="url(#clip0_26_5434)">
<path d="M346.886 78.365V53.2431H339.931V78.365H326.675V134.128H303.261V53.2431H297.849V32.3958L271.609 45.521V53.2431H200.477V85.8784L138.979 67.2032V119.264L44.9263 139.129V67.2032H-1V258.2H44.9263H138.979H142.26H200.477H205.965H284.887H303.261H326.675H332.797H385V78.365H346.886Z" fill="url(#paint0_linear_26_5434)"/>
<path d="M35.5002 95.3628H-1V99.8616H35.5002V95.3628Z" fill="#CFDCF4" fill-opacity="0.2"/>
<path d="M35.5002 108.967H-1V113.466H35.5002V108.967Z" fill="#CFDCF4" fill-opacity="0.2"/>
<path d="M35.5002 123.329H-1V127.828H35.5002V123.329Z" fill="#CFDCF4" fill-opacity="0.2"/>
<path d="M35.5002 137.328H-1V141.827H35.5002V137.328Z" fill="#CFDCF4" fill-opacity="0.2"/>
<path d="M35.5002 153.344H-1V157.843H35.5002V153.344Z" fill="#CFDCF4" fill-opacity="0.2"/>
<path d="M35.5002 166.949H-1V171.447H35.5002V166.949Z" fill="#CFDCF4" fill-opacity="0.2"/>
<path d="M35.5002 181.311H-1V185.81H35.5002V181.311Z" fill="#CFDCF4" fill-opacity="0.2"/>
<path d="M35.5002 195.31H-1V199.808H35.5002V195.31Z" fill="#CFDCF4" fill-opacity="0.2"/>
<path d="M194.393 109.462H149.872V113.961H194.393V109.462Z" fill="#CFDCF4" fill-opacity="0.2"/>
<path d="M194.393 123.059H149.872V127.558H194.393V123.059Z" fill="#CFDCF4" fill-opacity="0.2"/>
<path d="M194.393 137.429H149.872V141.927H194.393V137.429Z" fill="#CFDCF4" fill-opacity="0.2"/>
<path d="M194.393 151.427H149.872V155.926H194.393V151.427Z" fill="#CFDCF4" fill-opacity="0.2"/>
<path d="M194.393 167.444H149.872V171.942H194.393V167.444Z" fill="#CFDCF4" fill-opacity="0.2"/>
<path d="M194.393 181.04H149.872V185.539H194.393V181.04Z" fill="#CFDCF4" fill-opacity="0.2"/>
<path d="M194.393 195.41H149.872V199.909H194.393V195.41Z" fill="#CFDCF4" fill-opacity="0.2"/>
<path d="M194.393 209.409H149.872V213.907H194.393V209.409Z" fill="#CFDCF4" fill-opacity="0.2"/>
<path d="M82.5458 162.079H58.2433V166.578H82.5458V162.079Z" fill="#CFDCF4" fill-opacity="0.2"/>
<path d="M82.5458 175.676H58.2433V180.175H82.5458V175.676Z" fill="#CFDCF4" fill-opacity="0.2"/>
<path d="M82.5458 190.046H58.2433V194.544H82.5458V190.046Z" fill="#CFDCF4" fill-opacity="0.2"/>
<path d="M82.5458 204.044H58.2433V208.543H82.5458V204.044Z" fill="#CFDCF4" fill-opacity="0.2"/>
<path d="M82.5458 220.061H58.2433V224.559H82.5458V220.061Z" fill="#CFDCF4" fill-opacity="0.2"/>
<path d="M115.302 162.079H90.9992V166.578H115.302V162.079Z" fill="#CFDCF4" fill-opacity="0.2"/>
<path d="M115.302 175.676H90.9992V180.175H115.302V175.676Z" fill="#CFDCF4" fill-opacity="0.2"/>
<path d="M115.302 190.046H90.9992V194.544H115.302V190.046Z" fill="#CFDCF4" fill-opacity="0.2"/>
<path d="M115.302 204.044H90.9992V208.543H115.302V204.044Z" fill="#CFDCF4" fill-opacity="0.2"/>
<path d="M115.302 220.061H90.9992V224.559H115.302V220.061Z" fill="#CFDCF4" fill-opacity="0.2"/>
<path d="M218.426 76.4558H210.868V80.9546H218.426V76.4558Z" fill="#CFDCF4" fill-opacity="0.2"/>
<path d="M218.426 90.0603H210.868V94.5591H218.426V90.0603Z" fill="#CFDCF4" fill-opacity="0.2"/>
<path d="M218.426 104.422H210.868V108.921H218.426V104.422Z" fill="#CFDCF4" fill-opacity="0.2"/>
<path d="M218.426 118.421H210.868V122.92H218.426V118.421Z" fill="#CFDCF4" fill-opacity="0.2"/>
<path d="M218.426 134.437H210.868V138.936H218.426V134.437Z" fill="#CFDCF4" fill-opacity="0.2"/>
<path d="M218.426 148.042H210.868V152.541H218.426V148.042Z" fill="#CFDCF4" fill-opacity="0.2"/>
<path d="M218.426 162.404H210.868V166.903H218.426V162.404Z" fill="#CFDCF4" fill-opacity="0.2"/>
<path d="M218.426 176.402H210.868V180.901H218.426V176.402Z" fill="#CFDCF4" fill-opacity="0.2"/>
<path d="M240.057 76.0073H232.499V80.5061H240.057V76.0073Z" fill="#CFDCF4" fill-opacity="0.2"/>
<path d="M240.057 89.6042H232.499V94.103H240.057V89.6042Z" fill="#CFDCF4" fill-opacity="0.2"/>
<path d="M240.057 103.974H232.499V108.473H240.057V103.974Z" fill="#CFDCF4" fill-opacity="0.2"/>
<path d="M240.057 117.973H232.499V122.471H240.057V117.973Z" fill="#CFDCF4" fill-opacity="0.2"/>
<path d="M240.057 133.981H232.499V138.48H240.057V133.981Z" fill="#CFDCF4" fill-opacity="0.2"/>
<path d="M240.057 147.586H232.499V152.084H240.057V147.586Z" fill="#CFDCF4" fill-opacity="0.2"/>
<path d="M240.057 161.948H232.499V166.447H240.057V161.948Z" fill="#CFDCF4" fill-opacity="0.2"/>
<path d="M240.057 175.946H232.499V180.445H240.057V175.946Z" fill="#CFDCF4" fill-opacity="0.2"/>
<path d="M261.163 75.6133H253.606V80.112H261.163V75.6133Z" fill="#CFDCF4" fill-opacity="0.2"/>
<path d="M261.163 89.21H253.606V93.7087H261.163V89.21Z" fill="#CFDCF4" fill-opacity="0.2"/>
<path d="M261.163 103.58H253.606V108.078H261.163V103.58Z" fill="#CFDCF4" fill-opacity="0.2"/>
<path d="M261.163 117.578H253.606V122.077H261.163V117.578Z" fill="#CFDCF4" fill-opacity="0.2"/>
<path d="M261.163 133.595H253.606V138.093H261.163V133.595Z" fill="#CFDCF4" fill-opacity="0.2"/>
<path d="M261.163 147.191H253.606V151.69H261.163V147.191Z" fill="#CFDCF4" fill-opacity="0.2"/>
<path d="M261.163 161.561H253.606V166.06H261.163V161.561Z" fill="#CFDCF4" fill-opacity="0.2"/>
<path d="M261.163 175.56H253.606V180.059H261.163V175.56Z" fill="#CFDCF4" fill-opacity="0.2"/>
<path d="M285.937 76.7109H278.379V81.2097H285.937V76.7109Z" fill="#CFDCF4" fill-opacity="0.2"/>
<path d="M285.937 90.3154H278.379V94.8142H285.937V90.3154Z" fill="#CFDCF4" fill-opacity="0.2"/>
<path d="M285.937 104.677H278.379V109.176H285.937V104.677Z" fill="#CFDCF4" fill-opacity="0.2"/>
<path d="M285.937 118.676H278.379V123.175H285.937V118.676Z" fill="#CFDCF4" fill-opacity="0.2"/>
<path d="M285.937 134.692H278.379V139.191H285.937V134.692Z" fill="#CFDCF4" fill-opacity="0.2"/>
<path d="M285.937 148.297H278.379V152.796H285.937V148.297Z" fill="#CFDCF4" fill-opacity="0.2"/>
<path d="M285.937 162.659H278.379V167.157H285.937V162.659Z" fill="#CFDCF4" fill-opacity="0.2"/>
<path d="M285.937 176.657H278.379V181.156H285.937V176.657Z" fill="#CFDCF4" fill-opacity="0.2"/>
<path d="M218.835 191.522H211.277V196.021H218.835V191.522Z" fill="#CFDCF4" fill-opacity="0.2"/>
<path d="M218.835 205.119H211.277V209.617H218.835V205.119Z" fill="#CFDCF4" fill-opacity="0.2"/>
<path d="M240.466 191.066H232.908V195.565H240.466V191.066Z" fill="#CFDCF4" fill-opacity="0.2"/>
<path d="M240.466 219.032H232.908V223.531H240.466V219.032Z" fill="#CFDCF4" fill-opacity="0.2"/>
<path d="M261.58 190.679H254.022V195.178H261.58V190.679Z" fill="#CFDCF4" fill-opacity="0.2"/>
<path d="M261.58 204.276H254.022V208.775H261.58V204.276Z" fill="#CFDCF4" fill-opacity="0.2"/>
<path d="M261.58 218.646H254.022V223.145H261.58V218.646Z" fill="#CFDCF4" fill-opacity="0.2"/>
<path d="M286.346 191.777H278.788V196.276H286.346V191.777Z" fill="#CFDCF4" fill-opacity="0.2"/>
<path d="M286.346 205.382H278.788V209.88H286.346V205.382Z" fill="#CFDCF4" fill-opacity="0.2"/>
<path d="M286.346 219.744H278.788V224.242H286.346V219.744Z" fill="#CFDCF4" fill-opacity="0.2"/>
<path d="M381.395 100.256H332.79V104.755H381.395V100.256Z" fill="#CFDCF4" fill-opacity="0.2"/>
<path d="M381.395 113.86H332.79V118.359H381.395V113.86Z" fill="#CFDCF4" fill-opacity="0.2"/>
<path d="M381.395 128.222H332.79V132.721H381.395V128.222Z" fill="#CFDCF4" fill-opacity="0.2"/>
<path d="M381.395 142.221H332.79V146.72H381.395V142.221Z" fill="#CFDCF4" fill-opacity="0.2"/>
<path d="M381.395 158.237H332.79V162.736H381.395V158.237Z" fill="#CFDCF4" fill-opacity="0.2"/>
<path d="M381.395 171.842H332.79V176.341H381.395V171.842Z" fill="#CFDCF4" fill-opacity="0.2"/>
<path d="M381.395 186.204H332.79V190.703H381.395V186.204Z" fill="#CFDCF4" fill-opacity="0.2"/>
<path d="M381.395 200.203H332.79V204.701H381.395V200.203Z" fill="#CFDCF4" fill-opacity="0.2"/>
<path d="M92.9061 34.6452C92.9011 34.8262 92.8618 35.0045 92.7903 35.1708H14.7102C15.0885 32.62 21.0483 30.5948 28.336 30.5948C29.3396 30.5948 30.32 30.6334 31.2619 30.703C31.8254 26.3975 36.7122 23.035 42.6489 23.035C46.725 23.035 50.2994 24.6196 52.3298 27.0004C54.1715 26.5481 56.0614 26.3222 57.9576 26.3279H58.1892C59.2546 21.69 63.8712 18.2271 69.4064 18.2271C75.7291 18.2271 80.8552 22.7722 80.8552 28.3686C80.8567 29.2922 80.7134 30.2103 80.4306 31.0895C80.8835 31.0895 81.3467 31.0895 81.8202 31.0895C87.9421 31.074 92.9061 32.6741 92.9061 34.6452Z" fill="#E0ECFC"/>
<path d="M379.403 39.1669H313.389C314.084 38.6722 317.689 38.2935 322.036 38.2935H322.715C322.268 37.4369 322.035 36.4848 322.036 35.5184C322.036 31.6535 325.741 28.5616 330.304 28.5616C333.955 28.5616 337.051 30.5636 338.147 33.3232C338.66 33.2685 339.176 33.2427 339.691 33.2459C340.155 33.2459 340.61 33.2459 341.05 33.3077C341.601 32.1382 342.476 31.1521 343.571 30.4668C344.666 29.7815 345.935 29.4261 347.226 29.4428C347.698 29.4438 348.169 29.493 348.631 29.5897C349.323 28.4022 350.308 27.4134 351.493 26.7188C352.678 26.0242 354.021 25.6472 355.394 25.6243C357.04 25.668 358.634 26.2078 359.969 27.1731C361.303 28.1385 362.316 29.4844 362.874 31.0351H363.037C367.252 31.0351 370.672 33.8643 370.672 37.3504C370.673 37.6901 370.642 38.0292 370.579 38.363C371.243 38.363 371.953 38.3012 372.687 38.3012C375.636 38.2935 378.237 38.649 379.403 39.1669Z" fill="#E0ECFC"/>
<path d="M122.427 66.9945H71.2438C71.7842 66.608 74.5788 66.3143 77.9447 66.3143H78.516C78.1678 65.6515 77.985 64.9142 77.9833 64.1654C77.9833 61.1817 80.8552 58.7545 84.3987 58.7545C87.2319 58.7545 89.6328 60.3005 90.482 62.4494C90.8716 62.405 91.2634 62.3844 91.6555 62.3875C92.0106 62.3875 92.3657 62.3875 92.7054 62.4339C93.1323 61.5305 93.8082 60.7682 94.6535 60.2368C95.4988 59.7055 96.4783 59.4271 97.4763 59.4347C97.8423 59.4342 98.2072 59.4731 98.5649 59.5507C99.0978 58.6261 99.8606 57.8554 100.779 57.3136C101.698 56.7718 102.741 56.4773 103.807 56.4587C105.083 56.4924 106.319 56.9111 107.354 57.66C108.388 58.4089 109.173 59.4532 109.604 60.656H109.728C113.001 60.656 115.657 62.8436 115.657 65.5567C115.654 65.8162 115.628 66.0749 115.58 66.3297C116.097 66.3297 116.645 66.2834 117.216 66.2834C118.981 66.223 120.743 66.4635 122.427 66.9945Z" fill="#E0ECFC"/>
<path d="M281.235 18.2347H163.119C163.421 17.4617 168.315 16.8742 174.313 16.8742C175.634 16.8742 176.9 16.8742 178.089 16.9592C177.891 16.6807 177.781 16.3498 177.772 16.0085C177.772 13.8982 181.987 12.1899 187.183 12.1899C188.068 12.193 188.952 12.2446 189.831 12.3445C189.732 11.7986 189.68 11.2452 189.676 10.6904C189.684 4.78476 194.779 0 201.056 0C207.332 0 212.396 4.78476 212.396 10.6904H212.674C213.885 10.6894 215.093 10.7902 216.287 10.9918C216.542 4.88525 223.235 0 231.496 0C238.389 0 244.203 3.40885 246.079 8.09313C246.611 8.05448 247.144 8.03902 247.7 8.03902C249.383 8.0352 251.061 8.20355 252.71 8.54146C253.939 6.90373 255.699 5.74458 257.687 5.26233C259.676 4.78008 261.77 5.00472 263.611 5.8978C265.452 6.79088 266.927 8.2969 267.781 10.1582C268.636 12.0195 268.818 14.1203 268.297 16.1012C269.107 16.0394 269.957 16.0085 270.829 16.0085C275.631 16.0085 279.715 16.9361 281.235 18.2347Z" fill="#E0ECFC"/>
<path d="M-1 258.199H385" stroke="#CED9EA" stroke-miterlimit="10"/>
<path d="M371.104 286.514C371.104 288.439 334.233 290 288.755 290C243.276 290 206.398 288.454 206.398 286.514C206.398 284.574 243.269 283.02 288.755 283.02C334.241 283.02 371.104 284.581 371.104 286.514Z" fill="#819DCB"/>
<path d="M277.615 74.0132C277.615 74.0132 277.298 77.9786 278.711 79.4241C280.355 81.0705 276.079 89.5347 267.208 84.062C258.338 78.5892 277.615 74.0132 277.615 74.0132Z" fill="#01112C"/>
<path d="M277.815 92.9435C275.546 96.762 270.96 103.618 270.96 103.618L265.417 97.4886C265.643 97.3316 265.823 97.1169 265.939 96.8669C266.054 96.6168 266.1 96.3404 266.073 96.0663C266.073 95.6335 266.027 95.1619 265.934 94.6518C265.307 90.9937 264.448 87.3792 263.364 83.83L270.458 80.0347L273.137 78.5969C273.137 78.5969 273.137 79.0221 273.137 79.7487C273.243 82.4442 273.66 85.1185 274.38 87.7181C275.106 89.9984 276.148 92.0468 277.815 92.9435Z" fill="#EEA1A8"/>
<path d="M274.419 87.718C272.435 90.207 269.331 93.4613 265.927 94.6748C265.299 91.0168 264.441 87.4023 263.356 83.8531L270.451 80.0577L273.168 79.7717C273.278 82.4598 273.698 85.1262 274.419 87.718Z" fill="#E07E8E"/>
<path d="M256.848 78.0714C256.261 79.6174 253.76 80.0502 251.313 79.084C248.866 78.1178 247.314 76.1157 247.908 74.6007C248.503 73.0856 250.996 72.6296 253.444 73.5881C255.891 74.5466 257.473 76.5641 256.848 78.0714Z" fill="#E07E8E"/>
<path d="M251.513 75.5358C251.513 75.5358 249.761 72.6526 250.741 67.489C251.722 62.3255 250.826 67.1876 250.826 67.1876L254.416 67.7364L251.513 75.5358Z" fill="#01112C"/>
<path d="M276.65 73.8508C276.241 83.7449 268.575 90.7636 261.449 90.4622C254.324 90.1607 251.066 82.7942 251.444 72.9C251.625 69.0005 252.834 65.2187 254.949 61.9391C257.558 57.9041 261.218 55.2837 264.475 55.4151C270.96 55.6857 276.055 62.5498 276.611 71.2149C276.673 72.0921 276.686 72.9721 276.65 73.8508Z" fill="#EEA1A8"/>
<path d="M270.96 70.7511L270.644 70.6893C270.644 70.6893 259.936 74.8247 251.444 72.8691C251.625 68.9696 252.834 65.1878 254.949 61.9082L268.891 64.9306L270.96 70.7511Z" fill="#E07E8E"/>
<path d="M267.957 67.7366C267.957 68.6023 269.393 73.047 274.535 75.8838H277.306L277.615 71.8179L267.957 67.7366Z" fill="#01112C"/>
<path d="M282.239 75.4278C282.556 77.0278 280.695 78.7361 278.093 79.2386C275.492 79.741 273.137 78.8598 272.821 77.2597C272.504 75.6597 274.365 73.9591 276.966 73.4489C279.568 72.9388 281.93 73.8277 282.239 75.4278Z" fill="#EEA1A8"/>
<path d="M277.615 71.8179L250.711 67.4892C252.864 59.8444 257.558 54.1784 265.88 54.7505C275.191 55.3766 277.013 62.4571 277.615 71.8179Z" fill="#CE5A67"/>
<path d="M269.686 70.5424C270.644 70.7202 261.92 66.6079 254.64 65.0852C250.711 64.2581 238.513 66.6311 239.03 67.8138C239.547 68.9965 260.878 70.7048 269.686 70.5424Z" fill="#FE6C83"/>
<path d="M262.26 76.8732C262.567 76.8732 262.816 76.4372 262.816 75.8993C262.816 75.3614 262.567 74.9253 262.26 74.9253C261.953 74.9253 261.704 75.3614 261.704 75.8993C261.704 76.4372 261.953 76.8732 262.26 76.8732Z" fill="#01112C"/>
<path d="M253.32 76.8732C253.627 76.8732 253.876 76.4372 253.876 75.8993C253.876 75.3614 253.627 74.9253 253.32 74.9253C253.013 74.9253 252.764 75.3614 252.764 75.8993C252.764 76.4372 253.013 76.8732 253.32 76.8732Z" fill="#01112C"/>
<path d="M261.48 71.6632C262.042 71.5117 262.63 71.4866 263.202 71.5895C263.775 71.6924 264.318 71.9208 264.792 72.2584" stroke="#01112C" stroke-linecap="round" stroke-linejoin="round"/>
<path d="M251.845 71.439C252.303 71.1729 252.822 71.0327 253.351 71.0327C253.88 71.0327 254.399 71.1729 254.856 71.439" stroke="#01112C" stroke-linecap="round" stroke-linejoin="round"/>
<path d="M256.284 76.2471C256.006 77.897 256.053 79.5856 256.423 81.2174" stroke="#01112C" stroke-linecap="round" stroke-linejoin="round"/>
<path d="M257.689 83.2735L264.637 80.2666C264.637 80.2666 266.907 84.5489 263.093 85.863C259.28 87.1771 257.689 83.2735 257.689 83.2735Z" fill="white"/>
<path d="M355.108 236.95L347.627 232.235L343.621 241.851L349.982 247.084L356.297 238.488L355.108 236.95Z" fill="#EEA1A8"/>
<path d="M366.819 239.169L365.878 244.263L364.974 245.198L364.758 247.517C364.758 247.517 359.354 270.706 356.065 270.026C355.593 269.926 355.131 269.784 354.684 269.601C350.337 267.823 351.449 262.892 352.445 258.006C353.533 252.673 349.727 246.643 349.727 246.643L355.131 236.958C358.347 237.119 361.539 237.604 364.658 238.404C365.397 238.603 366.119 238.859 366.819 239.169Z" fill="#284A70"/>
<path d="M366.819 239.169L365.878 244.263L364.974 245.198L364.758 247.517C364.758 247.517 359.354 270.706 356.065 270.026C355.593 269.926 355.131 269.784 354.684 269.601C356.614 265.025 362.828 249.944 362.72 245.832C363.634 243.441 364.276 240.954 364.635 238.419C365.381 238.612 366.111 238.863 366.819 239.169Z" fill="#40858E"/>
<path d="M248.896 274.741L252.756 263.734L241.848 261.454L239.123 269.524L248.896 274.741Z" fill="#EEA1A8"/>
<path d="M248.896 274.741C248.787 278.016 248.347 281.271 247.584 284.458C247.398 285.153 247.166 285.834 246.889 286.498L241.794 285.648L241.122 284.628L238.544 284.581C238.544 284.581 215.284 279.549 215.917 276.272C215.998 275.871 216.106 275.475 216.241 275.089C217.862 270.451 222.88 271.51 227.821 272.438C233.163 273.427 239.115 269.516 239.115 269.516L248.896 274.741Z" fill="#284A70"/>
<path d="M247.584 284.458C247.398 285.153 247.166 285.834 246.889 286.498L241.794 285.648L241.122 284.628L238.544 284.581C238.544 284.581 215.284 279.549 215.917 276.272C215.998 275.871 216.106 275.475 216.241 275.089C220.742 277.408 232.275 283.004 241.516 282.517C241.508 282.525 243.469 284.164 247.584 284.458Z" fill="#40858E"/>
<path d="M271.284 150.175C271.284 150.175 240.026 263.587 238.976 264.646C237.926 265.705 253.428 269.524 253.428 269.524L284.987 176.294C284.987 176.294 295.27 205.845 303.67 213.83C312.069 221.815 344.586 247.123 344.586 247.123L350.924 233.209C350.924 233.209 320.816 210.143 315.667 202.027C310.517 193.91 300.875 144.764 300.875 144.764L271.284 150.175Z" fill="#284A70"/>
<path d="M281.814 145.321C281.259 146.527 281.814 169.09 281.814 169.09" stroke="#A9D2D8" stroke-miterlimit="10"/>
<path d="M286.555 145.321C286.454 145.622 287.697 163.316 281.691 162.466" stroke="#A9D2D8" stroke-miterlimit="10"/>
<path d="M297.625 145.321C297.625 145.321 306.518 196.222 313.906 204.84C322.028 214.333 348.322 233.951 348.322 233.951" stroke="#A9D2D8" stroke-miterlimit="10"/>
<path d="M349.171 232.652L343.621 245.113" stroke="#A9D2D8" stroke-miterlimit="10"/>
<path d="M240.057 262.544L254.077 266.594" stroke="#A9D2D8" stroke-miterlimit="10"/>
<path d="M264.993 118.158C264.993 118.158 262.098 123.221 258.438 128.756C257.458 130.232 256.431 131.747 255.35 133.2C254.578 134.236 253.86 135.241 253.119 136.184C250.494 139.539 247.97 142.144 246.171 142.584C240.636 143.991 211.3 128.57 211.3 128.57L216.264 119.495C216.264 119.495 240.922 129.165 242.358 128.887C242.898 128.779 244.21 128.114 245.77 125.795L246.04 125.378C247.46 123.214 249.043 120.539 250.402 117.965C251.385 116.135 252.259 114.248 253.019 112.314C255.258 106.285 257.558 103.595 257.558 103.595L264.993 118.158Z" fill="#EEA1A8"/>
<path d="M258.438 128.756C257.458 130.232 256.431 131.747 255.35 133.2C254.578 134.236 253.86 135.241 253.119 136.184L246.017 125.362C247.437 123.198 249.02 120.523 250.379 117.949L258.438 128.756Z" fill="#E07E8E"/>
<path d="M267.957 120.717C265.079 126.046 261.901 131.208 258.438 136.176C255.613 134.012 247.515 126.019 244.681 123.809C247.275 119.905 249.885 116.303 252.247 111.827C253.7 108.887 255.485 106.122 257.566 103.587L267.957 120.717Z" fill="#FB3B43"/>
<path d="M227.913 195.093H180.165L180.837 185.268L183.701 143.164H225.258L226.462 166.647L227.913 195.093Z" fill="#EF040D"/>
<path d="M204.8 170.775C212.611 170.775 218.943 167.743 218.943 164.004C218.943 160.264 212.611 157.232 204.8 157.232C196.989 157.232 190.657 160.264 190.657 164.004C190.657 167.743 196.989 170.775 204.8 170.775Z" fill="#FFECF3"/>
<path d="M227.913 195.093H180.165L180.837 185.269C199.697 186.134 216.349 175.127 226.462 166.647L227.913 195.093Z" fill="#FB3B43"/>
<path d="M215.839 146.364C215.839 146.364 211.169 123.283 204.082 123.6" stroke="#01112C" stroke-width="3" stroke-linecap="round" stroke-linejoin="round"/>
<path d="M216.48 119.495L214.28 124.35C214.185 125.169 213.917 125.959 213.495 126.668C213.074 127.377 212.507 127.988 211.833 128.462C207.919 129.359 205.757 128.362 205.757 128.362C205.757 128.362 201.017 129.761 199.874 127.975C199.793 127.964 199.713 127.946 199.635 127.921C199.427 127.882 199.226 127.836 199.041 127.782C193.992 126.336 196.794 121.876 199.766 115.862C202.885 109.547 216.48 119.495 216.48 119.495Z" fill="#EEA1A8"/>
<path d="M206.969 121.699C204.53 123.291 200.847 125.03 199.635 127.921C199.427 127.882 199.226 127.836 199.041 127.782C199.549 126.622 200.314 125.594 201.279 124.775H200.338C199.803 124.848 199.259 124.827 198.732 124.713C198.686 124.696 198.647 124.665 198.62 124.625C198.592 124.585 198.577 124.538 198.577 124.489C198.577 124.44 198.592 124.393 198.62 124.353C198.647 124.313 198.686 124.282 198.732 124.265C199.297 124.122 199.886 124.098 200.461 124.195C200.917 124.195 201.349 124.265 201.797 124.327C202.229 123.987 202.692 123.662 203.148 123.353C202.633 122.102 202.507 120.726 202.785 119.403C202.839 119.186 203.202 119.233 203.186 119.457C203.035 120.695 203.133 121.951 203.472 123.152C204.555 122.496 205.695 121.937 206.876 121.482C207.008 121.443 207.069 121.637 206.969 121.699Z" fill="#E07E8E"/>
<path d="M203.016 123.6C195.929 123.909 191.259 146.364 191.259 146.364" stroke="#01112C" stroke-width="3" stroke-linecap="round" stroke-linejoin="round"/>
<path d="M302.11 145.321L270.505 150.863C270.505 150.863 250.672 111.139 257.489 103.618C261.349 99.3359 264.136 98.4702 265.332 97.4885L270.883 103.618C270.883 103.618 275.461 96.7619 277.731 92.9434C278.141 93.1737 278.592 93.3232 279.058 93.384C285.026 94.2033 293.503 93.9637 295.147 99.707C296.791 105.45 302.11 145.321 302.11 145.321Z" fill="#EF040D"/>
<path d="M288.854 113.14L279.019 114.802L279.36 116.822L289.195 115.16L288.854 113.14Z" fill="#FFECF3"/>
<path d="M270.96 103.618L276.673 92.0237C276.673 92.0237 280.348 91.3203 281.714 93.647C283.081 95.9736 283.536 103.224 283.536 103.224C283.868 102.273 276.526 101.013 270.96 103.618Z" fill="#FFECF3"/>
<path d="M266.112 96.0664L270.999 103.618C270.999 103.618 264.452 103.124 261.735 108.156C261.681 108.156 259.836 96.9167 266.112 96.0664Z" fill="#FFECF3"/>
<path d="M310.278 150.167L303.6 144.756C303.6 144.756 316.292 126.483 316.292 124.45C316.292 123.986 315.057 123.291 313.15 122.487C312.162 122.069 310.988 121.621 309.722 121.157C307.128 120.222 304.118 119.248 301.315 118.382C296.359 116.836 292.051 115.63 292.051 115.63C292.051 115.63 276.125 99.5524 292.051 95.8884C292.051 95.8884 301.516 100.526 310.965 105.728C313.158 106.934 315.358 108.179 317.435 109.4L317.566 109.47C323.618 113.049 328.613 116.427 329.594 118.405C332.373 123.963 310.278 150.167 310.278 150.167Z" fill="#EEA1A8"/>
<path d="M317.581 109.493C316.138 113.567 314.138 119.271 313.142 122.51C312.154 122.093 310.981 121.644 309.715 121.18C307.121 120.245 304.11 119.271 301.307 118.405L304.774 106.501L310.95 105.729C313.142 106.934 315.342 108.179 317.419 109.4L317.581 109.493Z" fill="#E07E8E"/>
<path d="M317.45 109.423C315.173 112.979 311.143 120.168 308.688 123.839C301.508 121.258 292.067 115.654 292.067 115.654C292.067 115.654 276.14 99.5756 292.067 95.9116C292.067 95.9116 306.441 102.938 317.45 109.423Z" fill="#EF040D"/>
<path d="M306.171 143.728C306.171 143.728 294.251 143.783 293.402 146.202C292.553 148.621 290.407 156.923 292.121 157.232C293.456 157.472 295.618 149.843 295.618 149.843C295.618 149.843 293.742 158.114 294.931 158.763C296.475 159.621 299.069 150.886 299.069 150.886C299.069 150.886 296.56 160.51 298.559 160.556C300.559 160.603 301.933 152.455 301.933 152.455C301.933 152.455 300.891 160.672 302.188 160.556C303.485 160.44 304.828 153.932 304.828 153.932C304.828 153.932 311.39 152.386 312.239 147.787C313.258 142.229 306.171 143.728 306.171 143.728Z" fill="#EEA1A8"/>
<path d="M177.919 286.514C177.919 288.439 143.109 290 100.178 290C57.2474 290 22.4302 288.454 22.4302 286.514C22.4302 284.574 57.2397 283.02 100.178 283.02C143.117 283.02 177.919 284.581 177.919 286.514Z" fill="#819DCB"/>
<path d="M106.532 139.964L102.394 138.99L104.139 138.712C105.066 138.811 105.921 139.258 106.532 139.964Z" fill="#EEA1A8"/>
<path d="M88.9998 84.3171C88.5906 84.6649 88.166 85.005 87.7337 85.3142C84.167 87.9192 79.9442 89.5888 75.7754 90.9647C72.394 92.0778 68.6962 93.4846 66.9978 96.878C65.199 100.449 66.3647 103.062 67.8778 106.424C68.5804 107.97 69.005 109.826 68.1403 111.271C67.5304 112.307 66.3879 112.894 65.4306 113.59C64.2963 114.451 63.369 115.556 62.7169 116.823C62.0649 118.091 61.7045 119.488 61.6623 120.913C61.6201 122.338 61.8971 123.754 62.4731 125.058C63.049 126.361 63.9092 127.519 64.9906 128.447C66.5109 129.641 68.2095 130.588 70.024 131.253C76.3853 133.881 83.0631 136.262 89.9416 136.061C94.5736 135.929 99.1052 134.623 103.482 133.1C108.323 131.423 113.21 129.374 116.823 125.733C120.436 122.093 122.489 116.496 120.683 111.696C119.988 109.856 118.745 107.97 119.324 106.092C119.71 104.847 120.806 103.982 121.756 103.085C126.697 98.4085 128.364 90.2536 124.767 84.4794C124.451 83.8878 123.974 83.3974 123.392 83.0648C122.886 82.8654 122.346 82.7682 121.802 82.7788C115.171 82.5083 101.73 73.4257 95.0677 73.1475C95.5618 73.2711 93.2844 79.0531 93.0296 79.5091C91.9789 81.3364 90.6148 82.964 88.9998 84.3171Z" fill="#01112C"/>
<path d="M127.623 73.2787C126.812 76.7958 125.307 80.2356 122.698 82.2144C117.788 85.9247 102.811 65.9122 102.811 65.9122C102.747 64.0563 103.403 62.2478 104.64 60.8646C105.952 59.557 107.671 58.7386 109.512 58.5457C116.707 57.448 127.955 60.0916 128.325 64.7295C128.501 67.5983 128.264 70.4773 127.623 73.2787Z" fill="#01112C"/>
<path d="M128.31 274.757L117.317 277.377L115.124 268.843L126.766 266.146L128.31 274.757Z" fill="#EEA1A8"/>
<path d="M118.737 285.617C116.313 285.695 116.352 282.572 116.745 280.137C116.904 279.195 117.118 278.263 117.386 277.346L128.31 274.757C128.31 274.757 135.636 274.37 140.623 275.638C142.43 276.094 143.935 276.774 144.669 277.756C147.425 281.466 122.682 285.486 118.737 285.617Z" fill="#EEA1A8"/>
<path d="M118.737 285.617C116.313 285.694 116.352 282.572 116.745 280.137C122.366 280.044 137.705 279.426 140.623 275.638C142.43 276.094 143.935 276.774 144.669 277.756C147.425 281.466 122.682 285.486 118.737 285.617Z" fill="#284A70"/>
<path d="M126.766 266.146L115.124 268.843L89.4321 168.781L105.629 148.359L126.766 266.146Z" fill="#FB3B43"/>
<path d="M115.124 266.88L126.025 264.167" stroke="#FFECF3" stroke-miterlimit="10"/>
<path d="M64.3266 268.673C61.4394 272.291 51.3184 249.349 50.1913 245.53C49.5197 243.281 52.0981 242.508 54.3061 242.261C55.2545 242.158 56.2092 242.124 57.1625 242.16H57.8496L62.9679 251.923C64.0646 255.4 64.8247 258.975 65.2376 262.598C65.4692 265.133 65.3071 267.452 64.3266 268.673Z" fill="#EEA1A8"/>
<path d="M64.3266 268.673C61.4394 272.291 51.3184 249.349 50.1913 245.53C49.5197 243.281 52.0981 242.508 54.3061 242.26C56.1203 247.981 60.3277 259.212 65.2376 262.574C65.4692 265.133 65.3071 267.452 64.3266 268.673Z" fill="#284A70"/>
<path d="M63.6164 235.829L69.5762 246.813C65.6236 249.905 62.9679 251.9 62.9679 251.9L56.6143 242.152C56.6143 242.152 59.5557 239.555 63.6164 235.829Z" fill="#EEA1A8"/>
<path d="M106.501 146.295C103.691 153.568 97.3991 162.373 97.3991 162.373C97.3991 162.373 102.031 206.433 103.104 213.745C103.876 219.156 81.164 237.708 69.5762 246.813L63.6164 235.829C72.7183 227.473 87.448 213.467 87.0929 210.607C86.5757 206.464 74.8336 178.466 73.1429 166.64C70.5335 148.359 83.1789 141.989 83.1789 141.989L102.371 138.99L106.509 139.964C107.373 140.992 107.852 142.878 106.501 146.295Z" fill="#EF040D"/>
<path d="M86.9462 142.677C86.2746 142.553 77.1727 148.861 77.4429 158.84C77.7131 168.819 91.6632 208.558 91.1305 212.052C90.5978 215.546 66.936 237.638 66.936 237.638" stroke="#FFECF3" stroke-miterlimit="10"/>
<path d="M65.3302 234.809L70.8964 244.726" stroke="#FFECF3" stroke-miterlimit="10"/>
<path d="M91.3003 142.677C91.254 142.94 86.6683 149.881 82.4377 146.295" stroke="#FFECF3" stroke-miterlimit="10"/>
<path d="M168.354 133.95L166.709 142.778C166.709 142.778 134.146 142.608 126.148 139.338C124.173 138.467 122.292 137.394 120.536 136.138C113.001 130.966 104.447 122.51 104.447 122.51L113.904 106.556C113.904 106.556 121.285 118.421 128.325 125.471C130.719 127.867 133.066 129.706 135.073 130.325C142.993 132.783 168.354 133.95 168.354 133.95Z" fill="#E07E8E"/>
<path d="M128.325 125.471L120.536 136.138C113.001 130.966 104.447 122.51 104.447 122.51L113.904 106.556C113.904 106.556 121.285 118.421 128.325 125.471Z" fill="#233A63"/>
<path d="M163.505 136.184C163.505 136.184 170.253 128.864 175.402 126.7C181.493 124.133 187.492 123.608 187.422 124.667C187.345 125.942 177.934 128.532 177.633 128.887C177.332 129.243 180.513 128.068 182.543 127.921C184.859 127.759 189.869 127.921 189.645 128.694C189.113 130.503 185.893 129.676 183.207 130.24C181.692 130.558 180.197 130.963 178.729 131.454C178.729 131.454 188.765 131.129 188.341 132.366C187.916 133.602 184.944 133.912 182.682 134.028C181.332 134.095 179.986 134.24 178.652 134.46C178.652 134.46 187.746 134.731 187.407 136.006C187.067 137.282 182.643 136.98 181.609 137.127C180.333 137.18 179.108 137.646 178.119 138.457C177.347 139.137 172.167 144.03 165.698 142.654C159.229 141.278 163.505 136.184 163.505 136.184Z" fill="#E07E8E"/>
<path d="M175.85 128.516C174.716 129.141 173.647 129.879 172.661 130.719C171.557 131.492 170.461 132.265 169.427 133.131C169.342 133.208 169.427 133.347 169.558 133.293C170.948 132.482 172.26 131.531 173.58 130.611C173.873 130.402 175.302 129.104 175.688 129.142C176.745 128.702 177.232 128.879 176.714 130.039C176.645 130.186 176.568 130.333 176.491 130.472C176.413 130.959 175.803 131.461 175.51 131.794C174.772 132.492 174.267 133.402 174.066 134.399C173.758 136.331 173.495 138.263 171.426 139.036C171.133 139.152 171.249 139.624 171.557 139.516C173.403 138.874 174.182 137.197 174.445 135.357C174.462 134.667 174.598 133.984 174.846 133.34C175.181 132.823 175.566 132.342 175.996 131.902C176.627 131.215 177.096 130.397 177.371 129.506C177.594 128.447 176.768 128.13 175.85 128.516Z" fill="#AF4F76"/>
<path d="M106.501 146.295L83.202 141.989C83.202 141.989 83.202 116.295 84.746 109.648C86.3981 102.691 90.289 100.472 95.7393 97.5273C101.367 101.593 108.863 107.306 110.052 109.648C111.14 107.818 111.898 105.811 112.291 103.719C113.696 105.423 114.801 107.355 115.557 109.431C118.336 117.702 106.501 146.295 106.501 146.295Z" fill="#284A70"/>
<path d="M109.705 99.3437C110.075 100.828 111.148 102.173 112.322 103.719C111.929 105.811 111.171 107.818 110.083 109.648C108.91 107.329 101.398 101.593 95.7702 97.5272L96.6271 97.0634C98.8652 95.6702 100.576 93.5707 101.491 91.096C102.117 89.565 102.577 87.9713 102.865 86.3421C103.019 85.4609 103.066 84.9121 103.066 84.9121L106.347 86.7518L113.132 90.5626C113.132 90.5626 109.458 94.9454 109.566 98.3929C109.577 98.714 109.624 99.0329 109.705 99.3437Z" fill="#EEA1A8"/>
<path d="M109.566 98.3931C109.577 98.7142 109.624 99.0331 109.705 99.3439C105.142 97.6742 102.572 93.3532 101.491 91.0961C102.117 89.5651 102.577 87.9714 102.865 86.3423L106.347 86.752L113.132 90.5628C113.132 90.5628 109.458 94.9456 109.566 98.3931Z" fill="#E07E8E"/>
<path d="M152.412 124.667C152.412 124.667 124.149 139.137 117.116 138.364C114.522 138.093 109.944 136.238 105.096 133.68C103.884 133.046 102.656 132.358 101.437 131.647C99.2828 130.387 97.1675 129.042 95.2607 127.681C90.8371 124.589 87.3786 121.382 86.6374 119.047C84.6611 112.786 87.2242 101.786 95.7702 103.588C95.7702 103.588 100.402 108.998 105.567 114.572C106.841 115.955 108.153 117.347 109.427 118.676C109.635 118.893 109.836 119.109 110.044 119.318C113.997 123.368 117.564 126.63 118.853 126.731C122.327 126.986 148.768 116.813 148.768 116.813L152.412 124.667Z" fill="#EEA1A8"/>
<path d="M109.435 118.707L105.127 133.726C103.915 133.092 102.687 132.404 101.468 131.693C99.3137 130.433 97.1984 129.088 95.2916 127.728L105.598 114.587C106.841 115.986 108.153 117.377 109.435 118.707Z" fill="#E07E8E"/>
<path d="M110.052 118.305L100.788 134.886C93.7244 130.758 87.6642 122.433 86.6297 119.07C84.6534 112.809 87.2164 101.81 95.7625 103.611C95.7702 103.618 103.452 111.534 110.052 118.305Z" fill="#305C7A"/>
<path d="M172.986 116.017C172.824 117.563 170.145 117.517 169.898 117.679C169.651 117.841 169.797 118.127 169.404 118.576C169.134 118.853 168.821 119.085 168.477 119.264C167.057 120.037 167.999 120.856 166.817 121.32C166.035 121.584 165.292 121.953 164.609 122.417C162.795 123.453 152.404 124.667 152.404 124.667L146.274 119.905C146.274 119.905 149.988 112.284 153.539 109.856L157.546 111.402L160.232 111.951C164.694 112.894 173.101 114.858 172.986 116.017Z" fill="#EEA1A8"/>
<path d="M172.986 116.017C172.824 117.563 170.145 117.517 169.898 117.679C169.651 117.841 169.797 118.127 169.404 118.576C166.794 115.592 162.301 113.033 160.232 111.943C164.694 112.894 173.101 114.857 172.986 116.017Z" fill="#E07E8E"/>
<path d="M159.229 114.023C158.912 114.023 157.646 106.069 157.646 106.069C157.646 106.069 175.587 104.948 180.273 110.544L182.041 118.498C182.041 118.498 174.599 113.899 159.229 114.023Z" fill="#6B9B4C"/>
<path d="M158.495 106.564C158.495 106.564 175.935 106.084 179.872 110.745L181.323 117.347C174.594 114.135 167.139 112.754 159.707 113.343L158.495 106.564Z" fill="#B4C482"/>
<path d="M172.43 110.398C172.569 111.82 171.882 113.049 170.886 113.149C169.89 113.25 168.994 112.168 168.855 110.745C168.716 109.323 169.404 108.086 170.399 107.994C171.395 107.901 172.291 108.991 172.43 110.398Z" fill="#6B9B4C"/>
<path d="M159.576 113.412C159.275 113.505 155.716 106.277 155.716 106.277C155.716 106.277 172.53 99.9002 178.66 103.858L182.697 110.938C182.697 110.938 174.244 108.743 159.576 113.412Z" fill="#8EB561"/>
<path d="M156.658 106.509C156.658 106.509 173.179 100.89 178.32 104.19L181.655 110.065C174.265 108.985 166.721 109.875 159.784 112.647L156.658 106.509Z" fill="#C9D8A3"/>
<path d="M171.102 106.046C171.658 107.36 171.364 108.743 170.453 109.137C169.543 109.532 168.354 108.759 167.806 107.445C167.257 106.131 167.543 104.747 168.454 104.353C169.365 103.959 170.554 104.724 171.102 106.046Z" fill="#8EB561"/>
<path d="M153.554 109.872C157.113 107.468 162.749 107.769 164.826 107.321C166.902 106.873 166.455 110.119 157.553 111.395" fill="#EEA1A8"/>
<path d="M128.271 80.5062C128.665 82.0522 126.859 83.8223 124.234 84.5025C121.609 85.1828 119.162 84.5025 118.768 82.9566C118.374 81.4106 120.181 79.6482 122.806 78.968C125.43 78.2878 127.878 78.9834 128.271 80.5062Z" fill="#E07E8E"/>
<path d="M114.445 96.932C107.319 97.4499 99.6302 90.0448 98.9123 80.1738C98.6076 75.57 99.9788 71.0116 102.772 67.3423C102.932 67.1155 103.102 66.8991 103.282 66.6929C105.86 63.601 109.257 61.5681 112.623 61.2821C113.955 61.1793 115.292 61.3884 116.528 61.8929C117.765 62.3974 118.868 63.1833 119.749 64.1885C121.795 66.5751 123.206 69.4417 123.848 72.5212C124.303 74.4047 124.597 76.3235 124.728 78.2568C125.415 88.1819 121.563 96.4141 114.445 96.932Z" fill="#EEA1A8"/>
<path d="M123.817 72.5598C118.413 75.1107 110.207 71.0911 110.207 71.0911C108.4 76.3861 102.803 79.6944 102.803 79.6944L101.676 76.2701L102.749 67.3422L102.811 66.7624L103.259 66.6929L119.725 64.2271C121.77 66.6145 123.177 69.4811 123.817 72.5598Z" fill="#E07E8E"/>
<path d="M108.856 65.5566C90.5669 57.3707 95.7316 81.1012 95.7316 81.1012C96.7352 91.1036 88.1892 93.5695 88.1892 93.5695C88.1892 93.5695 72.1084 97.102 87.4172 102.219C102.726 107.336 106.231 94.4507 103.297 88.4987C102.062 85.9865 102.309 82.4926 103.012 79.2925C108.91 75.1725 108.856 65.5566 108.856 65.5566Z" fill="#01112C"/>
<path d="M113.001 82.0909C113.001 82.6938 112.739 83.1808 112.422 83.1808C112.106 83.1808 111.836 82.6938 111.836 82.0909C111.836 81.488 112.098 81.001 112.422 81.001C112.746 81.001 113.001 81.488 113.001 82.0909Z" fill="#01112C"/>
<path d="M122.42 83.2272C122.739 83.2272 122.999 82.7392 122.999 82.1373C122.999 81.5353 122.739 81.0474 122.42 81.0474C122.1 81.0474 121.841 81.5353 121.841 82.1373C121.841 82.7392 122.1 83.2272 122.42 83.2272Z" fill="#01112C"/>
<path d="M121.377 77.3678C121.819 77.1182 122.322 77.0021 122.828 77.0336C123.334 77.0652 123.819 77.243 124.226 77.5456" stroke="#01112C" stroke-linecap="round" stroke-linejoin="round"/>
<path d="M110.083 77.2984C110.644 76.922 111.281 76.6759 111.949 76.5783C112.617 76.4806 113.298 76.5339 113.943 76.7341" stroke="#01112C" stroke-linecap="round" stroke-linejoin="round"/>
<path d="M120.412 81.998C120.755 83.656 120.563 85.3802 119.864 86.9219" stroke="#01112C" stroke-linecap="round" stroke-linejoin="round"/>
<path d="M118.714 88.8003C118.714 88.8003 114.615 88.638 112.746 86.6824C112.746 86.6824 110.616 91.3821 113.904 92.4952C116.9 93.531 118.714 88.8003 118.714 88.8003Z" fill="white"/>
<path d="M105.829 67.7519C105.829 67.7519 118.181 73.0468 123.516 70.3027C128.85 67.5586 122.458 62.6116 122.458 62.6116L110.106 60.0994L103.32 64.7373L105.829 67.7519Z" fill="#01112C"/>
<path d="M127.623 73.2787C126.604 69.1897 124.234 63.8715 118.714 61.2975C116.529 60.2424 114.148 59.6587 111.723 59.5841C109.299 59.5096 106.886 59.9458 104.64 60.8646C105.952 59.557 107.671 58.7386 109.512 58.5457C116.707 57.448 127.955 60.0916 128.325 64.7295C128.501 67.5983 128.264 70.4773 127.623 73.2787Z" fill="#092E4C"/>
</g>
<defs>
<linearGradient id="paint0_linear_26_5434" x1="190.356" y1="288.508" x2="193.637" y2="38.286" gradientUnits="userSpaceOnUse">
<stop offset="0.16" stop-color="#E0ECFC" stop-opacity="0"/>
<stop offset="1" stop-color="#E0ECFC"/>
</linearGradient>
<clipPath id="clip0_26_5434">
<rect width="386" height="290" fill="white" transform="translate(-1)"/>
</clipPath>
</defs>
</svg>
