<svg width="22" height="22" viewBox="0 0 22 22" fill="none" xmlns="http://www.w3.org/2000/svg">
<g id="Icon / password">
<path id="Vector" d="M4.26536 15.6257L3.57115 15.9096L3.57115 15.9096L4.26536 15.6257ZM3.94727 10.4915L3.22355 10.2947L3.22355 10.2947L3.94727 10.4915ZM18.0528 10.4915L18.7765 10.2947V10.2947L18.0528 10.4915ZM17.7347 15.6257L17.0405 15.3419L17.0405 15.3419L17.7347 15.6257ZM12.8668 19.1057L12.7514 18.3646H12.7514L12.8668 19.1057ZM9.13324 19.1057L9.01792 19.8468L9.13324 19.1057ZM7.4089 7.13662L7.26015 6.40152L7.4089 7.13662ZM14.5911 7.13662L14.4424 7.87172L14.5911 7.13662ZM8.44691 18.9989L8.56224 18.2578L8.44691 18.9989ZM4.35051 15.8339L5.04472 15.5501H5.04472L4.35051 15.8339ZM13.5531 18.9989L13.6684 19.74H13.6684L13.5531 18.9989ZM17.6495 15.834L18.3437 16.1178V16.1178L17.6495 15.834ZM17.9826 10.2335L17.2589 10.4303L17.2589 10.4303L17.9826 10.2335ZM4.01743 10.2335L4.74115 10.4303L4.01743 10.2335ZM13.9127 7.35696L13.2261 7.05523L13.9127 7.35696ZM13.0309 7.49959C12.8642 7.8788 13.0365 8.32131 13.4157 8.48795C13.795 8.65459 14.2375 8.48227 14.4041 8.10305L13.0309 7.49959ZM8.08729 7.35696L8.77392 7.05523V7.05523L8.08729 7.35696ZM7.59593 8.10305C7.76258 8.48227 8.20508 8.65459 8.58429 8.48795C8.96351 8.32131 9.13583 7.87881 8.96919 7.49959L7.59593 8.10305ZM10.306 2.81802L10.4322 3.55733L10.4322 3.55733L10.306 2.81802ZM10.4137 2.79964L10.2875 2.06033L10.2875 2.06033L10.4137 2.79964ZM11.5863 2.79964L11.4601 3.53895L11.4602 3.53895L11.5863 2.79964ZM11.694 2.81802L11.8202 2.07871L11.8202 2.07871L11.694 2.81802ZM14.1399 5.086L14.8724 4.92505L14.1399 5.086ZM7.86012 5.086L8.59265 5.24695V5.24695L7.86012 5.086ZM13.4378 18.2578L12.7514 18.3646L12.9821 19.8468L13.6684 19.74L13.4378 18.2578ZM9.24857 18.3646L8.56224 18.2578L8.33159 19.74L9.01792 19.8468L9.24857 18.3646ZM17.2589 10.4303L17.329 10.6883L18.7765 10.2947L18.7063 10.0367L17.2589 10.4303ZM17.0405 15.3419L16.9553 15.5501L18.3437 16.1178L18.4289 15.9096L17.0405 15.3419ZM5.04472 15.5501L4.95957 15.3419L3.57115 15.9096L3.6563 16.1178L5.04472 15.5501ZM4.67099 10.6883L4.74115 10.4303L3.2937 10.0367L3.22355 10.2947L4.67099 10.6883ZM4.95957 15.3419C4.35255 13.8573 4.25197 12.2293 4.67099 10.6883L3.22355 10.2947C2.7177 12.1551 2.83976 14.1208 3.57115 15.9096L4.95957 15.3419ZM17.329 10.6883C17.7481 12.2293 17.6475 13.8573 17.0405 15.3419L18.4289 15.9096C19.1603 14.1208 19.2823 12.1551 18.7765 10.2947L17.329 10.6883ZM12.7514 18.3646C11.5915 18.5451 10.4085 18.5451 9.24857 18.3646L9.01792 19.8468C10.3307 20.0511 11.6693 20.0511 12.9821 19.8468L12.7514 18.3646ZM7.55766 7.87172C9.82732 7.41244 12.1727 7.41244 14.4424 7.87172L14.7399 6.40152C12.2739 5.90251 9.72616 5.90251 7.26015 6.40152L7.55766 7.87172ZM8.56224 18.2578C6.95488 18.0077 5.62466 16.9684 5.04472 15.5501L3.6563 16.1178C4.44444 18.0453 6.22922 19.4128 8.33159 19.74L8.56224 18.2578ZM13.6684 19.74C15.7708 19.4128 17.5556 18.0453 18.3437 16.1178L16.9553 15.5501C16.3754 16.9685 15.0451 18.0077 13.4378 18.2578L13.6684 19.74ZM14.4424 7.87172C15.8321 8.15292 16.9121 9.1548 17.2589 10.4303L18.7063 10.0367C18.2031 8.18579 16.6567 6.78938 14.7399 6.40152L14.4424 7.87172ZM7.26015 6.40152C5.34339 6.78938 3.79698 8.18579 3.2937 10.0367L4.74115 10.4303C5.08796 9.1548 6.16798 8.15292 7.55766 7.87172L7.26015 6.40152ZM13.2261 7.05523L13.0309 7.49959L14.4041 8.10305L14.5994 7.65869L13.2261 7.05523ZM7.40067 7.65869L7.59593 8.10305L8.96919 7.49959L8.77392 7.05523L7.40067 7.65869ZM10.4322 3.55733L10.5399 3.53895L10.2875 2.06033L10.1799 2.07871L10.4322 3.55733ZM11.4602 3.53895L11.5678 3.55733L11.8202 2.07871L11.7125 2.06033L11.4602 3.53895ZM13.4074 5.24695C13.5404 5.85238 13.4778 6.48253 13.2261 7.05523L14.5994 7.65869C14.9782 6.79664 15.074 5.84256 14.8724 4.92505L13.4074 5.24695ZM7.1276 4.92505C6.926 5.84256 7.02185 6.79664 7.40067 7.65869L8.77392 7.05523C8.52226 6.48253 8.45963 5.85238 8.59265 5.24695L7.1276 4.92505ZM10.5399 3.53895C10.8442 3.48702 11.1559 3.48702 11.4601 3.53895L11.7125 2.06033C11.2412 1.97989 10.7589 1.97989 10.2875 2.06033L10.5399 3.53895ZM14.8724 4.92505C14.548 3.44847 13.3271 2.33589 11.8202 2.07871L11.5678 3.55733C12.5066 3.71755 13.2212 4.39975 13.4074 5.24695L14.8724 4.92505ZM8.59265 5.24695C8.7788 4.39975 9.49345 3.71755 10.4322 3.55733L10.1799 2.07871C8.67297 2.33589 7.45203 3.44847 7.1276 4.92505L8.59265 5.24695Z" fill="#807A7A"/>
</g>
</svg>
