<svg width="24" height="24" viewBox="0 0 24 24" fill="none" xmlns="http://www.w3.org/2000/svg">
<g id="star 5" clip-path="url(#clip0_26_5860)">
<path id="Vector" d="M23.44 9.3226C23.2895 8.85687 22.8764 8.52609 22.3877 8.48204L15.7493 7.87927L13.1242 1.73516C12.9307 1.28488 12.4899 0.993408 12.0001 0.993408C11.5104 0.993408 11.0695 1.28488 10.876 1.73622L8.25097 7.87927L1.61149 8.48204C1.12366 8.52714 0.711627 8.85687 0.560187 9.3226C0.408747 9.78832 0.548605 10.2991 0.917641 10.6212L5.93551 15.0219L4.45586 21.5397C4.34758 22.019 4.53359 22.5144 4.93123 22.8018C5.14497 22.9562 5.39503 23.0348 5.64719 23.0348C5.86461 23.0348 6.08028 22.9762 6.27384 22.8604L12.0001 19.438L17.7243 22.8604C18.1432 23.1124 18.6712 23.0894 19.0679 22.8018C19.4658 22.5135 19.6516 22.0179 19.5433 21.5397L18.0637 15.0219L23.0815 10.622C23.4506 10.2991 23.5915 9.7892 23.44 9.3226Z" fill="#FFC107"/>
</g>
<defs>
<clipPath id="clip0_26_5860">
<rect width="23" height="23" fill="white" transform="translate(0.5 0.5)"/>
</clipPath>
</defs>
</svg>
