<svg width="26" height="26" viewBox="0 0 26 26" fill="none" xmlns="http://www.w3.org/2000/svg">
<g clip-path="url(#clip0_126_672)">
<path d="M25.0952 2.59998L25.9618 2.54278C25.9506 2.37263 25.8894 2.20959 25.7859 2.07405C25.6824 1.93852 25.5413 1.83652 25.3801 1.78083C25.219 1.72513 25.045 1.71822 24.8799 1.76094C24.7148 1.80367 24.566 1.89415 24.4521 2.02104L25.0952 2.59998ZM24.232 7.72891C24.232 7.49906 24.1407 7.27862 23.9781 7.11608C23.8156 6.95355 23.5951 6.86224 23.3653 6.86224C23.1354 6.86224 22.915 6.95355 22.7525 7.11608C22.5899 7.27862 22.4986 7.49906 22.4986 7.72891H24.232ZM0.86663 21.6666V20.8C0.680538 20.7997 0.499315 20.8594 0.349769 20.9702C0.200223 21.0809 0.0902972 21.2369 0.0362536 21.415C-0.01779 21.593 -0.0130813 21.7838 0.0496833 21.959C0.112448 22.1341 0.229935 22.2845 0.384763 22.3877L0.86663 21.6666ZM2.5965 2.59998L3.40943 2.29664C3.35035 2.1384 3.24633 2.00087 3.11014 1.90097C2.97395 1.80106 2.81153 1.74312 2.64285 1.73428C2.47418 1.72544 2.30659 1.76609 2.16071 1.85121C2.01482 1.93634 1.89699 2.06224 1.8217 2.21344L2.5965 2.59998ZM9.51943 18.2L10.133 18.8118C10.2371 18.7074 10.3129 18.5781 10.3531 18.4363C10.3933 18.2944 10.3966 18.1446 10.3628 18.0011C10.3289 17.8576 10.259 17.7251 10.1597 17.6161C10.0603 17.5071 9.93482 17.4253 9.79503 17.3784L9.51943 18.2ZM22.041 4.28651L21.3997 4.86891L21.7117 5.21384L22.171 5.14451L22.041 4.28651ZM24.232 2.65718C24.3204 4.00571 24.2372 4.82384 24.0188 5.44091C23.8073 6.03891 23.4364 6.53118 22.7656 7.17424L23.965 8.42571C24.7242 7.69771 25.3101 6.98358 25.6533 6.01984C25.9878 5.07344 26.0572 3.97798 25.9618 2.54278L24.232 2.65718ZM24.232 8.99078V7.72891H22.4986V8.99251H24.232V8.99078ZM12.116 7.87104V9.53331H13.8493V7.87104H12.116ZM12.116 9.53331V10.4H13.8493V9.53331H12.116ZM18.2433 1.73331C17.4377 1.73376 16.6401 1.89288 15.8961 2.20158C15.152 2.51028 14.476 2.9625 13.9067 3.53245C13.3374 4.10239 12.886 4.77888 12.5781 5.5233C12.2703 6.26771 12.112 7.06548 12.1125 7.87104H13.8458C13.8454 7.29296 13.9588 6.72045 14.1797 6.18621C14.4005 5.65198 14.7245 5.16649 15.133 4.75748C15.5415 4.34848 16.0266 4.02396 16.5606 3.80247C17.0946 3.58099 17.6669 3.46687 18.245 3.46664V1.73331H18.2433ZM22.4969 8.99078C22.4986 16.4718 16.4441 22.5333 8.97863 22.5333V24.2666C17.4026 24.2666 24.232 17.4269 24.232 8.99078H22.4969ZM1.7853 2.90331C2.72823 5.42011 6.26423 10.4 12.9826 10.4V8.66664C7.2349 8.66664 4.19636 4.40264 3.4077 2.29664L1.7853 2.90331ZM1.8217 2.21344C0.00689669 5.84651 -0.27217 9.37211 1.0469 12.3742C2.3625 15.3677 5.19303 17.6696 9.24556 19.0216L9.79503 17.3784C6.0597 16.1304 3.69716 14.0989 2.6329 11.6757C1.5721 9.26118 1.72636 6.28504 3.37303 2.98651L1.8217 2.21344ZM8.90583 17.5881C7.86236 18.6333 4.72503 20.8 0.86663 20.8V22.5333C5.31436 22.5333 8.86943 20.0789 10.133 18.8118L8.90583 17.5881ZM22.6841 3.70584C22.1237 3.08436 21.4389 2.58761 20.6742 2.24779C19.9095 1.90798 19.0819 1.7327 18.245 1.73331V3.46664C19.4948 3.46664 20.6197 4.00571 21.3997 4.86891L22.6841 3.70584ZM22.171 5.14451C23.5517 4.91894 24.8126 4.22483 25.7417 3.17891L24.4521 2.02104C23.7912 2.76766 22.8943 3.26506 21.911 3.43024L22.171 5.14451ZM0.384763 22.3877C3.22916 24.284 6.2105 24.2666 8.97863 24.2666V22.5333C6.1533 22.5333 3.69543 22.5142 1.3485 20.9456L0.384763 22.3877Z" fill="#EF040D"/>
</g>
<defs>
<clipPath id="clip0_126_672">
<rect width="26" height="26" fill="white"/>
</clipPath>
</defs>
</svg>
