<?xml version="1.0" standalone="no"?>
<!DOCTYPE svg PUBLIC "-//W3C//DTD SVG 20010904//EN"
 "http://www.w3.org/TR/2001/REC-SVG-20010904/DTD/svg10.dtd">
<svg version="1.0" xmlns="http://www.w3.org/2000/svg"
 width="612.000000pt" height="408.000000pt" viewBox="0 0 612.000000 408.000000"
 preserveAspectRatio="xMidYMid meet">

<g transform="translate(0.000000,408.000000) scale(0.100000,-0.100000)"
fill="#000000" stroke="none">
<path d="M2627 2863 c-450 -450 -820 -828 -823 -839 -9 -34 17 -72 110 -163
l86 -85 -175 -176 c-158 -159 -175 -180 -175 -210 0 -31 15 -49 143 -177 132
-132 146 -143 180 -143 26 0 46 8 71 30 47 42 102 63 164 62 170 -1 240 -201
118 -339 -23 -27 -31 -46 -31 -74 0 -37 9 -47 157 -194 139 -137 161 -155 190
-155 30 0 99 66 850 817 457 457 819 827 823 840 8 35 -8 58 -107 159 l-91 92
177 173 c160 158 176 177 176 208 0 31 -15 50 -137 174 -76 76 -151 145 -166
153 -33 18 -62 11 -97 -21 -73 -67 -191 -86 -262 -42 -62 37 -82 72 -86 147
-4 74 10 112 68 185 50 63 43 77 -129 247 -132 131 -153 148 -182 148 -31 0
-96 -62 -852 -817z m958 529 l51 -54 -31 -61 c-27 -56 -30 -70 -30 -162 0
-122 21 -176 96 -247 72 -68 140 -91 250 -86 72 3 98 9 149 35 l63 31 81 -80
81 -80 -145 -138 c-109 -105 -151 -139 -171 -140 -14 0 -44 -14 -65 -31 -65
-52 -94 -63 -165 -63 -55 0 -74 4 -106 26 -42 27 -71 76 -80 132 -8 49 21 136
62 183 62 72 57 85 -102 246 -135 136 -174 167 -210 167 -10 0 -270 -252 -608
-590 -325 -324 -593 -590 -597 -590 -10 0 -118 108 -118 118 0 4 334 341 742
749 l742 742 31 -27 c16 -15 53 -51 80 -80z m-176 -586 l74 -75 -27 -59 c-58
-130 -56 -241 5 -349 49 -86 117 -132 227 -153 75 -15 143 -4 234 36 l59 27
80 -79 79 -79 -151 -151 -151 -151 -44 5 c-64 7 -88 -16 -82 -80 l5 -46 -537
-537 -537 -536 -87 86 -87 87 25 51 c52 107 57 220 14 320 -30 68 -120 148
-193 172 -82 25 -202 17 -273 -19 -28 -14 -56 -26 -61 -26 -5 0 -43 32 -83 70
l-73 70 545 545 c449 449 550 545 572 545 30 0 68 41 68 74 0 21 294 326 315
326 6 0 44 -33 84 -74z"/>
<path d="M3005 2485 c-34 -33 -32 -68 8 -110 44 -47 76 -53 112 -22 42 36 39
80 -8 124 -44 40 -79 42 -112 8z"/>
<path d="M3145 2340 c-31 -34 -24 -78 18 -117 42 -38 73 -42 111 -12 38 30 36
76 -7 117 -40 39 -93 44 -122 12z"/>
<path d="M3295 2195 c-34 -33 -32 -68 8 -112 43 -47 88 -50 124 -9 32 38 29
62 -16 107 -46 46 -80 50 -116 14z"/>
<path d="M3470 2073 c-60 -22 -68 -87 -16 -139 41 -41 82 -45 114 -11 32 33
28 71 -10 111 -34 36 -62 48 -88 39z"/>
<path d="M3585 1905 c-33 -32 -31 -67 6 -110 25 -28 38 -35 68 -35 79 0 101
79 38 137 -44 40 -79 42 -112 8z"/>
</g>
</svg>
