<svg width="21" height="16" viewBox="0 0 21 16" fill="none" xmlns="http://www.w3.org/2000/svg">
<g id="Ticket">
<path id="Ticket_2" fill-rule="evenodd" clip-rule="evenodd" d="M19.8795 6.59984C19.7497 6.72589 19.5736 6.79792 19.3882 6.79792C18.7024 6.79792 18.1463 7.33814 18.1463 7.99542C18.1463 8.65719 18.6959 9.19471 19.3753 9.20191C19.758 9.20552 20.0834 9.46482 20.0834 9.83668V12.1461C20.0834 14.09 18.4614 15.6666 16.4595 15.6666H13.438C13.1257 15.6666 12.8727 15.4208 12.8727 15.1174V13.1726C12.8727 12.7944 12.5668 12.4973 12.1776 12.4973C11.7976 12.4973 11.4825 12.7944 11.4825 13.1726V15.1174C11.4825 15.4208 11.2294 15.6666 10.918 15.6666H4.54056C2.54789 15.6666 0.916687 14.0909 0.916687 12.1461V9.83668C0.916687 9.46482 1.242 9.20552 1.62478 9.20191C2.30507 9.19471 2.85374 8.65719 2.85374 7.99542C2.85374 7.35615 2.31619 6.86995 1.6118 6.86995C1.42644 6.86995 1.25034 6.79792 1.12059 6.67187C0.990833 6.54582 0.916687 6.37475 0.916687 6.19467V3.86271C0.916687 1.92151 2.5516 0.333252 4.54983 0.333252H10.918C11.2294 0.333252 11.4825 0.579053 11.4825 0.882479V3.18743C11.4825 3.55658 11.7976 3.86271 12.1776 3.86271C12.5668 3.86271 12.8727 3.55658 12.8727 3.18743V0.882479C12.8727 0.579053 13.1257 0.333252 13.438 0.333252H16.4595C18.4614 0.333252 20.0834 1.9089 20.0834 3.85371V6.12264C20.0834 6.30272 20.0092 6.47379 19.8795 6.59984ZM12.1776 10.7506C12.5668 10.7506 12.8727 10.4444 12.8727 10.0753V6.47379C12.8727 6.10464 12.5668 5.79851 12.1776 5.79851C11.7976 5.79851 11.4825 6.10464 11.4825 6.47379V10.0753C11.4825 10.4444 11.7976 10.7506 12.1776 10.7506Z" fill="#297EFF"/>
</g>
</svg>
