<?xml version="1.0" standalone="no"?>
<!DOCTYPE svg PUBLIC "-//W3C//DTD SVG 20010904//EN"
 "http://www.w3.org/TR/2001/REC-SVG-20010904/DTD/svg10.dtd">
<svg version="1.0" xmlns="http://www.w3.org/2000/svg"
 width="225.000000pt" height="225.000000pt" viewBox="0 0 225.000000 225.000000"
 preserveAspectRatio="xMidYMid meet">

<g transform="translate(0.000000,225.000000) scale(0.100000,-0.100000)"
fill="#000000" stroke="none">
<path d="M386 2149 c-60 -14 -153 -68 -192 -112 -20 -22 -50 -69 -68 -106
l-31 -66 0 -740 0 -740 31 -65 c37 -79 78 -128 142 -169 97 -62 96 -62 883
-59 l714 3 67 32 c85 40 151 106 191 191 l32 67 3 303 3 302 -125 0 -125 0 -3
-272 c-3 -238 -5 -277 -21 -305 -35 -65 -5 -63 -764 -63 -660 0 -689 1 -719
19 -66 40 -65 31 -62 776 3 639 4 671 22 698 39 57 39 57 481 57 l405 0 0 130
0 130 -412 -1 c-227 -1 -430 -5 -452 -10z"/>
<path d="M1781 2056 l-43 -44 141 -139 140 -140 45 46 46 46 -138 138 c-75 75
-140 137 -143 137 -2 0 -24 -20 -48 -44z"/>
<path d="M1217 1492 l-417 -417 140 -140 140 -140 389 389 c214 214 393 386
398 383 6 -4 24 8 42 26 l31 33 -144 142 c-79 78 -148 142 -152 142 -5 0 -197
-188 -427 -418z"/>
<path d="M658 791 c-25 -100 -44 -181 -42 -181 15 0 340 84 346 89 4 4 -52 67
-126 140 l-133 133 -45 -181z"/>
</g>
</svg>
