<?xml version="1.0" standalone="no"?>
<!DOCTYPE svg PUBLIC "-//W3C//DTD SVG 20010904//EN"
 "http://www.w3.org/TR/2001/REC-SVG-20010904/DTD/svg10.dtd">
<svg version="1.0" xmlns="http://www.w3.org/2000/svg"
 width="462.000000pt" height="462.000000pt" viewBox="0 0 462.000000 462.000000"
 preserveAspectRatio="xMidYMid meet">

<g transform="translate(0.000000,462.000000) scale(0.100000,-0.100000)"
fill="#000000" stroke="none">
<path d="M2078 4025 c-480 -68 -902 -324 -1180 -716 -78 -109 -184 -314 -228
-443 -104 -302 -117 -674 -35 -991 102 -392 343 -740 676 -977 109 -78 314
-184 443 -228 302 -104 674 -117 991 -35 392 102 740 343 977 676 78 109 184
314 228 443 104 302 117 674 35 991 -83 317 -243 588 -487 820 -125 120 -255
211 -413 289 -255 128 -446 175 -730 181 -121 3 -212 0 -277 -10z m523 -1233
c734 -408 824 -460 824 -481 0 -22 -90 -74 -828 -485 -666 -369 -832 -458
-845 -449 -16 9 -17 86 -20 928 -2 929 -2 945 33 945 7 0 383 -206 836 -458z"/>
</g>
</svg>
