<svg width="18" height="18" viewBox="0 0 18 18" fill="none" xmlns="http://www.w3.org/2000/svg">
<path fill-rule="evenodd" clip-rule="evenodd" d="M13.3267 6.28635H16.5C16.5 3.73844 14.9733 2.25 12.3867 2.25H5.61333C3.02667 2.25 1.5 3.73844 1.5 6.25385V11.7461C1.5 14.2616 3.02667 15.75 5.61333 15.75H12.3867C14.9733 15.75 16.5 14.2616 16.5 11.7461V11.5122H13.3267C11.8539 11.5122 10.66 10.3481 10.66 8.91225C10.66 7.47637 11.8539 6.31235 13.3267 6.31235V6.28635ZM13.3267 7.4043H15.94C16.2493 7.4043 16.5 7.64875 16.5 7.95028V9.84821C16.4964 10.1483 16.2478 10.3907 15.94 10.3942H13.3867C12.6411 10.404 11.9891 9.90627 11.82 9.19824C11.7353 8.75871 11.8542 8.30517 12.1448 7.95916C12.4354 7.61314 12.868 7.41005 13.3267 7.4043ZM13.44 9.39972H13.6867C14.0033 9.39972 14.26 9.14946 14.26 8.84075C14.26 8.53203 14.0033 8.28177 13.6867 8.28177H13.44C13.2886 8.28003 13.1427 8.33747 13.035 8.44127C12.9273 8.54507 12.8667 8.68659 12.8667 8.83425C12.8667 9.14403 13.1223 9.39616 13.44 9.39972ZM5.05332 6.28634H9.28665C9.6033 6.28634 9.85999 6.03608 9.85999 5.72736C9.85999 5.41864 9.6033 5.16838 9.28665 5.16838H5.05332C4.73926 5.16836 4.48364 5.41469 4.47999 5.72086C4.47997 6.03064 4.7356 6.28278 5.05332 6.28634Z" fill="#EF040D"/>
</svg>
